<svg fill="none" xmlns="http://www.w3.org/2000/svg" viewBox="0 0 60 60"><path d="M16.54 54.57h-.27A12.67 12.67 0 013.59 41.9v-1.37a12.64 12.64 0 0112.65-12.71h.27c2 0 3.65 1.64 3.65 3.65v19.46c.03 2.01-1.61 3.65-3.62 3.65z" fill="#332247"/><path d="M11.86 53.78c.73.27 1.49.46 2.25.61V27.96c-.8.12-1.52.34-2.25.61v25.21z" fill="#332247"/><path d="M16.54 55.18h-.27A13.34 13.34 0 012.92 41.86v-1.37c0-7.36 5.96-13.32 13.32-13.32h.27a4.3 4.3 0 014.29 4.29v19.46a4.27 4.27 0 01-4.26 4.26zm-.3-26.76A12.08 12.08 0 004.16 40.49v1.37c0 6.66 5.42 12.07 12.08 12.07h.27a3.02 3.02 0 003.01-3V31.45a3.02 3.02 0 00-3.01-3.01h-.27v-.03z" fill="#332247"/><path d="M16.54 27.8h-.27c-.73 0-1.43.07-2.13.2v26.39c.7.12 1.4.18 2.13.18h.27c2 0 3.65-1.64 3.65-3.65V31.46a3.64 3.64 0 00-3.65-3.65z" fill="#E7EFE7"/><path d="M16.54 55.18h-.27c-.73 0-1.5-.06-2.22-.18l-.52-.1V27.45l.52-.09c.73-.12 1.49-.18 2.22-.18h.27a4.3 4.3 0 014.29 4.29v19.46a4.32 4.32 0 01-4.29 4.26zm-1.8-1.34c.5.06 1.01.1 1.5.1h.27a3.02 3.02 0 003.01-3.02V31.46a3.02 3.02 0 00-3.01-3.01h-.27c-.49 0-1 .03-1.5.09v25.3z" fill="#332247"/><path d="M16.09 32.7h-1.95a.64.64 0 01-.64-.63c0-.34.27-.64.64-.64h1.95c.33 0 .63.27.63.64-.03.36-.3.64-.63.64zM16.08 37.27h-1.94a.64.64 0 01-.64-.64c0-.34.27-.64.64-.64h1.94c.34 0 .64.27.64.64-.03.33-.3.64-.64.64zM16.08 41.8h-1.94a.64.64 0 01-.64-.64c0-.33.27-.64.64-.64h1.94c.34 0 .64.28.64.64-.03.37-.3.64-.64.64zM16.08 46.36h-1.94a.64.64 0 01-.64-.64c0-.36.27-.64.64-.64h1.94c.34 0 .64.28.64.64 0 .37-.3.64-.64.64zM16.08 50.9h-1.94a.64.64 0 01-.64-.65c0-.36.27-.64.64-.64h1.94c.34 0 .64.28.64.64 0 .37-.3.64-.64.64z" fill="#332247"/><path d="M5.47 47.91H3.62c-1.1 0-1.98-.88-1.98-1.97v-9.5c0-1.09.88-1.97 1.98-1.97h1.85a14.94 14.94 0 010 13.44z" fill="#625770"/><path d="M5.84 48.55H3.62A2.62 2.62 0 011 45.93v-9.48a2.62 2.62 0 012.62-2.62h2.25l.18.34a15.59 15.59 0 010 14.02l-.21.36zM3.62 35.08c-.76 0-1.37.6-1.37 1.37v9.48c0 .77.6 1.37 1.37 1.37h1.46a14.34 14.34 0 000-12.22H3.62zM44.43 54.57h.27c7.03 0 12.68-5.69 12.68-12.68v-1.37c0-7.02-5.68-12.68-12.68-12.68h-.27c-2 0-3.65 1.64-3.65 3.65v19.46a3.65 3.65 0 003.65 3.62z" fill="#332247"/><path d="M49.11 53.78c-.73.27-1.49.46-2.25.61V27.96c.8.12 1.52.34 2.25.61v25.21z" fill="#332247"/><path d="M44.73 55.18h-.27a4.3 4.3 0 01-4.29-4.29V31.46a4.3 4.3 0 014.29-4.29h.27c7.33 0 13.32 5.96 13.32 13.32v1.37c0 7.36-5.99 13.32-13.32 13.32zm-.3-26.76a3.02 3.02 0 00-3.01 3V50.9a3.02 3.02 0 003 3.01h.28c6.66 0 12.08-5.41 12.08-12.07v-1.37c0-6.66-5.42-12.07-12.08-12.07h-.27v.03z" fill="#332247"/><path d="M44.43 27.8h.27c.73 0 1.43.07 2.13.2v26.39c-.7.12-1.4.18-2.13.18h-.27c-2 0-3.65-1.64-3.65-3.65V31.46a3.64 3.64 0 013.65-3.65z" fill="#E7EFE7"/><path d="M44.73 55.18h-.27a4.3 4.3 0 01-4.29-4.29V31.46a4.3 4.3 0 014.29-4.29h.27c.73 0 1.5.06 2.22.18l.52.1V54.9l-.52.09c-.73.12-1.49.18-2.22.18zm-.3-26.76a3.02 3.02 0 00-3.01 3V50.9a3.02 3.02 0 003 3.01h.28c.49 0 1-.03 1.5-.09v-25.3c-.5-.06-1.01-.1-1.5-.1h-.27z" fill="#332247"/><path d="M46.86 32.7h-1.95a.64.64 0 01-.63-.63c0-.34.27-.64.63-.64h1.95c.34 0 .64.27.64.64-.03.36-.3.64-.64.64zM46.86 37.27h-1.95a.64.64 0 01-.63-.64c0-.34.27-.64.63-.64h1.95c.34 0 .64.27.64.64-.03.33-.3.64-.64.64zM46.86 41.8h-1.95a.64.64 0 01-.63-.64c0-.33.27-.64.63-.64h1.95c.34 0 .64.28.64.64-.03.37-.3.64-.64.64zM46.86 46.36h-1.95a.64.64 0 01-.63-.64c0-.36.27-.64.63-.64h1.95c.34 0 .64.28.64.64 0 .37-.3.64-.64.64zM46.86 50.9h-1.95a.64.64 0 01-.63-.65c0-.36.27-.64.63-.64h1.95c.34 0 .64.28.64.64 0 .37-.3.64-.64.64z" fill="#332247"/><path d="M55.5 47.91h1.85c1.1 0 1.98-.88 1.98-1.97v-9.5c0-1.09-.88-1.97-1.98-1.97H55.5a14.94 14.94 0 000 13.44z" fill="#625770"/><path d="M57.35 48.55h-2.22l-.18-.33a15.59 15.59 0 010-14.02l.18-.34h2.25A2.62 2.62 0 0160 36.48v9.49a2.66 2.66 0 01-2.65 2.58zM55.9 47.3h1.46c.76 0 1.37-.6 1.37-1.36v-9.5c0-.75-.6-1.36-1.37-1.36H55.9a14.56 14.56 0 000 12.22z" fill="#332247"/><path d="M59.36 41.8a.64.64 0 01-.64-.64V36.2A28.3 28.3 0 0030.47 7.95 28.3 28.3 0 002.22 36.2v5c0 .33-.28.63-.64.63-.37 0-.58-.3-.58-.64v-4.96c0-7.87 3.07-15.26 8.64-20.86A29.33 29.33 0 0130.5 6.73c7.88 0 15.27 3.08 20.86 8.64A29.33 29.33 0 0160 36.23v4.96c-.03.34-.3.6-.64.6z" fill="#332247"/><path d="M55.2 23.03c-.58 0-1.16-.3-1.5-.85A26.97 26.97 0 0030.5 9.11c-9.58 0-18.25 4.9-23.2 13.07a1.73 1.73 0 01-2.4.58 1.73 1.73 0 01-.59-2.4 30.77 30.77 0 0110.95-10.7A30.82 30.82 0 0130.5 5.63c5.35 0 10.61 1.4 15.24 4.07a30.77 30.77 0 0110.94 10.7c.5.83.25 1.9-.57 2.41-.3.12-.61.21-.92.21z" fill="#332247"/><path d="M5.78 23.64c-.43 0-.86-.12-1.22-.33a2.35 2.35 0 01-1.07-1.46c-.15-.61-.06-1.25.28-1.8 2.73-4.5 6.6-8.27 11.16-10.91a31.3 31.3 0 0142.3 10.91 2.4 2.4 0 01-.79 3.26c-.36.21-.79.33-1.21.33-.83 0-1.59-.42-2.04-1.12A26.34 26.34 0 0030.5 9.74 26.38 26.38 0 007.81 22.52c-.33.54-.85.91-1.46 1.06-.18.03-.36.06-.57.06zM30.5 6.24c-5.26 0-10.4 1.38-14.93 4a30.15 30.15 0 00-10.7 10.45c-.16.25-.22.55-.13.85.06.3.24.55.52.7.24.16.55.22.85.13.3-.07.55-.25.7-.52A27.54 27.54 0 0130.56 8.47c9.8 0 18.67 4.98 23.75 13.38a1.11 1.11 0 001.52.4c.52-.31.7-1.01.37-1.53A30.15 30.15 0 0030.5 6.25z" fill="#332247"/></svg>