<svg viewBox="0 0 31 26" fill="none" xmlns="http://www.w3.org/2000/svg"><path d="M8.052 25.685H7.91a6.567 6.567 0 01-6.57-6.571v-.71a6.547 6.547 0 016.555-6.586h.141c1.04 0 1.891.851 1.891 1.891v10.085a1.873 1.873 0 01-1.875 1.89z" fill="#F0592C"/><path d="M5.625 25.275c.379.142.773.237 1.167.315V11.897c-.41.063-.788.173-1.167.315v13.063z" fill="#DB4C22"/><path d="M8.052 26H7.91C4.097 26 .993 22.912.993 19.098v-.709a6.9 6.9 0 016.902-6.902h.141a2.23 2.23 0 012.222 2.222v10.085A2.213 2.213 0 018.052 26zm-.157-13.867a6.261 6.261 0 00-6.256 6.256v.71a6.26 6.26 0 006.256 6.255h.141c.867 0 1.56-.71 1.56-1.56V13.709c0-.867-.709-1.56-1.56-1.56h-.141v-.016z" fill="#332247"/><path d="M8.052 11.818H7.91c-.378 0-.74.032-1.103.095V25.59c.363.063.725.095 1.103.095h.142c1.04 0 1.891-.851 1.891-1.891V13.709c0-1.056-.85-1.89-1.89-1.89z" fill="#E7EFE7"/><path d="M8.052 26H7.91c-.378 0-.772-.032-1.15-.095l-.268-.047V11.63l.268-.047a7.084 7.084 0 011.15-.095h.142a2.23 2.23 0 012.222 2.222v10.085A2.236 2.236 0 018.052 26zm-.93-.693c.253.031.52.047.773.047h.141c.867 0 1.56-.71 1.56-1.56V13.709c0-.867-.709-1.56-1.56-1.56h-.141c-.253 0-.52.016-.773.047v13.11z" fill="#332247"/><path d="M7.816 14.355H6.807a.333.333 0 01-.33-.33c0-.174.141-.332.33-.332h1.009c.173 0 .33.142.33.331-.015.19-.157.331-.33.331zM7.816 16.719H6.807a.333.333 0 01-.33-.331c0-.173.141-.331.33-.331h1.009c.173 0 .33.142.33.33-.015.174-.157.332-.33.332zM7.816 19.067H6.807a.333.333 0 01-.33-.331c0-.174.141-.331.33-.331h1.009c.173 0 .33.142.33.33-.015.19-.157.332-.33.332zM7.816 21.43H6.807a.333.333 0 01-.33-.33c0-.19.141-.332.33-.332h1.009c.173 0 .33.142.33.331 0 .19-.157.331-.33.331zM7.816 23.778H6.807a.333.333 0 01-.33-.33c0-.19.141-.332.33-.332h1.009c.173 0 .33.142.33.331 0 .19-.157.331-.33.331z" fill="#332247"/><path d="M2.316 22.234h-.96A1.022 1.022 0 01.33 21.21v-4.917c0-.567.457-1.024 1.024-1.024h.961a7.743 7.743 0 010 6.965z" fill="#F47A4D"/><path d="M2.505 22.565h-1.15C.615 22.565 0 21.966 0 21.21v-4.917c0-.74.599-1.355 1.355-1.355h1.166l.095.173a8.077 8.077 0 010 7.265l-.11.189zm-1.15-6.98a.706.706 0 00-.709.708v4.917c0 .394.315.709.71.709h.756a7.428 7.428 0 000-6.335h-.757z" fill="#332247"/><path d="M22.502 25.685h.142c3.64 0 6.57-2.947 6.57-6.571v-.71c0-3.64-2.946-6.57-6.57-6.57h-.142c-1.04 0-1.891.85-1.891 1.89V23.81c0 1.024.85 1.875 1.89 1.875z" fill="#F0592C"/><path d="M24.928 25.275a7.501 7.501 0 01-1.166.315V11.897c.41.063.788.173 1.166.315v13.063z" fill="#DB4C22"/><path d="M22.66 26h-.142a2.23 2.23 0 01-2.222-2.222V13.71a2.23 2.23 0 012.222-2.222h.141c3.798 0 6.902 3.089 6.902 6.902v.71c0 3.813-3.104 6.901-6.902 6.901zm-.158-13.867c-.867 0-1.56.71-1.56 1.56v10.085c0 .867.709 1.56 1.56 1.56h.142a6.261 6.261 0 006.255-6.256v-.709a6.26 6.26 0 00-6.255-6.255h-.142v.015z" fill="#332247"/><path d="M22.502 11.818h.142c.378 0 .74.032 1.103.095V25.59a6.375 6.375 0 01-1.103.095h-.142c-1.04 0-1.891-.851-1.891-1.891V13.709c0-1.056.85-1.89 1.89-1.89z" fill="#E7EFE7"/><path d="M22.66 26h-.142a2.23 2.23 0 01-2.222-2.222V13.71a2.23 2.23 0 012.222-2.222h.141c.379 0 .773.032 1.15.095l.269.047v14.23l-.268.046a7.084 7.084 0 01-1.15.095zm-.158-13.867c-.867 0-1.56.71-1.56 1.56v10.085c0 .867.709 1.56 1.56 1.56h.142c.252 0 .52-.016.772-.047V12.18a6.351 6.351 0 00-.772-.048h-.142z" fill="#332247"/><path d="M23.762 14.355h-1.008a.333.333 0 01-.331-.33c0-.174.142-.332.331-.332h1.008c.174 0 .331.142.331.331-.015.19-.157.331-.33.331zM23.762 16.719h-1.008a.333.333 0 01-.331-.331c0-.173.142-.331.331-.331h1.008c.174 0 .331.142.331.33-.015.174-.157.332-.33.332zM23.762 19.067h-1.008a.333.333 0 01-.331-.331c0-.174.142-.331.331-.331h1.008c.174 0 .331.142.331.33-.015.19-.157.332-.33.332zM23.762 21.43h-1.008a.333.333 0 01-.331-.33c0-.19.142-.332.331-.332h1.008c.174 0 .331.142.331.331 0 .19-.157.331-.33.331zM23.762 23.778h-1.008a.333.333 0 01-.331-.33c0-.19.142-.332.331-.332h1.008c.174 0 .331.142.331.331 0 .19-.157.331-.33.331z" fill="#332247"/><path d="M28.238 22.234h.96c.568 0 1.025-.457 1.025-1.024v-4.917c0-.567-.457-1.024-1.024-1.024h-.961a7.744 7.744 0 000 6.965z" fill="#F47A4D"/><path d="M29.199 22.565h-1.15l-.095-.174a8.076 8.076 0 010-7.264l.095-.173h1.166c.74 0 1.355.599 1.355 1.355v4.916a1.376 1.376 0 01-1.371 1.34zm-.757-.646h.757c.394 0 .709-.315.709-.71v-4.916a.706.706 0 00-.71-.709h-.756a7.542 7.542 0 000 6.335z" fill="#332247"/><path d="M30.239 19.067a.333.333 0 01-.331-.331v-2.569c0-8.068-6.571-14.639-14.639-14.639S.63 8.1.63 16.169v2.584c0 .173-.142.33-.33.33-.19 0-.3-.157-.3-.33v-2.569c0-4.081 1.592-7.91 4.475-10.81A15.198 15.198 0 0115.285.898c4.081 0 7.91 1.592 10.81 4.475a15.198 15.198 0 014.475 10.81v2.569a.341.341 0 01-.331.315z" fill="#332247"/><path d="M28.08 9.344a.911.911 0 01-.772-.441 13.972 13.972 0 00-12.023-6.776c-4.964 0-9.455 2.537-12.023 6.776a.899.899 0 01-1.245.3.899.899 0 01-.3-1.245A15.944 15.944 0 017.39 2.41 15.968 15.968 0 0115.285.33c2.773 0 5.5.725 7.894 2.111a15.94 15.94 0 015.673 5.547.916.916 0 01-.3 1.245 1.29 1.29 0 01-.472.11z" fill="#F0592C"/><path d="M2.474 9.66c-.22 0-.441-.064-.63-.174a1.22 1.22 0 01-.552-.756 1.208 1.208 0 01.142-.93 16.433 16.433 0 015.783-5.657A16.22 16.22 0 0115.285 0c2.836 0 5.625.74 8.068 2.143A16.3 16.3 0 0129.136 7.8a1.24 1.24 0 01-.41 1.686c-.189.11-.41.173-.63.173-.426 0-.82-.22-1.056-.583-2.521-4.144-6.902-6.618-11.755-6.618-4.838 0-9.234 2.474-11.755 6.618a1.22 1.22 0 01-.757.552c-.094.016-.189.031-.3.031zM15.284.645c-2.725 0-5.388.71-7.736 2.064A15.624 15.624 0 002 8.13a.536.536 0 00-.063.442.525.525 0 00.268.363c.126.078.284.11.441.063a.525.525 0 00.363-.268c2.631-4.35 7.232-6.934 12.306-6.934 5.074 0 9.675 2.585 12.307 6.934.11.173.284.283.488.283.11 0 .205-.031.3-.078a.566.566 0 00.189-.788 15.623 15.623 0 00-5.547-5.42 15.555 15.555 0 00-7.768-2.08z" fill="#332247"/></svg>