<svg viewBox="0 0 22 33" fill="none" xmlns="http://www.w3.org/2000/svg"><path d="M.905 25.244a2.58 2.58 0 011.196-.56V1.687c-.69.252-1.196.91-1.196 1.684v21.872z" fill="#55707A"/><path d="M2.1 32.513a.454.454 0 00.69.387l1.188-.716 1.186.716a.5.5 0 00.234.068.454.454 0 00.457-.455v-2.787h15.347a.455.455 0 00.457-.455V1.136a.455.455 0 00-.457-.455H2.557c-.038 0-.067 0-.096.01A2.699 2.699 0 000 3.371V27.19a2.54 2.54 0 002.1 2.497v2.826zm2.111-1.249a.501.501 0 00-.233-.067.41.41 0 00-.234.067l-.739.445v-4.064H4.95v4.074l-.739-.455zm1.197-4.529h-2.85a.455.455 0 00-.457.455v1.577A1.644 1.644 0 01.904 27.19c0-.9.74-1.636 1.644-1.636h18.197v.726h-8.773a.282.282 0 00-.282.28c0 .156.127.281.283.281h8.772v.523H17.01a.282.282 0 00-.282.28c0 .156.127.281.282.281h3.735v.9H5.855V27.19a.453.453 0 00-.447-.455zm15.337-2.09H3.005V1.58h17.74v23.064zM2.101 1.688v22.995a2.58 2.58 0 00-1.197.561V3.372c0-.774.506-1.432 1.197-1.684z" fill="#37474F"/><path d="M11.982 26.27h8.773v-.726H2.558c-.652 0-1.226.388-1.488.94h10.64a.272.272 0 01.272-.214z" fill="#F8F8ED"/><path d="M11.69 26.551c0-.029 0-.048.01-.077H1.07a1.574 1.574 0 00-.165.706c0 .745.505 1.384 1.196 1.578V27.18c0-.252.204-.455.457-.455h2.85c.252 0 .457.203.457.455v1.636h14.89v-.9H17.02a.282.282 0 01-.282-.281c0-.155.127-.28.282-.28h3.735v-.523h-8.773a.278.278 0 01-.292-.28z" fill="#E7EFE7"/><path d="M4.445 1.581h-1.44v23.063h1.44V1.582z" fill="#F0592C"/><path d="M20.745 1.581h-16.3v23.063h16.3V1.582z" fill="#F27049"/><path d="M3.005 27.635V31.7l.74-.445a.501.501 0 01.233-.068.41.41 0 01.233.068l.74.445V29.56l-1.946-1.926z" fill="#FDD836"/><path d="M4.95 27.635H3.005l1.945 1.936v-1.936z" fill="#F9C12E"/></svg>