<svg fill="none" xmlns="http://www.w3.org/2000/svg" viewBox="0 0 60 61"><path d="M11.68 45.87c.63-.52 1.39-.9 2.22-1.05V1.88a3.37 3.37 0 00-2.22 3.14v40.85z" fill="#55707A"/><path d="M13.9 59.45c0 .3.16.57.43.74.27.14.6.14.85-.02l2.2-1.34 2.2 1.34c.13.07.3.13.44.13s.29-.04.41-.11a.84.84 0 00.44-.74v-5.21h28.48c.47 0 .85-.38.85-.85V.85a.85.85 0 00-.85-.85H14.75c-.08 0-.13 0-.18.02a5.03 5.03 0 00-4.57 5V49.5a4.74 4.74 0 003.9 4.67v5.28zm3.92-2.34a.93.93 0 00-.44-.12c-.14 0-.3.03-.43.12l-1.37.84v-7.6h3.6v7.61l-1.36-.85zm2.22-8.45h-5.3a.85.85 0 00-.84.84v2.95a3.06 3.06 0 01.83-6H48.5v1.36H32.22a.52.52 0 000 1.04H48.5v.98h-6.93a.52.52 0 000 1.05h6.93v1.68H20.87V49.5a.84.84 0 00-.83-.84zm28.46-3.9H15.58V1.67H48.5v43.07zM13.9 1.87v42.94c-.83.15-1.59.53-2.22 1.05V5.02c0-1.44.94-2.67 2.22-3.14z" fill="#37474F"/><path d="M32.24 47.79h16.28v-1.36H14.75c-1.21 0-2.28.73-2.77 1.76h19.75a.5.5 0 01.5-.4z" fill="#F8F8ED"/><path d="M31.7 48.31l.01-.14H11.98a3.07 3.07 0 001.91 4.27v-2.95c0-.47.39-.85.86-.85h5.28c.47 0 .85.38.85.85v3.05h27.64v-1.68h-6.93a.52.52 0 010-1.05h6.93v-.97H32.24a.52.52 0 01-.55-.53z" fill="#E7EFE7"/><path d="M18.25 1.68h-2.67v43.07h2.67V1.68z" fill="#625770"/><path d="M48.5 1.68H18.25v43.07H48.5V1.68z" fill="#332247"/><path d="M15.58 50.34v7.59l1.37-.83a.93.93 0 01.43-.13c.15 0 .3.04.44.13l1.37.83v-4l-3.61-3.6z" fill="#E7EFE7"/><path d="M19.19 50.34h-3.61l3.6 3.61v-3.61z" fill="#E7EFE7"/></svg>