<svg viewBox="0 0 32 31" fill="none" xmlns="http://www.w3.org/2000/svg"><path d="M30.875.676H.39v29.48h30.485V.677z" fill="#F0592C"/><path d="M30.856.676h-1.821v29.48h1.821V.677zM6.041.676H4.22v29.48H6.04V.677z" fill="#DB4C22"/><path d="M30.875 30.529H.39a.393.393 0 01-.39-.39V.675c0-.204.167-.39.39-.39h30.485c.204 0 .39.167.39.39v29.48a.402.402 0 01-.39.373zM.762 29.765h29.723v-28.7H.762v28.7z" fill="#332247"/><path d="M1.989.676h-.78v29.48h.78V.677zM3.383.676h-.78v29.48h.78V.677z" fill="#606E76"/><path d="M4.238 30.529H.39a.393.393 0 01-.39-.39V.675c0-.204.167-.39.39-.39h3.867c.204 0 .39.167.39.39v29.48a.406.406 0 01-.409.373zm-3.476-.763h3.104v-28.7H.762v28.7z" fill="#332247"/><path d="M17.324 4.858A10.55 10.55 0 006.766 15.416a10.55 10.55 0 0010.558 10.558 10.55 10.55 0 0010.558-10.558c.019-5.836-4.721-10.558-10.558-10.558zm0 12.417a1.864 1.864 0 01-1.859-1.859c0-1.022.837-1.858 1.86-1.858 1.021 0 1.858.836 1.858 1.858.018 1.023-.818 1.86-1.859 1.86z" fill="#E7EFE7"/><path d="M17.324 11.29a4.117 4.117 0 00-4.126 4.126 4.117 4.117 0 004.126 4.127 4.117 4.117 0 004.127-4.127 4.117 4.117 0 00-4.127-4.126zm0 5.985a1.864 1.864 0 01-1.859-1.859c0-1.022.837-1.858 1.86-1.858 1.021 0 1.858.836 1.858 1.858.018 1.023-.818 1.86-1.859 1.86z" fill="#DBE3DC"/><path d="M21.098 5.546l-3.105 8.123c.688.26 1.171.911 1.209 1.692l7.528-4.777a10.547 10.547 0 00-5.633-5.038z" fill="#F8F8ED"/><path d="M18.811 11.569l-.8 2.119c.094.037.168.074.242.111a1.85 1.85 0 01.595.54c.056.074.093.148.149.222.13.242.204.52.204.8l2.045-1.283a4.168 4.168 0 00-2.435-2.51z" fill="#E7EFE7"/><path d="M15.614 16.16l-8.123 3.104a10.588 10.588 0 003.327 4.461l5.614-6.673a2 2 0 01-.818-.892z" fill="#F8F8ED"/><path d="M16.19 16.885c-.018 0-.018 0 0 0-.056-.037-.093-.075-.111-.093-.075-.074-.13-.149-.205-.223-.037-.037-.056-.074-.093-.112-.056-.093-.111-.167-.148-.26l-2.12.8a4.126 4.126 0 001.45 1.821l1.469-1.747c-.093-.075-.167-.13-.242-.186z" fill="#E7EFE7"/><path d="M17.324 26.365c-6.041 0-10.948-4.907-10.948-10.949 0-6.04 4.907-10.948 10.948-10.948s10.948 4.907 10.948 10.948c0 6.042-4.907 10.949-10.948 10.949zm0-21.135c-5.614 0-10.186 4.573-10.186 10.186 0 5.614 4.572 10.187 10.186 10.187S27.51 21.03 27.51 15.416c0-5.613-4.554-10.186-10.186-10.186zm0 12.436a2.245 2.245 0 01-2.249-2.25 2.245 2.245 0 012.25-2.249 2.245 2.245 0 012.248 2.25 2.245 2.245 0 01-2.249 2.249zm0-3.737c-.818 0-1.487.67-1.487 1.487 0 .818.67 1.488 1.487 1.488.818 0 1.487-.67 1.487-1.488a1.48 1.48 0 00-1.487-1.487z" fill="#332247"/></svg>