<svg fill="none" xmlns="http://www.w3.org/2000/svg" viewBox="0 0 60 60"><path d="M58.05 3.709H2.708v53.518h55.34V3.709z" fill="#332247"/><path d="M58.016 3.709h-3.307v53.518h3.307V3.709zM12.968 3.709H9.66v53.518h3.307V3.709z" fill="#625770"/><path d="M58.05 57.902H2.708A.713.713 0 012 57.193V3.71C2 3.337 2.304 3 2.709 3h55.34c.371 0 .709.304.709.709v53.518c-.034.371-.338.675-.709.675zM3.383 56.518H57.34v-52.1H3.384v52.1z" fill="#222024"/><path d="M5.61 3.709H4.193v53.518H5.61V3.709zM8.141 3.709H6.724v53.518h1.417V3.709z" fill="#606E76"/><path d="M9.694 57.902H2.709A.713.713 0 012 57.193V3.71C2 3.337 2.304 3 2.709 3h7.018c.372 0 .71.304.71.709v53.518a.738.738 0 01-.743.675zm-6.31-1.384h5.635v-52.1H3.384v52.1z" fill="#222024"/><path d="M33.45 11.301c-10.596 0-19.167 8.571-19.167 19.167 0 10.595 8.571 19.167 19.167 19.167 10.596 0 19.167-8.572 19.167-19.167C52.65 19.872 44.046 11.3 33.45 11.3zm0 22.541a3.384 3.384 0 01-3.375-3.374 3.384 3.384 0 013.375-3.375 3.384 3.384 0 013.374 3.375c.034 1.856-1.484 3.374-3.374 3.374z" fill="#E7EFE7"/><path d="M33.45 22.977a7.474 7.474 0 00-7.491 7.49c0 4.151 3.34 7.492 7.491 7.492 4.15 0 7.491-3.34 7.491-7.491 0-4.15-3.34-7.491-7.49-7.491zm0 10.865a3.384 3.384 0 01-3.374-3.374 3.384 3.384 0 013.374-3.375 3.384 3.384 0 013.375 3.375c.033 1.856-1.485 3.374-3.375 3.374z" fill="#DBE3DC"/><path d="M40.3 12.55l-5.636 14.746c1.249.472 2.126 1.653 2.193 3.07l13.667-8.672a19.147 19.147 0 00-10.225-9.144z" fill="#F8F8ED"/><path d="M36.15 23.483l-1.452 3.847c.169.067.304.135.439.202s.27.169.405.27.236.203.371.337c.101.102.203.237.304.372.101.135.169.27.27.405.236.438.37.944.37 1.45l3.713-2.328c-.743-2.092-2.362-3.78-4.42-4.555z" fill="#E7EFE7"/><path d="M30.346 31.818L15.6 37.453c1.248 3.206 3.374 6.006 6.04 8.098l10.19-12.114a3.63 3.63 0 01-1.484-1.62z" fill="#F8F8ED"/><path d="M31.391 33.134c-.033 0-.033 0 0 0-.1-.068-.168-.135-.202-.169-.135-.135-.236-.27-.371-.405-.068-.067-.102-.135-.169-.202-.101-.17-.202-.304-.27-.473l-3.847 1.451a7.49 7.49 0 002.632 3.307l2.666-3.172a16.485 16.485 0 00-.439-.337z" fill="#E7EFE7"/><path d="M33.45 50.343c-10.968 0-19.876-8.908-19.876-19.875s8.908-19.876 19.875-19.876 19.876 8.909 19.876 19.876-8.909 19.875-19.876 19.875zm0-38.367c-10.192 0-18.493 8.301-18.493 18.492 0 10.19 8.301 18.492 18.492 18.492 10.19 0 18.492-8.302 18.492-18.492 0-10.191-8.267-18.492-18.492-18.492zm0 22.575a4.076 4.076 0 01-4.084-4.083 4.076 4.076 0 014.083-4.083 4.076 4.076 0 014.083 4.083 4.076 4.076 0 01-4.083 4.083zm0-6.783a2.707 2.707 0 00-2.7 2.7c0 1.485 1.214 2.7 2.7 2.7 1.484 0 2.699-1.215 2.699-2.7s-1.181-2.7-2.7-2.7z" fill="#222024"/></svg>