<svg fill="none" xmlns="http://www.w3.org/2000/svg" viewBox="0 0 60 60"><path d="M26.1 35.41c-3.39 3.94-9.8 12.3-16.12 12.33-6.89.04-9.2-3.79-9.2-17.78 0-13.98 11.07-15.79 11.07-15.79h36.23s11.11 1.77 11.11 15.8c0 14.02-2.32 17.8-9.2 17.77-6.15-.03-12.44-8.06-15.87-12.03-2.28-2.58-6.07-2.58-8.02-.3z" fill="#332247"/><path d="M31.1 33.06s3.8.1 7.84 4.15c4.02 4.02 10.38 8.36 14.29 4.79 3.16-2.87 2.06-27.02-5.23-27.02-7.29 0 5.23-4.01 9.53 6.81 4.3 10.82-.33 23.08-1.18 23.6-.84.51-7.98 5.3-13.95-.96-5.92-6.3-11.3-11.37-11.3-11.37zM29 33.06s-3.79.1-7.83 4.15C17.15 41.23 10.79 45.57 6.88 42c-3.16-2.87-2.06-27.02 5.23-27.02 7.29 0-5.23-4.01-9.53 6.81-4.31 10.79.33 23.04 1.17 23.56.85.52 8 5.3 13.96-.96A324.65 324.65 0 0129 33.06z" fill="#625770"/><path d="M49.32 22.9a3.46 3.46 0 11-6.9 0 3.46 3.46 0 016.9 0z" fill="#DFDFDF"/><path d="M45.87 27.17a4.23 4.23 0 110-8.47 4.23 4.23 0 010 8.47zm0-6.92a2.64 2.64 0 00-2.66 2.65 2.64 2.64 0 002.66 2.65 2.64 2.64 0 002.65-2.65 2.66 2.66 0 00-2.66-2.65z" fill="#232347"/><path d="M49.32 35.41a3.46 3.46 0 11-6.9 0 3.46 3.46 0 016.9 0z" fill="#DFDFDF"/><path d="M45.87 39.64a4.23 4.23 0 110-8.46 4.23 4.23 0 010 8.46zm0-6.92a2.64 2.64 0 00-2.66 2.65 2.64 2.64 0 002.66 2.65 2.64 2.64 0 002.65-2.65 2.66 2.66 0 00-2.66-2.65z" fill="#232347"/><path d="M52.09 32.61a3.46 3.46 0 11-.01-6.9 3.46 3.46 0 010 6.9z" fill="#DFDFDF"/><path d="M52.09 33.39a4.23 4.23 0 110-8.47 4.23 4.23 0 010 8.47zm0-6.89a2.64 2.64 0 00-2.65 2.65 2.64 2.64 0 002.65 2.65 2.64 2.64 0 002.65-2.65 2.62 2.62 0 00-2.65-2.65z" fill="#232347"/><path d="M39.6 32.61a3.46 3.46 0 110-6.9 3.46 3.46 0 010 6.9z" fill="#DFDFDF"/><path d="M39.6 33.39a4.23 4.23 0 110-8.47 4.23 4.23 0 010 8.47zm0-6.89a2.64 2.64 0 00-2.64 2.65 2.64 2.64 0 002.65 2.65 2.64 2.64 0 002.65-2.65 2.64 2.64 0 00-2.65-2.65z" fill="#232347"/><path d="M50.06 48.52H50c-6-.04-11.74-6.78-15.54-11.23-.33-.37-.62-.74-.92-1.07a4.85 4.85 0 00-3.64-1.73c-1.25 0-2.4.52-3.17 1.4l-.99 1.18c-3.6 4.27-9.6 11.4-15.72 11.45h-.07c-3.9 0-6.33-1.26-7.84-4.1C.63 41.68 0 37.33 0 29.93c0-14.5 11.67-16.52 11.78-16.56h36.44C48.33 13.4 60 15.42 60 29.93c-.04 14.1-2.43 18.59-9.94 18.59zm-20.2-15.58c1.83 0 3.6.81 4.85 2.29.3.33.6.7.92 1.1 3.39 3.98 9.06 10.64 14.32 10.64h.07c5.75 0 8.32-2.47 8.32-17 0-12.67-9.57-14.84-10.38-14.99H11.9c-.92.19-10.38 2.21-10.38 14.98 0 7 .59 11.27 1.91 13.77 1.22 2.32 3.1 3.24 6.4 3.24h.08c5.38-.04 11.12-6.81 14.54-10.9.37-.4.7-.8 1-1.17a5.88 5.88 0 014.41-1.96z" fill="#232347"/><path d="M11.34 34.42a2.8 2.8 0 105.6 0v-3.8h-5.6v3.8zM16.9 21.28a2.8 2.8 0 10-5.6 0v3.79h5.6v-3.8z" fill="#DFDFDF"/><path d="M7.55 25.03a2.8 2.8 0 100 5.6h3.79v-5.6h-3.8zM20.69 25.03h-3.8v5.6h3.8a2.8 2.8 0 100-5.6z" fill="#DFDFDF"/><path d="M32.43 31.44h-5.38a.82.82 0 01-.8-.81c0-.45.36-.81.8-.81h5.34c.44 0 .81.36.81.8 0 .45-.33.82-.77.82zM33.75 14.17c0-1.18-.95-2.17-2.17-2.17h-3.2c-1.18 0-2.17.96-2.17 2.17h7.54z" fill="#232347"/></svg>