<svg viewBox="0 0 19 33" fill="none" xmlns="http://www.w3.org/2000/svg"><path d="M16.55 32.411H1.902a1.491 1.491 0 01-1.503-1.487V2.545c0-.824.67-1.487 1.503-1.487H16.55c.833 0 1.503.663 1.503 1.487v28.38c0 .823-.67 1.486-1.503 1.486z" fill="#E7EFE7"/><path d="M16.55 32.41h-.127V1.059h.126c.833 0 1.503.662 1.503 1.487v28.379c0 .824-.67 1.487-1.503 1.487zM2.01 32.411h-.126A1.491 1.491 0 01.38 30.924V2.545c0-.824.67-1.487 1.503-1.487h.126v31.353z" fill="#DBE3DC"/><path d="M5.504 27.986h-2.01L7.877 4.64h2.01L5.504 27.986zM7.043 27.986L11.425 4.64h1.105L8.148 27.986" fill="#F8F8ED"/><path d="M16.549 32.77H1.9c-1.032 0-1.883-.843-1.883-1.864V2.545C.017 1.523.868.68 1.9.68H16.55c1.032 0 1.883.842 1.883 1.864v28.379a1.88 1.88 0 01-1.883 1.845zM1.882 1.415a1.13 1.13 0 00-1.14 1.129v28.379a1.13 1.13 0 001.14 1.129H16.53a1.13 1.13 0 001.141-1.13V2.546a1.13 1.13 0 00-1.14-1.13H1.881z" fill="#332247"/><path d="M18.053 4.641H.38V2.545c0-.824.67-1.487 1.503-1.487h14.648c.833 0 1.503.663 1.503 1.487v2.096h.018z" fill="#F0592C"/><path d="M2.01 4.641H.38V2.545c0-.824.67-1.487 1.504-1.487h.126v3.583zM18.052 4.64h-1.63V1.059h.127c.833 0 1.503.662 1.503 1.487V4.64z" fill="#DB4C22"/><path d="M18.052 5.017H.38A.38.38 0 010 4.641V2.545C0 1.523.851.68 1.883.68h14.648c1.032 0 1.883.842 1.883 1.864V4.64a.365.365 0 01-.362.376zM.76 4.282h16.93V2.545a1.13 1.13 0 00-1.14-1.13H1.9a1.13 1.13 0 00-1.14 1.13v1.737z" fill="#332247"/><path d="M16.55 32.411H1.9a1.491 1.491 0 01-1.503-1.487v-2.938H18.07v2.938a1.519 1.519 0 01-1.52 1.487z" fill="#F0592C"/><path d="M16.55 32.411h-.127v-4.425h1.63v2.938c0 .824-.67 1.487-1.504 1.487zM2.01 32.411h-.127A1.491 1.491 0 01.38 30.924v-2.938h1.63v4.425z" fill="#DB4C22"/><path d="M16.55 32.77H1.9c-1.032 0-1.883-.843-1.883-1.864v-2.938a.38.38 0 01.38-.377H18.07c.2 0 .38.162.38.377v2.938a1.911 1.911 0 01-1.9 1.863zM.76 28.343v2.562a1.13 1.13 0 001.141 1.129h14.648a1.13 1.13 0 001.14-1.129v-2.562H.76z" fill="#332247"/><path d="M10.122 30.19c0 .698-.58 1.253-1.268 1.253a1.264 1.264 0 01-1.267-1.254c0-.698.58-1.254 1.267-1.254.706 0 1.268.556 1.268 1.254zM11.715 3.405H4.599a.465.465 0 110-.932h7.116a.465.465 0 110 .932zM14.322 2.939c0 .34-.271.609-.615.609a.607.607 0 01-.616-.61c0-.34.272-.608.616-.608s.615.268.615.609z" fill="#F8F8ED"/></svg>