<svg fill="none" xmlns="http://www.w3.org/2000/svg" viewBox="0 0 60 60"><path d="M43.95 59.33h-27.4a2.79 2.79 0 01-2.8-2.78V3.49A2.79 2.79 0 0116.55.7h27.4a2.79 2.79 0 012.8 2.79v53.06a2.79 2.79 0 01-2.8 2.78z" fill="#E7EFE7"/><path d="M43.94 59.33h-.23V.7h.23a2.79 2.79 0 012.81 2.78v53.07a2.79 2.79 0 01-2.8 2.78zM16.76 59.33h-.24a2.79 2.79 0 01-2.8-2.78V3.49A2.79 2.79 0 0116.51.7h.24v58.63z" fill="#DBE3DC"/><path d="M23.3 51.06h-3.77l8.2-43.66h3.76l-8.2 43.66zM26.17 51.06l8.2-43.66h2.06l-8.2 43.66" fill="#F8F8ED"/><path d="M43.94 60H16.55a3.52 3.52 0 01-3.52-3.48V3.48c0-1.9 1.6-3.48 3.52-3.48h27.4a3.52 3.52 0 013.51 3.48v53.07A3.52 3.52 0 0143.94 60zM16.52 1.37c-1.19 0-2.13.94-2.13 2.11v53.07c0 1.17.94 2.11 2.13 2.11H43.9c1.18 0 2.13-.94 2.13-2.11V3.48c0-1.17-.95-2.1-2.13-2.1H16.5z" fill="#332247"/><path d="M46.76 7.4H13.7V3.5A2.79 2.79 0 0116.52.7h27.4a2.79 2.79 0 012.8 2.79V7.4h.04z" fill="#332247"/><path d="M16.76 7.4H13.7V3.5A2.79 2.79 0 0116.52.7h.24v6.7zM46.75 7.4h-3.04V.7h.23a2.79 2.79 0 012.81 2.78V7.4z" fill="#625770"/><path d="M46.76 8.1H13.7a.71.71 0 01-.71-.7V3.48C13 1.58 14.6 0 16.52 0h27.4a3.52 3.52 0 013.51 3.48V7.4c0 .4-.3.7-.67.7zM14.42 6.74h31.66V3.48c0-1.17-.95-2.1-2.13-2.1h-27.4c-1.18 0-2.13.93-2.13 2.1v3.25zM43.94 59.33H16.55a2.79 2.79 0 01-2.8-2.78v-5.5h33.04v5.5a2.84 2.84 0 01-2.85 2.78z" fill="#332247"/><path d="M43.94 59.33h-.23v-8.27h3.04v5.49a2.79 2.79 0 01-2.8 2.78zM16.76 59.33h-.24a2.79 2.79 0 01-2.8-2.78v-5.5h3.04v8.28z" fill="#625770"/><path d="M43.94 60H16.55a3.52 3.52 0 01-3.52-3.48v-5.5c0-.37.3-.7.71-.7H46.8c.37 0 .7.3.7.7v5.5A3.57 3.57 0 0143.95 60zm-29.52-8.27v4.79c0 1.17.95 2.1 2.13 2.1h27.4c1.18 0 2.13-.93 2.13-2.1v-4.8H14.42z" fill="#332247"/><path d="M31.92 55.18c0 1.3-1.08 2.34-2.37 2.34a2.36 2.36 0 01-2.37-2.34c0-1.31 1.09-2.35 2.37-2.35a2.34 2.34 0 012.37 2.35zM34.9 5.1H21.6a.87.87 0 110-1.75h13.3a.87.87 0 110 1.74zM39.78 4.22c0 .64-.5 1.14-1.15 1.14-.64 0-1.15-.5-1.15-1.14 0-.64.5-1.14 1.15-1.14.64 0 1.15.5 1.15 1.14z" fill="#F8F8ED"/></svg>