<svg width="105" height="173" viewBox="0 0 105 173" fill="none" xmlns="http://www.w3.org/2000/svg">
<path d="M33.543 39.6701L27.083 37.6701C20.293 35.6001 13.573 33.3701 6.98297 30.6701C6.27297 30.3801 5.58297 30.0401 4.87297 29.6701C4.54297 29.5101 4.21297 29.3001 4.25297 28.8801C4.29297 28.4601 4.66297 28.3001 5.01297 28.2001C6.1055 27.8796 7.23483 27.7015 8.37297 27.6701C17.983 27.4501 26.423 29.5401 35.243 33.3401C35.7589 33.6332 36.3255 33.8266 36.913 33.9101L35.553 32.5901C31.283 28.5901 27.083 24.5901 23.033 20.3701C22.033 19.3701 21.103 18.2701 20.193 17.1601C20.028 16.9718 19.8775 16.7712 19.743 16.5601C19.583 16.3201 19.293 16.0401 19.503 15.6901C19.713 15.3401 20.023 15.2901 20.503 15.3401C20.9866 15.3716 21.4677 15.4351 21.943 15.5301C26.8106 16.7086 31.407 18.8099 35.483 21.7201C37.4162 23.0836 39.2755 24.549 41.053 26.1101C41.323 26.3401 41.693 26.6401 41.993 26.8601C42.233 25.2801 42.243 23.5801 42.373 22.0001C42.8018 15.7133 43.5696 9.45419 44.673 3.25011C44.8013 2.52176 44.992 1.80579 45.243 1.11011C45.483 0.460111 45.943 0.520114 46.303 1.02011C46.474 1.29909 46.618 1.59375 46.733 1.9001C49.5019 8.2436 51.7168 14.8148 53.353 21.5401C53.783 23.2101 54.153 24.8801 54.573 26.5401C54.643 26.8101 54.673 27.2101 54.963 27.2701C55.253 27.3301 55.363 27.0601 55.563 26.9301C62.7988 22.3509 70.6986 18.9171 78.983 16.7501C79.7417 16.5814 80.5097 16.4579 81.283 16.3801C81.653 16.3301 82.033 16.3201 82.283 16.7001C82.3687 16.884 82.3964 17.0897 82.3625 17.2897C82.3285 17.4898 82.2345 17.6747 82.093 17.8201C81.843 18.1601 81.603 18.4801 81.333 18.8201C80.263 20.0701 79.113 21.2201 77.953 22.3801C75.033 25.2601 72.143 28.1401 69.223 31.0501C68.8936 31.336 68.6133 31.6738 68.393 32.0501C68.8132 32.1551 69.2528 32.1551 69.673 32.0501C75.8105 31.4777 81.9966 31.713 88.073 32.7501C88.5229 32.7983 88.9639 32.9094 89.383 33.0801C89.4926 33.1234 89.5884 33.1956 89.6602 33.2892C89.7319 33.3827 89.7768 33.494 89.7902 33.6111C89.8035 33.7282 89.7848 33.8467 89.736 33.954C89.6871 34.0613 89.6101 34.1533 89.513 34.2201C89.0857 34.5375 88.6139 34.7902 88.113 34.9701C85.203 36.1501 82.293 36.9701 79.283 37.9701L74.933 39.3201C75.5891 39.6011 76.2834 39.7831 76.993 39.8601C82.7388 41.0573 88.3405 42.8642 93.703 45.2501C95.0312 45.8593 96.2972 46.5961 97.483 47.4501C97.721 47.6117 97.9481 47.7888 98.163 47.9801C98.403 48.1801 98.663 48.4701 98.513 48.8101C98.363 49.1501 98.043 49.2101 97.703 49.2401C96.523 49.3201 95.343 49.3701 94.163 49.4501C88.993 49.8101 83.863 50.4501 78.733 51.2201C78.3267 51.2631 77.9229 51.3265 77.523 51.4101C75.303 51.9701 73.523 51.3301 71.593 50.3201C67.9592 48.3517 64.0323 46.9808 59.963 46.2601C56.2616 45.7137 52.5077 45.6163 48.783 45.9701C46.1166 46.1523 43.4761 46.608 40.903 47.3301C40.1853 47.5231 39.4911 47.7948 38.833 48.1401C38.215 48.5057 37.4985 48.67 36.783 48.6101C31.3418 48.0965 25.8697 47.9929 20.413 48.3001C14.8188 48.7693 9.26905 49.6687 3.81297 50.9901C3.39297 51.0901 2.93297 51.2101 2.50297 51.2701C1.61297 51.3701 1.26297 50.8401 1.45297 50.0601C1.63435 49.3429 2.0037 48.687 2.52296 48.1601C3.74872 46.8048 5.21303 45.6863 6.84297 44.8601C11.1448 42.8107 15.7459 41.4604 20.473 40.8601C24.823 40.2601 29.193 40.0701 33.543 39.6701Z" fill="#569315"/>
<path d="M50.4829 37.3801C50.4829 38.0801 50.2929 38.4401 49.7229 38.5401C49.1529 38.6401 48.8429 38.2301 48.7229 37.7001C48.5029 36.2901 48.3329 34.8601 48.1429 33.4401C47.3829 27.4401 46.6529 21.5001 46.1429 15.4401C46.0582 15.1121 46.0582 14.768 46.1429 14.4401C46.1851 14.2819 46.2749 14.1406 46.4001 14.035C46.5253 13.9295 46.6798 13.865 46.8429 13.8501C47.0221 13.8193 47.2065 13.8538 47.3624 13.9474C47.5184 14.041 47.6356 14.1874 47.6929 14.3601C47.8099 14.7128 47.8805 15.0792 47.9028 15.4501C48.4828 21.9201 49.3229 28.4501 50.1429 34.8301C50.3229 35.7601 50.4829 36.6901 50.4829 37.3801Z" fill="white"/>
<path d="M22.193 31.6099C22.8183 31.7422 23.4332 31.9193 24.033 32.1399C29.033 33.7199 34.033 35.1399 39.173 36.4999C40.423 36.8199 41.653 37.2199 42.913 37.6099C43.1225 37.6544 43.3245 37.7284 43.513 37.8299C43.7062 37.9074 43.8665 38.0493 43.9668 38.2316C44.0671 38.4139 44.1011 38.6254 44.063 38.8299C43.9717 39.0526 43.8031 39.2349 43.5881 39.3433C43.3732 39.4516 43.1264 39.4789 42.893 39.4199L42.533 39.3299C36.7397 37.7233 30.9497 36.0733 25.163 34.3799C24.163 34.0699 23.093 33.7099 22.053 33.3799L21.713 33.2499C21.293 33.0299 20.973 32.6799 21.133 32.1999C21.1959 31.9815 21.3426 31.7968 21.5413 31.6862C21.7399 31.5756 21.9742 31.5482 22.193 31.6099Z" fill="white"/>
<path d="M25.8129 44.68C22.7329 44.73 19.8129 44.82 16.8129 44.87C16.4941 44.8869 16.1744 44.8599 15.8629 44.79C15.6851 44.7507 15.5252 44.654 15.4077 44.5149C15.2902 44.3757 15.2218 44.2018 15.2129 44.02C15.2031 43.8421 15.2514 43.6659 15.3507 43.5179C15.4499 43.37 15.5946 43.2583 15.7629 43.2C16.0666 43.0892 16.3906 43.0448 16.7129 43.07C22.8729 43.01 29.0029 42.95 35.1729 42.91C35.4621 42.884 35.7535 42.9111 36.0329 42.9899C36.2042 43.044 36.3534 43.1522 36.458 43.2983C36.5625 43.4443 36.6169 43.6204 36.6129 43.8C36.6031 43.9805 36.5385 44.1538 36.4277 44.2967C36.317 44.4396 36.1653 44.5454 35.9929 44.5999C35.7515 44.663 35.5022 44.6899 35.2529 44.68C32.1129 44.74 28.8829 44.63 25.8129 44.68Z" fill="white"/>
<path d="M30.943 22.45C31.2766 22.4974 31.58 22.6688 31.7929 22.9299C35.6129 26.6699 39.5929 30.1999 43.4329 33.9299C43.7692 34.2379 44.0802 34.5723 44.363 34.9299C44.4777 35.0831 44.5373 35.2705 44.5323 35.4619C44.5272 35.6532 44.4578 35.8372 44.3351 35.9841C44.2125 36.131 44.0439 36.2322 43.8566 36.2714C43.6692 36.3106 43.4742 36.2854 43.303 36.2C43.0492 36.0611 42.8195 35.8822 42.623 35.67C38.8563 32.1433 35.0963 28.6033 31.343 25.05C30.9654 24.6897 30.6113 24.3055 30.283 23.8999C30.1845 23.7741 30.123 23.6234 30.1053 23.4646C30.0877 23.3058 30.1147 23.1452 30.1832 23.0009C30.2518 22.8566 30.3591 22.7342 30.4933 22.6475C30.6275 22.5608 30.7832 22.5131 30.943 22.5099V22.45Z" fill="white"/>
<path d="M60.2131 40.0999C59.9964 40.128 59.7767 40.078 59.5935 39.9589C59.4103 39.8398 59.2754 39.6594 59.2131 39.4499C59.0531 38.9999 59.4431 38.6299 59.7131 38.4499C59.9029 38.3513 60.1045 38.2774 60.3131 38.2299C65.3131 36.6499 70.3131 35.2299 75.4631 33.8999C75.7421 33.8059 76.0304 33.7422 76.3231 33.7099C76.532 33.6803 76.7447 33.7225 76.9265 33.8297C77.1082 33.9369 77.248 34.1027 77.3231 34.2999C77.3618 34.5033 77.3292 34.7138 77.2309 34.8959C77.1325 35.0781 76.9744 35.2208 76.7831 35.2999C76.5886 35.3935 76.3839 35.464 76.1731 35.5099C71.0831 36.8399 66.0231 38.2699 61.0431 39.8099C60.7779 39.9368 60.4996 40.0341 60.2131 40.0999Z" fill="white"/>
<path d="M57.9828 33.35C57.7779 33.412 57.5585 33.4066 57.3569 33.3346C57.1553 33.2626 56.9821 33.1278 56.8628 32.95C56.7758 32.8106 56.7383 32.6459 56.7564 32.4826C56.7746 32.3193 56.8473 32.1669 56.9628 32.05C57.1192 31.8549 57.3087 31.689 57.5228 31.56C60.9228 29.17 64.2928 26.8 67.7028 24.42C68.0346 24.1758 68.3937 23.9711 68.7728 23.81C68.9517 23.7389 69.15 23.7329 69.3328 23.7933C69.5156 23.8536 69.6714 23.9763 69.7728 24.14C69.8674 24.3112 69.903 24.5087 69.8741 24.7021C69.8451 24.8955 69.7534 25.074 69.6128 25.21C69.4895 25.3369 69.348 25.4448 69.1928 25.53C65.7928 27.93 62.2828 30.36 58.9428 32.71C58.6517 32.9637 58.329 33.1788 57.9828 33.35Z" fill="white"/>
<path d="M75.053 45.8999C74.643 45.8999 74.363 45.9799 74.143 45.9899C73.513 45.9899 72.893 45.8899 72.863 45.1999C72.833 44.5099 73.383 44.3199 74.043 44.1999C74.703 44.0799 75.493 44.0499 76.223 43.9899C79.133 43.7399 82.083 43.4999 85.003 43.2699C85.1657 43.2499 85.3303 43.2499 85.493 43.2699C85.983 43.3499 86.333 43.5599 86.393 44.0799C86.4042 44.3043 86.3283 44.5243 86.181 44.6939C86.0338 44.8635 85.8267 44.9696 85.603 44.9899C84.653 45.1399 83.313 45.2299 82.443 45.2999C80.443 45.4699 76.653 45.7499 75.263 45.8599C74.313 45.9499 75.073 45.8999 75.053 45.8999Z" fill="white"/>
<path d="M93.4829 161.78C92.2445 163.078 90.9071 164.279 89.4829 165.37C88.2997 166.248 87.0376 167.015 85.7129 167.66C84.7666 168.131 83.7913 168.542 82.7929 168.89C81.2649 169.447 79.7015 169.901 78.1129 170.25C73.3527 171.257 68.5151 171.856 63.6529 172.04C61.8129 172.13 60.0929 172.13 58.1629 172.12C56.2329 172.11 54.1629 172.02 52.0929 171.93C45.9029 171.66 39.6229 171.16 33.4429 170.47C31.8129 170.28 30.1929 170.05 28.5629 169.8C27.4629 169.64 26.3429 169.44 25.2529 169.23C23.7729 168.93 22.2529 168.65 20.8029 168.23C18.395 167.57 16.0521 166.694 13.8029 165.61C10.7218 164.012 8.0991 161.654 6.18289 158.76C5.29403 157.476 4.54322 156.102 3.9429 154.66C3.3829 153.29 2.94289 152.19 2.52289 150.82C1.66195 148.043 1.06596 145.19 0.742891 142.3C0.138153 136.277 -0.0222766 130.217 0.262895 124.17C0.442895 118.8 0.952897 113.53 1.5929 108.29C1.9429 105.53 2.3529 102.88 2.8029 100.23C3.4629 96.4399 4.15289 92.7099 4.93289 89.0099C5.79979 84.5566 7.02034 80.1794 8.5829 75.92C9.6708 73.164 10.9093 70.47 12.2929 67.8499C12.8329 66.7899 13.4429 65.85 14.0329 64.78C14.2429 64.44 14.4329 64.09 14.6629 63.78C17.4538 59.5925 20.9329 55.9072 24.9529 52.8799C27.7368 50.8227 30.6908 49.0061 33.7829 47.45C30.7146 50.0673 28.0225 53.0959 25.7829 56.45C25.5529 56.79 25.3529 57.13 25.1529 57.45C24.5629 58.45 23.9529 59.4499 23.4129 60.5099C22.0257 63.1296 20.7839 65.8237 19.6929 68.58C18.144 72.843 16.9271 77.2193 16.0529 81.67C15.2629 85.37 14.5829 89.1099 13.9229 92.8999C13.4729 95.5399 13.0629 98.2 12.7129 100.95C12.0729 106.2 11.5629 111.46 11.3829 116.83C11.0994 122.877 11.2565 128.936 11.8529 134.96C12.1841 137.853 12.7833 140.708 13.6429 143.49C14.0551 144.79 14.5323 146.068 15.0729 147.32C15.6595 148.769 16.4075 150.148 17.3029 151.43C19.2194 154.321 21.8422 156.676 24.9229 158.27C27.1523 159.359 29.4792 160.237 31.8729 160.89C33.3329 161.3 34.8729 161.58 36.3229 161.89C37.4129 162.1 38.5329 162.3 39.6329 162.47C41.2629 162.72 42.8829 162.94 44.5029 163.12C50.6929 163.82 56.9729 164.31 63.1729 164.6C65.1729 164.69 67.3029 164.77 69.2329 164.78C71.1629 164.79 72.8929 164.78 74.7229 164.71C79.5853 164.523 84.423 163.921 89.1829 162.91C90.639 162.626 92.0753 162.249 93.4829 161.78Z" fill="#EFC206"/>
<path d="M104.113 118.97C104.178 124.14 103.938 129.309 103.393 134.45C102.935 138.927 102.174 143.367 101.113 147.74C101.033 148.09 100.943 148.43 100.833 148.74C100.573 149.715 100.262 150.677 99.903 151.62C98.4196 155.38 96.2416 158.826 93.483 161.78C92.0808 162.279 90.6478 162.686 89.193 163C84.433 164.011 79.5954 164.613 74.733 164.8C72.903 164.89 71.173 164.89 69.243 164.87C67.313 164.85 65.243 164.78 63.183 164.69C56.983 164.4 50.703 163.91 44.513 163.21C42.893 163.03 41.273 162.81 39.643 162.56C38.543 162.39 37.423 162.19 36.333 161.98C34.853 161.69 33.333 161.41 31.883 160.98C29.4893 160.327 27.1623 159.449 24.933 158.36C21.8522 156.766 19.2295 154.411 17.313 151.52C16.4176 150.238 15.6695 148.859 15.083 147.41C14.5424 146.158 14.0651 144.88 13.653 143.58C12.7934 140.798 12.1941 137.943 11.863 135.05C11.2665 129.026 11.1095 122.967 11.393 116.92C11.573 111.55 12.083 106.29 12.723 101.04C13.073 98.29 13.483 95.63 13.933 92.99C14.593 89.2 15.273 85.46 16.063 81.76C16.9372 77.3094 18.1541 72.9331 19.703 68.67C20.7939 65.9138 22.0358 63.2197 23.423 60.6C23.963 59.54 24.573 58.6 25.163 57.54C25.363 57.19 25.563 56.85 25.793 56.54C28.0326 53.186 30.7247 50.1574 33.793 47.54L34.153 47.34C35.153 46.84 36.063 46.41 37.033 45.97C38.783 45.21 40.523 44.44 42.333 43.79C45.5199 42.6746 48.8667 42.0836 52.243 42.04C52.823 42.04 53.383 42.04 53.953 42.04C55.893 42.16 57.893 42.32 59.793 42.6C61.6681 42.8641 63.5226 43.2584 65.343 43.78C68.91 44.8624 72.2845 46.4991 75.343 48.63C76.1834 49.2184 76.9882 49.8562 77.753 50.54C78.043 50.79 78.323 51.03 78.603 51.3C84.1024 56.656 88.7797 62.7958 92.483 69.5201C93.013 70.4501 93.483 71.37 93.933 72.39C94.383 73.41 94.933 74.5 95.433 75.61C98.1512 82.0597 100.238 88.7577 101.663 95.61C102.495 99.855 103.103 104.141 103.483 108.45C103.763 111.3 103.903 114.15 104.043 117.01C104.073 117.65 104.103 118.31 104.113 118.97Z" fill="#FCD528"/>
<path d="M92.483 130.6C96.333 126.1 100.243 121.6 103.983 117.02C103.863 114.16 103.673 111.31 103.433 108.46L102.673 107.31C98.073 100.31 93.383 93.31 88.903 86.31C88.353 85.44 88.393 85.39 88.903 84.58C90.103 82.82 91.493 81 92.753 79.22C93.593 78.02 94.503 76.83 95.363 75.64C94.883 74.55 94.363 73.47 93.853 72.4C91.623 75.46 89.363 78.53 87.163 81.59C86.963 81.88 86.733 82.38 86.393 82.32C86.053 82.26 86.003 81.86 85.823 81.59C81.003 74.34 76.093 66.99 71.243 59.76C70.663 58.89 70.723 58.82 71.403 57.97C73.403 55.56 75.603 52.97 77.663 50.57C76.893 49.89 76.083 49.25 75.253 48.65C73.343 50.88 71.423 53.13 69.503 55.35C69.303 55.58 69.123 55.98 68.813 55.94C68.503 55.9 68.413 55.55 68.253 55.32C65.773 51.71 63.343 48.07 60.903 44.43C60.503 43.84 60.103 43.23 59.713 42.63C57.763 42.36 55.813 42.18 53.853 42.07C53.283 42.07 52.723 42.02 52.153 42.02C48.853 45.8 45.573 49.63 42.273 53.38C42.143 53.53 41.983 53.82 41.833 53.77C41.463 53.63 41.263 53.1 41.033 52.77C39.843 50.89 38.683 48.97 37.543 47.04L36.933 46.04C35.933 46.47 35.003 46.92 34.063 47.41C35.633 50.13 37.393 52.92 38.963 55.58C39.573 56.58 39.623 56.58 38.813 57.5C33.703 63.5 28.413 69.73 23.303 75.84C23.063 76.12 22.853 76.57 22.493 76.56C22.133 76.55 22.053 76.14 21.863 75.89C19.233 72.27 16.603 68.58 14.013 64.89C13.403 65.89 12.823 66.89 12.263 67.95C14.263 70.82 16.373 73.68 18.423 76.54C18.963 77.31 19.493 78.08 20.063 78.82C20.1803 78.9504 20.2453 79.1196 20.2453 79.295C20.2453 79.4704 20.1803 79.6396 20.063 79.77C19.833 80.03 19.713 80.16 19.553 80.36C14.913 86.04 10.323 91.68 5.85298 97.5C5.02298 98.58 4.15299 99.74 3.33299 100.84C3.09546 100.732 2.89657 100.554 2.76299 100.33C2.31299 103 1.91299 105.69 1.56299 108.38C1.72299 108.15 1.91299 107.93 2.08299 107.7C2.25299 107.47 2.50299 107.04 2.75299 106.98C3.00299 106.92 3.05299 107.12 3.14299 107.25C7.39299 114.05 11.383 120.98 15.853 127.63C15.9995 127.843 16.0728 128.097 16.062 128.355C16.0512 128.613 15.9568 128.86 15.793 129.06C15.523 129.47 15.373 129.72 15.173 130.06C10.903 137.06 6.67299 143.97 2.47299 150.96C2.90299 152.24 3.38299 153.51 3.89299 154.76C8.43299 147.2 12.993 139.653 17.573 132.12C17.733 131.86 17.913 131.46 18.173 131.42C18.433 131.38 18.503 131.64 18.623 131.8C23.892 138.963 29.568 145.818 35.623 152.33C36.133 152.89 36.043 153.24 35.623 153.82C33.443 157.06 31.243 160.36 29.053 163.6C27.753 165.53 26.433 167.41 25.133 169.34C26.233 169.54 27.343 169.74 28.443 169.92C31.603 165.36 34.743 160.78 37.803 156.17C37.963 155.93 38.113 155.56 38.393 155.54C38.673 155.52 38.853 155.85 39.033 156.05C43.323 160.76 47.803 165.55 52.103 170.16C52.973 171.09 52.653 171.01 52.103 171.87C52.103 171.93 52.003 171.98 51.963 172.04C53.963 172.13 56.013 172.2 58.043 172.24C57.803 171.93 57.663 171.81 57.393 171.47C57.313 171.402 57.2487 171.318 57.2046 171.223C57.1605 171.128 57.1376 171.025 57.1376 170.92C57.1376 170.815 57.1605 170.712 57.2046 170.617C57.2487 170.522 57.313 170.438 57.393 170.37C57.5599 170.192 57.7168 170.005 57.863 169.81C62.193 164.81 66.563 159.88 71.013 155.02C71.253 154.76 71.483 154.29 71.853 154.39C72.223 154.49 72.263 154.86 72.463 155.12C75.833 159.72 79.203 164.4 82.613 169C83.613 168.64 84.613 168.23 85.523 167.78C81.843 162.78 78.103 157.63 74.523 152.57C73.913 151.71 73.903 151.77 74.643 150.92C79.083 145.83 83.753 140.53 88.243 135.42C88.483 135.14 88.723 134.67 89.033 134.73C89.343 134.79 89.533 135.32 89.753 135.67C93.073 140.99 96.393 146.4 99.703 151.76C100.053 150.81 100.363 149.86 100.643 148.88L100.913 147.88C99.123 144.96 97.303 142.04 95.543 139.12C94.283 137.03 92.943 134.93 91.703 132.88C91.233 132.09 91.333 131.99 91.843 131.3C92.173 130.99 92.363 130.79 92.483 130.6ZM68.483 61.53C68.8575 61.7378 69.1555 62.0602 69.333 62.45C74.183 69.7 79.143 76.94 83.833 84.21C84.533 85.3 84.623 85.11 83.783 86.27C80.403 90.97 76.723 95.96 73.213 100.71C73.053 100.92 72.923 101.34 72.603 101.26C72.283 101.18 72.093 100.69 71.883 100.36C67.183 92.85 62.083 85.26 57.253 77.94C56.333 76.54 56.343 76.83 57.333 75.51C60.453 71.39 63.923 67.1 67.243 63.01C67.683 62.51 68.113 62.01 68.483 61.53ZM70.163 104.86C69.263 106.05 68.403 107.22 67.493 108.43C63.623 113.62 59.753 118.9 55.983 124.14C55.843 124.33 55.693 124.66 55.533 124.66C55.193 124.66 55.023 124.23 54.853 123.97C49.853 116.22 45.023 108.31 39.703 100.82C39.123 100 39.163 99.92 39.773 99.08C44.263 92.85 48.953 86.52 53.563 80.32C53.773 80.04 53.983 79.61 54.313 79.6C54.643 79.59 54.783 80.01 54.963 80.27C60.0763 87.85 65.0763 95.5167 69.963 103.27C70.0389 103.414 70.1223 103.555 70.213 103.69C70.3592 103.85 70.4395 104.06 70.4376 104.277C70.4358 104.494 70.352 104.702 70.203 104.86H70.163ZM44.063 56.1C47.853 51.73 51.723 47.3 55.553 42.9C55.6738 42.7899 55.8082 42.6958 55.953 42.62C57.883 45.51 59.833 48.4 61.773 51.28C63.273 53.52 64.773 55.72 66.273 57.94C66.4474 58.1255 66.5444 58.3705 66.5444 58.625C66.5444 58.8796 66.4474 59.1246 66.273 59.31C62.443 63.94 58.643 68.71 54.943 73.45C54.863 73.55 54.783 73.7 54.673 73.7C54.323 73.7 54.183 73.32 54.013 73.06C50.663 67.87 47.333 62.72 44.013 57.48C43.8473 57.2827 43.7642 57.029 43.781 56.7719C43.7978 56.5148 43.9131 56.2741 44.103 56.1H44.063ZM25.063 78.58C30.343 72.28 35.693 65.95 41.063 59.67C41.143 59.58 41.353 59.41 41.453 59.32C41.743 59.76 42.073 60.32 42.353 60.73C45.473 65.68 48.743 70.66 51.853 75.54C52.493 76.54 52.503 76.54 51.783 77.54C47.183 83.64 42.553 89.94 38.053 96.17C37.823 96.5 37.553 96.81 37.303 97.17C36.9656 96.9941 36.6874 96.7228 36.503 96.39C32.653 90.95 28.883 85.51 25.043 80.08C24.9378 79.9848 24.8541 79.8682 24.7975 79.7381C24.7408 79.608 24.7125 79.4674 24.7144 79.3255C24.7163 79.1836 24.7483 79.0438 24.8084 78.9152C24.8685 78.7867 24.9553 78.6724 25.063 78.58ZM18.483 124.78C18.1322 124.567 17.8535 124.253 17.683 123.88C13.503 117.48 9.51299 111.01 5.51299 104.51C5.34109 104.298 5.25235 104.031 5.2634 103.759C5.27444 103.486 5.38452 103.227 5.57298 103.03C10.923 95.95 16.513 89.03 22.183 82.12C22.2578 82.0564 22.3381 81.9995 22.423 81.95C22.943 82.68 23.503 83.43 24.003 84.16C27.473 89.22 31.053 94.33 34.503 99.33C35.103 100.19 35.133 100.19 34.503 101.07C29.263 108.6 23.953 116.28 18.963 124.07C18.863 124.29 18.653 124.56 18.483 124.78ZM38.483 149.6C38.433 149.66 38.483 149.76 38.263 149.76C38.043 149.76 37.823 149.46 37.643 149.25C32.083 142.8 26.363 136.25 21.503 129.37C20.243 127.57 20.333 127.96 21.573 125.97C26.053 118.81 31.213 111.32 36.163 104.28C36.4285 103.842 36.7439 103.436 37.103 103.07C37.357 103.227 37.5696 103.443 37.723 103.7C43.093 111.29 47.893 119.15 52.963 126.96C53.1576 127.175 53.2654 127.455 53.2654 127.745C53.2654 128.035 53.1576 128.315 52.963 128.53C48.123 135.45 43.243 142.56 38.483 149.6ZM69.483 152.12C64.793 157.4 60.063 162.7 55.483 168.04C55.413 168.13 55.313 168.26 55.203 168.26C54.863 168.26 54.673 167.94 54.473 167.71C50.113 162.91 45.553 158.07 41.293 153.28C40.433 152.28 40.433 152.44 41.153 151.37C45.593 144.69 50.333 137.96 54.923 131.27C55.0616 131.028 55.2662 130.83 55.513 130.7C56.513 132.11 57.453 133.57 58.413 134.97C62.003 140.2 65.813 145.52 69.473 150.58C69.983 151.45 70.023 151.45 69.483 152.12ZM86.873 132.37C85.623 133.81 84.313 135.37 83.013 136.8C79.693 140.55 76.323 144.36 73.013 148.13C72.783 148.4 72.553 148.89 72.193 148.82C71.833 148.75 71.593 148.24 71.333 147.88C66.723 141.57 62.333 135.09 57.923 128.57C57.7206 128.343 57.6087 128.049 57.6087 127.745C57.6087 127.441 57.7206 127.147 57.923 126.92C62.433 120.62 67.103 114.25 71.773 108.04C71.943 107.82 72.103 107.5 72.303 107.43C72.503 107.36 72.763 107.74 72.903 107.96C77.503 115.52 82.093 123.06 86.853 130.5C86.901 130.563 86.9445 130.63 86.983 130.7C87.373 131.5 87.483 131.63 86.823 132.37H86.873ZM89.713 129.11C89.073 128.11 88.343 126.99 87.713 125.99C83.483 119.22 79.203 112.32 75.153 105.56C74.413 104.32 74.433 104.56 75.253 103.39C78.603 98.74 82.253 93.9 85.613 89.23C85.8053 88.9122 86.0408 88.6228 86.313 88.37C86.533 88.2 86.683 88.49 86.763 88.61C91.953 96.5 97.093 104.4 102.273 112.3L102.473 112.6C102.923 113.19 102.813 113.6 102.353 114.19C98.963 118.4 95.433 122.47 91.883 126.59C91.153 127.39 90.363 128.29 89.663 129.11H89.713Z" fill="white"/>
<path d="M53.483 109.34C52.253 109.26 48.813 108.39 47.293 106.82C45.5883 105.184 44.1986 103.248 43.193 101.11C42.9875 100.694 42.8917 100.232 42.9144 99.7682C42.9372 99.3045 43.0778 98.8543 43.323 98.4601C43.5379 98.1478 43.8264 97.8933 44.163 97.7189C44.4996 97.5445 44.8739 97.4556 45.253 97.4601C45.637 97.4534 46.0174 97.5357 46.3644 97.7005C46.7114 97.8653 47.0155 98.1082 47.253 98.4101C47.4568 98.6771 47.6249 98.9695 47.753 99.2801C47.8126 99.3835 47.8661 99.4903 47.913 99.6001C48.7667 101.348 50.1162 102.805 51.793 103.79C52.5104 104.218 53.3387 104.423 54.173 104.38C55.2641 104.357 56.3176 103.978 57.173 103.3C58.3302 102.361 59.2342 101.148 59.803 99.7701C59.803 99.6801 59.873 99.5901 59.943 99.4201C60.0351 99.1674 60.142 98.9203 60.263 98.6801C60.4676 98.2762 60.775 97.9333 61.1541 97.6858C61.5333 97.4383 61.9709 97.2949 62.423 97.2701C62.7337 97.2484 63.0445 97.3106 63.323 97.4501C63.8731 97.6857 64.3229 98.1074 64.5934 98.6412C64.864 99.175 64.9382 99.787 64.803 100.37C64.7948 100.456 64.7746 100.54 64.743 100.62C62.923 104.94 60.523 107.77 56.013 109.2C55.3571 109.35 54.6857 109.42 54.013 109.41H53.773L53.483 109.34Z" fill="black"/>
<path d="M37.4829 105.6C37.3342 107.237 36.6182 108.77 35.4587 109.935C34.2992 111.1 32.7691 111.824 31.1329 111.98C30.0613 112.205 28.9515 112.17 27.8957 111.88C26.84 111.59 25.8688 111.051 25.0629 110.31C22.1829 107.51 23.2929 103.83 26.7629 102.07C28.0718 101.442 29.5025 101.11 30.954 101.096C32.4056 101.082 33.8424 101.387 35.1629 101.99C35.9121 102.223 36.5552 102.713 36.9794 103.373C37.4036 104.033 37.5819 104.822 37.4829 105.6Z" fill="#FF556E"/>
<path d="M75.2529 110.86C73.6134 110.843 72.0358 110.232 70.8129 109.14C70.4384 108.847 70.1254 108.483 69.892 108.069C69.6585 107.655 69.5092 107.199 69.4525 106.727C69.3958 106.255 69.4329 105.776 69.5617 105.319C69.6905 104.861 69.9084 104.433 70.2029 104.06C71.2868 102.551 72.8772 101.483 74.6838 101.049C76.4904 100.616 78.3925 100.847 80.0429 101.7C80.8402 102.095 81.4997 102.722 81.9351 103.498C82.3704 104.274 82.5613 105.164 82.4829 106.05C82.4123 106.917 82.1119 107.749 81.6127 108.461C81.1135 109.173 80.4336 109.738 79.6429 110.1C78.2822 110.768 76.7588 111.031 75.2529 110.86Z" fill="#FF556E"/>
<path d="M38.393 93.36C38.354 94.7652 37.7696 96.1001 36.7635 97.0819C35.7574 98.0637 34.4087 98.6154 33.003 98.62C32.3277 98.6513 31.6535 98.5393 31.0246 98.2914C30.3958 98.0436 29.8265 97.6654 29.3542 97.1818C28.882 96.6982 28.5174 96.1201 28.2845 95.4855C28.0516 94.851 27.9557 94.1743 28.003 93.5C28.0318 92.0994 28.6098 90.7663 29.6125 89.7879C30.6151 88.8096 31.9621 88.2645 33.363 88.27C34.0352 88.2457 34.7051 88.3612 35.3304 88.6092C35.9556 88.8572 36.5226 89.2323 36.9954 89.7107C37.4682 90.1892 37.8365 90.7606 38.0771 91.3887C38.3177 92.0169 38.4252 92.6881 38.393 93.36Z" fill="black"/>
<path d="M33.6329 91.7899C33.6329 92.3204 33.4222 92.8291 33.0471 93.2041C32.672 93.5792 32.1633 93.7899 31.6329 93.7899C31.3773 93.8032 31.1218 93.7622 30.8832 93.6695C30.6447 93.5768 30.4285 93.4346 30.2489 93.2522C30.0694 93.0698 29.9305 92.8514 29.8416 92.6114C29.7526 92.3714 29.7156 92.1153 29.7329 91.8599C29.7329 91.3295 29.9436 90.8208 30.3187 90.4457C30.6938 90.0707 31.2025 89.8599 31.7329 89.8599C31.9873 89.8513 32.2407 89.8956 32.4771 89.9899C32.7136 90.0843 32.9278 90.2266 33.1064 90.408C33.285 90.5894 33.424 90.8059 33.5146 91.0438C33.6052 91.2816 33.6455 91.5357 33.6329 91.7899Z" fill="#F7F7F7"/>
<path d="M34.1629 96.0901C34.1502 96.4741 33.9906 96.8385 33.7171 97.1083C33.4436 97.3781 33.077 97.5326 32.6929 97.5401C32.509 97.5507 32.3249 97.5218 32.1531 97.4552C31.9812 97.3887 31.8256 97.2861 31.6968 97.1544C31.5679 97.0227 31.4688 96.8649 31.406 96.6917C31.3432 96.5185 31.3183 96.3338 31.3329 96.1501C31.3456 95.7662 31.5052 95.4017 31.7787 95.1319C32.0522 94.8622 32.4188 94.7076 32.8029 94.7001C32.9869 94.6895 33.1709 94.7185 33.3427 94.785C33.5146 94.8516 33.6702 94.9541 33.799 95.0858C33.9279 95.2175 34.027 95.3753 34.0898 95.5485C34.1526 95.7218 34.1775 95.9064 34.1629 96.0901Z" fill="#F7F7F7"/>
<path d="M79.803 93.34C79.7488 94.3426 79.3994 95.3068 78.7986 96.1113C78.1977 96.9158 77.3724 97.5246 76.4265 97.8611C75.4805 98.1977 74.4561 98.2469 73.4822 98.0027C72.5082 97.7584 71.6283 97.2316 70.9531 96.4884C70.2779 95.7453 69.8376 94.8191 69.6875 93.8263C69.5375 92.8335 69.6844 91.8185 70.1098 90.909C70.5353 89.9995 71.2202 89.2361 72.0784 88.715C72.9366 88.1938 73.9298 87.9381 74.933 87.98C75.61 87.9959 76.2768 88.1491 76.8928 88.4303C77.5088 88.7116 78.0613 89.1151 78.5167 89.6163C78.9721 90.1176 79.3209 90.7061 79.542 91.3461C79.7631 91.9862 79.8519 92.6646 79.803 93.34Z" fill="black"/>
<path d="M75.173 91.5499C75.155 91.9267 75.0257 92.2896 74.8017 92.593C74.5776 92.8964 74.2687 93.1267 73.9139 93.2548C73.5592 93.3829 73.1745 93.4031 72.8082 93.3128C72.442 93.2226 72.1107 93.026 71.8561 92.7477C71.6015 92.4694 71.435 92.122 71.3775 91.7492C71.3201 91.3764 71.3743 90.995 71.5333 90.653C71.6923 90.311 71.9491 90.0237 72.2712 89.8274C72.5932 89.6311 72.9662 89.5346 73.343 89.5499C73.5952 89.5589 73.8432 89.618 74.0723 89.7238C74.3014 89.8296 74.5071 89.9799 74.6775 90.1661C74.8479 90.3523 74.9794 90.5706 75.0645 90.8082C75.1496 91.0458 75.1865 91.2979 75.173 91.5499Z" fill="#F7F7F7"/>
<path d="M75.6529 95.8799C75.6369 96.1494 75.5416 96.4082 75.3791 96.6237C75.2165 96.8392 74.9939 97.0019 74.7392 97.0913C74.4845 97.1808 74.209 97.193 73.9474 97.1264C73.6858 97.0598 73.4497 96.9174 73.2687 96.7171C73.0877 96.5168 72.97 96.2675 72.9302 96.0005C72.8905 95.7335 72.9305 95.4607 73.0452 95.2163C73.16 94.972 73.3444 94.767 73.5752 94.6271C73.8061 94.4872 74.0731 94.4186 74.3429 94.4299C74.5246 94.4376 74.703 94.4813 74.8677 94.5587C75.0323 94.636 75.1799 94.7453 75.3018 94.8803C75.4238 95.0153 75.5176 95.1732 75.5779 95.3448C75.6382 95.5164 75.6637 95.6983 75.6529 95.8799Z" fill="#F7F7F7"/>
</svg>
