<svg width="14" height="19" viewBox="0 0 14 19" fill="none" xmlns="http://www.w3.org/2000/svg">
<path d="M13.2501 16.6233C13.0517 16.5213 12.8533 16.4174 12.6549 16.3153C12.1777 16.069 11.6988 15.8207 11.2216 15.5743C10.6469 15.2779 10.0722 14.9795 9.49752 14.6831C9.00322 14.4271 8.50892 14.1711 8.01462 13.9151C7.77859 13.7939 7.54256 13.6688 7.30653 13.5494C7.15944 13.4744 7.02774 13.4301 6.86183 13.4532C6.76605 13.4686 6.68566 13.5052 6.59843 13.5494C6.57278 13.5629 6.54712 13.5764 6.52318 13.5879C6.40174 13.6514 6.27859 13.715 6.15716 13.7785C5.70904 14.0095 5.26092 14.2424 4.8128 14.4733C4.24154 14.7697 3.67027 15.0642 3.099 15.3607C2.58076 15.6282 2.06081 15.8977 1.54256 16.1652C1.26035 16.3115 0.978139 16.4578 0.695927 16.6041C0.682243 16.6118 0.670271 16.6175 0.656588 16.6252C1.00037 16.8466 1.34245 17.0679 1.68623 17.2893C1.68623 17.1507 1.68623 17.014 1.68623 16.8755C1.68623 16.5001 1.68623 16.1267 1.68623 15.7514C1.68623 15.197 1.68623 14.6446 1.68623 14.0903C1.68623 13.4166 1.68623 12.741 1.68623 12.0674C1.68623 11.3302 1.68623 10.591 1.68623 9.85386C1.68623 9.11282 1.68623 8.3737 1.68623 7.63267C1.68623 6.94167 1.68623 6.25067 1.68623 5.55968C1.68623 4.9784 1.68623 4.39711 1.68623 3.81583C1.68623 3.402 1.68623 2.98817 1.68623 2.57627C1.68623 2.38764 1.68623 2.20094 1.68623 2.01231C1.68623 1.95264 1.68965 1.8949 1.69479 1.83716C1.68623 1.90452 1.67768 1.97382 1.67084 2.04118C1.68452 1.92955 1.71018 1.82368 1.74952 1.71975C1.72728 1.78134 1.70334 1.84293 1.6811 1.90452C1.71702 1.81213 1.7632 1.72552 1.81622 1.64468C1.7803 1.69665 1.74439 1.74862 1.70847 1.80059C1.76833 1.71397 1.83675 1.6389 1.912 1.57154C1.86582 1.61196 1.81964 1.65238 1.77346 1.6928C1.8453 1.63121 1.92227 1.58116 2.00436 1.54074C1.94963 1.56576 1.8949 1.59271 1.84017 1.61773C1.93253 1.57539 2.02831 1.54459 2.1258 1.52919C2.06594 1.53882 2.00436 1.54844 1.9445 1.55614C2.06936 1.53882 2.19593 1.54652 2.32078 1.54652C2.55168 1.54652 2.78258 1.54652 3.0152 1.54652C3.79513 1.54652 4.57506 1.54652 5.35499 1.54652C6.30425 1.54652 7.25522 1.54652 8.20448 1.54652C9.02204 1.54652 9.83959 1.54652 10.6572 1.54652C11.0403 1.54652 11.4251 1.54267 11.8082 1.54652C11.8578 1.54652 11.9092 1.55036 11.9588 1.55614C11.8989 1.54652 11.8373 1.53689 11.7775 1.52919C11.8767 1.54459 11.9707 1.57346 12.0631 1.61773C12.0084 1.59271 11.9536 1.56576 11.8989 1.54074C11.981 1.58116 12.058 1.63313 12.1298 1.6928C12.0836 1.65238 12.0374 1.61196 11.9912 1.57154C12.0682 1.6389 12.1349 1.7159 12.1948 1.80059C12.1589 1.74862 12.1229 1.69665 12.087 1.64468C12.1418 1.72552 12.1862 1.81213 12.2221 1.90452C12.1999 1.84293 12.176 1.78134 12.1537 1.71975C12.1914 1.82368 12.2187 1.93147 12.2324 2.04118C12.2239 1.97382 12.2153 1.90452 12.2085 1.83716C12.2273 2.01231 12.217 2.19324 12.217 2.37032C12.217 2.7341 12.217 3.09789 12.217 3.46167C12.217 4.00831 12.217 4.55302 12.217 5.09966C12.217 5.76948 12.217 6.4393 12.217 7.10913C12.217 7.84439 12.217 8.58158 12.217 9.31685C12.217 10.0579 12.217 10.7989 12.217 11.54C12.217 12.2348 12.217 12.9316 12.217 13.6264C12.217 14.2154 12.217 14.8025 12.217 15.3914C12.217 15.8149 12.217 16.2383 12.217 16.6618C12.217 16.862 12.2153 17.0641 12.217 17.2643C12.217 17.272 12.217 17.2816 12.217 17.2893C12.217 17.6916 12.5317 18.0784 12.9012 18.0592C13.2723 18.0399 13.5853 17.7204 13.5853 17.2893C13.5853 17.0198 13.5853 16.7503 13.5853 16.4828C13.5853 15.786 13.5853 15.0893 13.5853 14.3925C13.5853 13.432 13.5853 12.4735 13.5853 11.513C13.5853 10.4563 13.5853 9.39769 13.5853 8.34098C13.5853 7.35165 13.5853 6.36231 13.5853 5.37297C13.5853 4.61654 13.5853 3.8601 13.5853 3.10366C13.5853 2.74565 13.5853 2.38572 13.5853 2.02771C13.5836 1.31939 13.2655 0.663042 12.7284 0.29156C12.4188 0.072135 12.0631 0.00284294 11.7022 0.00284294C11.2011 0.00284294 10.7016 0.00284294 10.2005 0.00284294C9.3453 0.00284294 8.49011 0.00284294 7.63492 0.00284294C6.71132 0.00284294 5.786 0.00284294 4.8624 0.00284294C4.15431 0.00284294 3.44792 0.00284294 2.73983 0.00284294C2.18566 0.00284294 1.60072 -0.0529756 1.11839 0.330055C0.742107 0.626471 0.430818 1.06917 0.355562 1.59271C0.335037 1.73899 0.316223 1.88335 0.316223 2.02963C0.316223 2.15282 0.316223 2.27793 0.316223 2.40112C0.316223 2.98625 0.316223 3.57138 0.316223 4.15844C0.316223 5.05731 0.316223 5.95426 0.316223 6.85313C0.316223 7.89828 0.316223 8.94344 0.316223 9.98859C0.316223 11.0164 0.316223 12.0443 0.316223 13.0702C0.316223 13.9151 0.316223 14.7582 0.316223 15.6032C0.316223 16.0998 0.316223 16.5944 0.316223 17.091C0.316223 17.1565 0.316223 17.2219 0.316223 17.2893C0.316223 17.5607 0.446212 17.8167 0.654878 17.9533C0.760921 18.0226 0.877226 18.0573 1.00037 18.0592C1.12352 18.0592 1.23812 18.0245 1.34587 17.9533C1.54256 17.8513 1.73926 17.7493 1.93595 17.6492C2.41143 17.4028 2.88521 17.1584 3.36069 16.912C3.93196 16.6156 4.50493 16.3192 5.0762 16.0247C5.57221 15.7668 6.06993 15.5108 6.56594 15.2529C6.8071 15.1278 7.04997 15.0084 7.28771 14.8795C7.29114 14.8775 7.29456 14.8756 7.29798 14.8737C7.06708 14.8737 6.83789 14.8737 6.60699 14.8737C6.80368 14.9757 7.00037 15.0777 7.19706 15.1778C7.67255 15.4242 8.14632 15.6686 8.62181 15.915C9.19307 16.2114 9.76605 16.5078 10.3373 16.8023C10.8333 17.0602 11.331 17.3162 11.8271 17.5741C12.0682 17.6993 12.3077 17.8244 12.5488 17.9476C12.5523 17.9495 12.5557 17.9514 12.5591 17.9533C12.7301 18.0419 12.8977 18.09 13.0859 18.0303C13.245 17.9803 13.416 17.8436 13.4947 17.6762C13.5785 17.4972 13.6212 17.2816 13.5631 17.0833C13.5118 16.9024 13.4092 16.7041 13.2501 16.6233Z" fill="white"/>
</svg>
