<svg width="17" height="18" viewBox="0 0 17 18" fill="none" xmlns="http://www.w3.org/2000/svg">
<path d="M1.21306 0C0.543109 0 0 0.71105 0 1.58824C0 2.46536 0.543109 3.17647 1.21306 3.17647H15.7698C16.4398 3.17647 16.9829 2.46536 16.9829 1.58824C16.9829 0.71105 16.4398 0 15.7698 0H1.21306ZM1.21306 7.41177C0.543109 7.41177 0 8.12282 0 9C0 9.87713 0.543109 10.5882 1.21306 10.5882H15.7698C16.4398 10.5882 16.9829 9.87713 16.9829 9C16.9829 8.12282 16.4398 7.41177 15.7698 7.41177H1.21306ZM1.21306 14.8235C0.543109 14.8235 0 15.5346 0 16.4118C0 17.2889 0.543109 18 1.21306 18H15.7698C16.4398 18 16.9829 17.2889 16.9829 16.4118C16.9829 15.5346 16.4398 14.8235 15.7698 14.8235H1.21306Z" fill="white"/>
</svg>
