<svg fill="none" xmlns="http://www.w3.org/2000/svg" viewBox="0 0 89 136"><path d="M44.593 14.67a39.702 39.702 0 012.4-10.52 5.669 5.669 0 013.37-3.34 3.71 3.71 0 011.95-.18c1.155.236 2.28.605 3.35 1.1a2 2 0 011.24 2.09 1.681 1.681 0 01-1.95 1.77c-.42 0-.83-.12-1.24-.15a1.79 1.79 0 00-2.2 1.44 13.206 13.206 0 00-.64 3.58c-.07 1.35-.13 2.7-.21 4.05-.08 1.35-.65 2-2.06 2.13-.55.06-1.1.06-1.65.16-1.58.28-2.4-.44-2.36-2.13z" fill="#4C820D"/><path d="M13.853 28.36h-2a3.534 3.534 0 01-.92-.14c-.77-.23-.93-.65-.51-1.32a9.549 9.549 0 012.06-2.31 54.872 54.872 0 018.36-5.47 47.329 47.329 0 0113.25-4.82 28.498 28.498 0 018.5-.28c1.764.132 3.51.447 5.21.94.3.1.618.127.93.08a.33.33 0 01.4.24.38.38 0 01-.24.42c-.06 0-.11.08-.18.11-4.31 2.07-8.38 4.62-12.75 6.58a69.89 69.89 0 01-13.48 4.81 37.53 37.53 0 01-8.63 1.16z" fill="#4C820D"/><path d="M68.603 132.88a45.183 45.183 0 01-5.25 1.33 59.791 59.791 0 01-14.94 1.43 106.082 106.082 0 01-27-3.81 31.646 31.646 0 01-8.8-3.94 16.161 16.161 0 01-4.5-4.14 52.342 52.342 0 01-4.35-7.1 29.294 29.294 0 01-2.67-9.92 45.36 45.36 0 012.39-21.13 32 32 0 015.21-8.86 24.79 24.79 0 015.14-4.38 47.08 47.08 0 004.28-3.32 14.899 14.899 0 002.72-3.4 44.997 44.997 0 004-9.51c2-6.41 3.85-12.9 6-19.29a61.005 61.005 0 014.4-10.67 27.52 27.52 0 016.93-8.38c.637-.486 1.305-.93 2-1.33a9.438 9.438 0 018.58-.77 27.162 27.162 0 00-6.71 8.21 60.165 60.165 0 00-4.42 10.67c-2.15 6.39-4 12.88-6 19.3a45.156 45.156 0 01-4 9.5 15.458 15.458 0 01-2.72 3.4 46.796 46.796 0 01-4.29 3.32 25.052 25.052 0 00-5.12 4.36 32.182 32.182 0 00-5.21 8.86 45.35 45.35 0 00-2.42 21.14 28.806 28.806 0 002.65 9.92 53.767 53.767 0 004.35 7.1 16.162 16.162 0 004.5 4.14 31.848 31.848 0 008.81 3.94 105.452 105.452 0 0027 3.81 48.321 48.321 0 009.44-.48z" fill="#A3AA0E"/><path d="M88.003 101.7a46.748 46.748 0 01-4.75 18.23 24.734 24.734 0 01-11.77 11.81c-.94.443-1.91.823-2.9 1.14-3.11.468-6.258.633-9.4.49a105.452 105.452 0 01-27-3.81 31.848 31.848 0 01-8.81-3.94 16.16 16.16 0 01-4.5-4.14 53.821 53.821 0 01-4.35-7.1 28.806 28.806 0 01-2.65-9.92 45.35 45.35 0 012.42-21.13 32.178 32.178 0 015.19-8.88 25.047 25.047 0 015.14-4.38 46.808 46.808 0 004.29-3.32c1.063-1 1.978-2.144 2.72-3.4a45.151 45.151 0 004-9.5c2-6.42 3.85-12.91 6-19.3a60.158 60.158 0 014.42-10.67 27.159 27.159 0 016.71-8.21c.748.302 1.465.677 2.14 1.12a21.12 21.12 0 018.73 11 81.916 81.916 0 013.54 13.49c.73 4.06 1.19 8.18 2.09 12.22a19.469 19.469 0 002.6 7 37.042 37.042 0 002.94 3.66c1.37 1.52 2.77 3 4 4.64a43.721 43.721 0 016.9 13.82 53.001 53.001 0 012.3 19.08z" fill="#C5D72D"/><path d="M77.793 80.81c.002.278.078.55.22.79a29.538 29.538 0 012.25 9.06c.407 3.276.423 6.59.05 9.87-.15 1.22-1.4 4.42-.71 5.36 1.58 2.16 3-2.36 3.12-3.43A44 44 0 0081.403 83a14.668 14.668 0 00-1.09-2.7 1.33 1.33 0 00-1.43-.81 1.29 1.29 0 00-1.09 1.32zm-13.46-27.24c-.2-1.23-.38-2.74-.68-4.24-.68-3.4-1.47-6.78-2.48-10.1a3.452 3.452 0 00-.42-1.06 1.34 1.34 0 00-1.56-.5 1.28 1.28 0 00-.82 1.32c.056.377.146.749.27 1.11a86.5 86.5 0 013 13.5c.03.205.07.409.12.61a1.34 1.34 0 001.42 1.12c.69-.09 1.13-.64 1.15-1.76zm-46.17-28.3a.69.69 0 01-.75-.44.66.66 0 01.25-.83 2.64 2.64 0 01.64-.34 180.776 180.776 0 0120.18-7.21l.91-.24a.769.769 0 011 .47c.15.38-.07.73-.58.95-.127.05-.257.09-.39.12a176.245 176.245 0 00-20.19 7.2 3.419 3.419 0 01-1.07.32zM54.253 20a1.31 1.31 0 00-1.45 1.14 1.54 1.54 0 00.24 1 37.558 37.558 0 013.44 8.31c.07.269.157.532.26.79a1.311 1.311 0 002.51-.76c-.21-.81-.49-1.6-.73-2.39a37.89 37.89 0 00-2.58-6.25 13.29 13.29 0 00-.75-1.25 1.38 1.38 0 00-.94-.59zm8.71 91.97a1.42 1.42 0 11-1.42-1.42 1.43 1.43 0 011.42 1.42zm-9.07-79.09a1.42 1.42 0 11-2.84-.02 1.42 1.42 0 012.84.02zm4.34 29.57a.95.95 0 11-1.89-.195.95.95 0 011.89.195zm-4.25-12.28a.951.951 0 11-.94-.94.94.94 0 01.94.94zm26.55 63.02a.94.94 0 100-1.88.94.94 0 000 1.88zm-7.93-39.97a.94.94 0 100-1.88.94.94 0 000 1.88zm-3.31 52.36a.95.95 0 11-.95-.95.933.933 0 01.675.275.946.946 0 01.275.675z" fill="#fff"/><path d="M24.123 95.65a6.53 6.53 0 01-3.23-1 3.46 3.46 0 01-.25-5.69c.282-.227.591-.419.92-.57a7.63 7.63 0 017.79.87 2.879 2.879 0 01.62 4.48 4.12 4.12 0 01-2.36 1.57 11.384 11.384 0 01-3.49.34zm42.36-.93a8.37 8.37 0 01-3.83-.8 3.3 3.3 0 01-1.75-3.68 3.42 3.42 0 011.53-2 7.002 7.002 0 013.32-1 9.406 9.406 0 012.8.17 4.61 4.61 0 013 2.05 2.94 2.94 0 01-.6 3.61 5.72 5.72 0 01-3 1.51c-.6.09-1.13.11-1.47.14z" fill="#FF556E"/><path d="M45.653 99.26a7.001 7.001 0 01-5.49-2.86 12.7 12.7 0 01-2.47-7.19 2.078 2.078 0 011.81-2.34c.11-.01.22-.01.33 0a2.17 2.17 0 012.08 1.92c.07.34.13.68.18 1 .094.603.22 1.2.38 1.79a6.48 6.48 0 001.25 2.39 2.61 2.61 0 001.91 1 2.67 2.67 0 001.81-.8 7.08 7.08 0 002-4.28l.04-.44c.034-.303.087-.604.16-.9a2.17 2.17 0 012.08-1.83h.23a2.149 2.149 0 011.9 2.39v.38a13 13 0 01-2.82 7.22 7.151 7.151 0 01-5.38 2.55zm-8.36-17.44a4.95 4.95 0 11-4.71-5.17 4.939 4.939 0 014.71 5.17z" fill="#000"/><path d="M32.813 80.09a1.87 1.87 0 11-1.06-1.823 1.861 1.861 0 011.06 1.823zm.43 4.08a1.34 1.34 0 11-1.27-1.4 1.35 1.35 0 011.27 1.4z" fill="#F7F7F7"/><path d="M64.033 81.87a4.94 4.94 0 11-9.87-.45 4.94 4.94 0 019.87.45z" fill="#000"/><path d="M59.553 80.15a1.86 1.86 0 11-3.71-.284 1.86 1.86 0 013.71.284zm.43 4.07a1.34 1.34 0 11-2.678-.104 1.34 1.34 0 012.678.104z" fill="#F7F7F7"/></svg>