<svg width="90" height="126" viewBox="0 0 90 126" fill="none" xmlns="http://www.w3.org/2000/svg">
<path d="M65.9529 115.37C65.1731 116.564 64.3039 117.697 63.3528 118.76C61.3566 121.033 58.8945 122.85 56.1337 124.087C53.3729 125.325 50.3781 125.953 47.3528 125.93C44.0157 125.914 40.7699 124.839 38.0828 122.86C34.8072 120.668 32.0107 117.835 29.8628 114.53C23.8628 105.14 17.1528 96.2901 11.0028 87.0401C6.69927 80.6665 3.62639 73.544 1.94285 66.0401C0.274507 59.0391 0.551142 51.7153 2.74285 44.8601C4.04745 40.4313 6.69628 36.5174 10.3228 33.6601C11.4529 32.7903 12.65 32.0112 13.9028 31.3301C12.8947 33.0153 12.0828 34.8103 11.4828 36.6801C9.30118 43.537 9.02465 50.8581 10.6828 57.8601C12.3744 65.3614 15.4467 72.4825 19.7428 78.8601C25.9028 88.1101 32.6428 96.9601 38.6128 106.35C40.7607 109.655 43.5572 112.488 46.8328 114.68C49.5168 116.658 52.7591 117.733 56.0928 117.75C59.5194 117.73 62.8946 116.916 65.9529 115.37Z" fill="#DD052A"/>
<path d="M89.1328 57.2C88.8102 64.8625 87.1167 72.4051 84.1328 79.47C82.3628 83.9 80.1929 88.15 78.0029 92.39C74.7329 98.75 71.5128 105.13 68.2428 111.49C67.5597 112.823 66.8053 114.118 65.9828 115.37C62.9213 116.902 59.5462 117.703 56.1228 117.71C52.7891 117.693 49.5468 116.618 46.8628 114.64C43.5872 112.448 40.7907 109.615 38.6429 106.31C32.6429 96.92 25.9328 88.07 19.7728 78.82C15.4767 72.4424 12.4044 65.3213 10.7128 57.82C9.05234 50.8335 9.31846 43.5273 11.4828 36.68C12.0729 34.8258 12.8713 33.0444 13.8628 31.37C16.5373 29.9038 19.4597 28.9444 22.4828 28.54C24.0139 28.3765 25.5532 28.303 27.0928 28.32C29.2028 28.32 31.3228 28.32 33.4328 28.32C36.7428 28.32 40.0528 28.23 43.3628 28.32C45.8528 28.41 48.3628 28.59 50.8428 28.75C53.5328 28.92 56.2228 28.9 58.9228 28.97C63.1583 28.9621 67.378 29.4862 71.4828 30.53C74.1378 31.1991 76.6955 32.2074 79.0928 33.53C82.4381 35.5927 85.0295 38.6786 86.4828 42.33C88.4515 47.0308 89.3564 52.1086 89.1328 57.2Z" fill="#EF1B34"/>
<path d="M53.143 109.45C53.143 106.84 53.463 103.45 55.343 104.21C56.343 104.61 56.423 105.91 56.343 106.96L56.133 112.09C56.1524 112.689 56.0468 113.285 55.823 113.84C55.7076 114.115 55.5128 114.35 55.2634 114.514C55.014 114.678 54.7214 114.763 54.423 114.76C54.1465 114.712 53.889 114.588 53.6802 114.4C53.4715 114.213 53.3199 113.97 53.243 113.7C53.0946 113.157 53.0505 112.59 53.113 112.03C53.173 111.61 53.133 110.6 53.143 109.45Z" fill="white"/>
<path d="M72.8629 86.1799C72.8029 86.3599 72.7329 86.6999 72.6229 87.0199C72.1029 88.6299 71.6229 90.2199 71.0629 91.8299C70.9563 92.2403 70.7502 92.6181 70.4629 92.9299C70.2603 93.1367 69.9987 93.2756 69.714 93.3275C69.4292 93.3795 69.1354 93.3419 68.8729 93.2199C68.6056 93.1083 68.381 92.9142 68.2317 92.666C68.0824 92.4178 68.0162 92.1283 68.0429 91.8399C68.0659 91.5737 68.123 91.3116 68.2129 91.0599C68.7529 89.3899 69.2929 87.7099 69.8529 86.0599C69.9391 85.7681 70.0635 85.4891 70.2229 85.2299C70.3922 84.9693 70.6424 84.7714 70.935 84.6666C71.2277 84.5618 71.5466 84.556 71.8429 84.6499C72.153 84.764 72.4189 84.9737 72.6023 85.2487C72.7856 85.5236 72.8769 85.8497 72.8629 86.1799Z" fill="white"/>
<path d="M34.233 99.7799C34.1871 99.3977 34.292 99.0126 34.5253 98.7064C34.7587 98.4002 35.1022 98.197 35.483 98.1399C35.6738 98.1058 35.8696 98.1105 36.0586 98.1539C36.2476 98.1973 36.4258 98.2783 36.5827 98.3923C36.7396 98.5062 36.8719 98.6506 36.9716 98.8169C37.0713 98.9832 37.1364 99.1679 37.163 99.3599C37.533 100.92 37.843 102.5 38.163 104.07C38.253 104.48 38.363 104.89 38.413 105.31C38.4554 105.497 38.46 105.691 38.4264 105.88C38.3928 106.069 38.3217 106.25 38.2174 106.411C38.113 106.572 37.9775 106.711 37.8187 106.819C37.66 106.927 37.4812 107.002 37.293 107.04C36.9377 107.109 36.5696 107.045 36.2582 106.861C35.9468 106.676 35.7137 106.384 35.603 106.04C35.5313 105.862 35.4744 105.678 35.433 105.49C35.053 103.77 34.6796 102.05 34.313 100.33C34.2733 100.149 34.2465 99.9649 34.233 99.7799Z" fill="white"/>
<path d="M15.963 55.78C15.9835 56.1299 15.8792 56.4757 15.6686 56.7559C15.458 57.0361 15.1548 57.2325 14.813 57.31C14.4567 57.3931 14.0821 57.3355 13.7673 57.1492C13.4524 56.9629 13.2216 56.6623 13.123 56.31C12.9466 55.6819 12.8063 55.0442 12.703 54.4C12.513 53.4 12.343 52.4 12.193 51.4C12.1479 51.0213 12.1479 50.6387 12.193 50.26C12.2063 49.9296 12.3396 49.6154 12.5678 49.3761C12.796 49.1368 13.1036 48.9889 13.433 48.96C13.7589 48.914 14.0906 48.9825 14.3715 49.154C14.6524 49.3255 14.865 49.5891 14.973 49.9C15.0313 50.0418 15.0749 50.1893 15.103 50.34C15.393 52.05 15.673 53.75 15.963 55.45C15.933 55.57 15.943 55.68 15.963 55.78Z" fill="white"/>
<path d="M42.063 48.1401C42.063 48.8701 42.063 49.6001 42.063 50.3201C42.0724 50.5122 42.0435 50.7042 41.978 50.885C41.9124 51.0658 41.8116 51.2318 41.6813 51.3732C41.551 51.5147 41.3939 51.6288 41.2191 51.7089C41.0442 51.7891 40.8552 51.8337 40.663 51.8401C40.4691 51.851 40.275 51.8221 40.0927 51.755C39.9104 51.6879 39.7437 51.5842 39.6032 51.4501C39.4626 51.3161 39.351 51.1546 39.2752 50.9757C39.1995 50.7968 39.1614 50.6043 39.163 50.4101C39.083 48.8401 39.083 47.2701 39.163 45.7001C39.1589 45.5064 39.1942 45.3138 39.2667 45.1342C39.3392 44.9545 39.4475 44.7914 39.585 44.6549C39.7225 44.5184 39.8863 44.4112 40.0664 44.3399C40.2466 44.2686 40.4393 44.2346 40.633 44.2401C41.463 44.2401 42.023 44.8501 42.083 45.8401C42.083 46.2201 42.083 46.6101 42.083 46.9901V48.1401H42.063Z" fill="white"/>
<path d="M47.7531 83.65C47.5631 84.85 47.3731 86.33 47.1031 87.8C47.0748 87.9884 47.0097 88.1695 46.9115 88.3328C46.8133 88.4961 46.6839 88.6384 46.5307 88.7517C46.3775 88.865 46.2035 88.947 46.0186 88.993C45.8337 89.0391 45.6415 89.0482 45.4531 89.02C45.2646 88.9918 45.0836 88.9267 44.9203 88.8285C44.757 88.7303 44.6146 88.6009 44.5013 88.4477C44.388 88.2945 44.306 88.1204 44.26 87.9355C44.214 87.7506 44.2048 87.5584 44.2331 87.37C44.4031 85.89 44.6031 84.37 44.8431 82.94C44.855 82.741 44.9079 82.5467 44.9984 82.369C45.0889 82.1914 45.215 82.0343 45.3689 81.9077C45.5228 81.781 45.7012 81.6874 45.8929 81.6327C46.0846 81.5781 46.2855 81.5635 46.4831 81.59C47.3431 81.71 47.8031 82.36 47.7531 83.65Z" fill="white"/>
<path d="M77.323 50.2001C77.143 51.4001 76.953 52.8801 76.673 54.3501C76.6579 54.5489 76.602 54.7425 76.5087 54.9187C76.4154 55.095 76.2868 55.2501 76.1309 55.3744C75.975 55.4987 75.7951 55.5895 75.6025 55.6411C75.4099 55.6927 75.2087 55.7041 75.0115 55.6744C74.8143 55.6448 74.6254 55.5748 74.4565 55.4688C74.2876 55.3628 74.1423 55.2231 74.0298 55.0585C73.9173 54.8938 73.84 54.7078 73.8027 54.5119C73.7654 54.316 73.7689 54.1145 73.813 53.9201C73.983 52.4401 74.173 50.9201 74.423 49.4901C74.4343 49.2872 74.4883 49.0889 74.5812 48.9082C74.6741 48.7275 74.804 48.5683 74.9624 48.4411C75.1208 48.3138 75.3042 48.2212 75.5007 48.1693C75.6972 48.1175 75.9024 48.1075 76.1029 48.1401C76.9229 48.2601 77.373 48.9101 77.323 50.2001Z" fill="white"/>
<path d="M24.6029 86C24.6061 86.3323 24.4974 86.6561 24.2942 86.9191C24.0911 87.1822 23.8053 87.3692 23.4829 87.45C23.1653 87.5457 22.8236 87.5211 22.5229 87.3809C22.2223 87.2408 21.9838 86.9948 21.8529 86.69C21.6377 86.1609 21.4639 85.6159 21.3329 85.06C21.0729 84.18 20.8129 83.3 20.5829 82.41C20.5083 82.2226 20.4726 82.0221 20.4778 81.8205C20.483 81.6189 20.5291 81.4205 20.6132 81.2373C20.6974 81.054 20.8178 80.8898 20.9673 80.7544C21.1168 80.6191 21.2922 80.5155 21.4829 80.45C21.6716 80.3809 21.8726 80.3524 22.0731 80.3662C22.2735 80.38 22.4688 80.4359 22.6461 80.5303C22.8235 80.6246 22.979 80.7553 23.1025 80.9138C23.226 81.0722 23.3147 81.2549 23.3629 81.45C23.8129 82.83 24.1629 84.24 24.5529 85.64C24.58 85.7583 24.5968 85.8788 24.6029 86Z" fill="white"/>
<path d="M49.9931 33.0801C49.9231 33.3301 49.8531 33.6301 49.7531 33.9201C48.8664 36.6201 47.9797 39.3134 47.0931 42.0001C47.0246 42.3029 46.8954 42.5887 46.7131 42.8401C46.6139 42.9837 46.4678 43.0882 46.2999 43.1356C46.1319 43.1831 45.9527 43.1705 45.7931 43.1001C45.6302 43.0387 45.4925 42.9247 45.4019 42.7761C45.3113 42.6275 45.273 42.4529 45.2931 42.2801C45.3167 42.0507 45.3705 41.8254 45.4531 41.6101L48.2731 32.9701C48.3176 32.8236 48.371 32.68 48.4331 32.5401C48.6431 32.1301 48.9631 31.8501 49.4331 32.0201C49.646 32.0891 49.8236 32.2385 49.9282 32.4364C50.0328 32.6343 50.056 32.8652 49.9931 33.0801Z" fill="black"/>
<path d="M34.343 27.96C34.883 27.96 35.173 28.08 35.343 28.46C35.4222 28.6422 35.428 28.848 35.359 29.0344C35.2901 29.2207 35.1517 29.3732 34.973 29.46C34.8096 29.56 34.6351 29.6406 34.453 29.7C31.7692 30.7823 29.1572 32.0348 26.633 33.45C26.3777 33.6233 26.0931 33.7487 25.793 33.82C25.6214 33.8507 25.4444 33.8231 25.2903 33.7416C25.1363 33.66 25.014 33.5292 24.943 33.37C24.867 33.234 24.8385 33.0766 24.8621 32.9226C24.8856 32.7687 24.9598 32.627 25.0729 32.52C25.2654 32.3295 25.4843 32.1678 25.723 32.04C28.2648 30.6008 30.9008 29.3346 33.613 28.25L34.343 27.96Z" fill="black"/>
<path d="M43.5629 31.88C43.5589 32.0344 43.5242 32.1865 43.4606 32.3273C43.3971 32.4681 43.3061 32.5948 43.1929 32.7L38.4129 38.3C38.2899 38.4443 38.1488 38.572 37.9929 38.68C37.8693 38.774 37.7182 38.825 37.5629 38.825C37.4076 38.825 37.2565 38.774 37.1329 38.68C36.9821 38.5918 36.8679 38.4526 36.811 38.2874C36.7542 38.1223 36.7584 37.9423 36.8229 37.78C36.9 37.5624 37.0189 37.3619 37.1729 37.19L41.8629 31.67C42.019 31.4513 42.234 31.2813 42.4829 31.18C42.6 31.1336 42.7265 31.1159 42.8518 31.1284C42.9771 31.1408 43.0977 31.1831 43.2033 31.2516C43.309 31.3201 43.3968 31.4128 43.4593 31.5222C43.5219 31.6315 43.5574 31.7541 43.5629 31.88Z" fill="black"/>
<path d="M56.8429 26.82L62.4829 27.45C62.7502 27.4706 63.0148 27.5175 63.2729 27.59C63.4417 27.638 63.5886 27.7429 63.6889 27.8869C63.7891 28.0308 63.8365 28.2051 63.8229 28.38C63.8229 28.5755 63.7467 28.7633 63.6103 28.9034C63.474 29.0435 63.2883 29.1248 63.0929 29.13C62.8237 29.16 62.552 29.16 62.2829 29.13C60.2829 28.91 58.3929 28.68 56.4429 28.44C56.2897 28.4294 56.1384 28.3991 55.9929 28.35C55.8088 28.2985 55.6493 28.1828 55.5431 28.0239C55.437 27.8649 55.3913 27.6732 55.4142 27.4835C55.4372 27.2938 55.5273 27.1185 55.6683 26.9895C55.8093 26.8604 55.9918 26.7861 56.1829 26.78C56.4129 26.78 56.6429 26.78 56.8729 26.78L56.8429 26.82Z" fill="black"/>
<path d="M57.323 34.4499C57.333 34.5776 57.3126 34.7059 57.2634 34.8242C57.2142 34.9424 57.1377 35.0474 57.0401 35.1303C56.9425 35.2133 56.8266 35.2719 56.7019 35.3014C56.5773 35.3309 56.4474 35.3304 56.323 35.2999C56.0733 35.2013 55.843 35.0591 55.643 34.8799C54.503 33.9733 53.3763 33.0499 52.263 32.1099C52.0015 31.8881 51.7785 31.6246 51.603 31.3299C51.5015 31.1868 51.4575 31.0107 51.4798 30.8366C51.502 30.6625 51.5888 30.5031 51.723 30.3899C51.7761 30.3196 51.8426 30.2604 51.9186 30.2158C51.9946 30.1711 52.0787 30.1419 52.166 30.1299C52.2533 30.1178 52.3422 30.123 52.4275 30.1454C52.5128 30.1677 52.5928 30.2066 52.663 30.2599C54.173 31.4999 55.663 32.7599 57.153 34.0199C57.253 34.1299 57.283 34.3599 57.323 34.4499Z" fill="black"/>
<path d="M50.4029 26.12C51.7629 25.94 53.0029 25.7 54.2629 25.62C59.9236 25.1475 65.6117 26.1213 70.7929 28.45C71.1127 28.5846 71.4177 28.7522 71.7029 28.95C72.1729 29.3 72.1329 29.73 71.5929 30.02C71.2714 30.1786 70.9368 30.3091 70.5929 30.41C66.9264 31.7132 63.053 32.3367 59.1629 32.25C58.8331 32.1812 58.4926 32.1812 58.1629 32.25C58.1629 32.55 58.3929 32.63 58.5529 32.76C61.4192 35.0828 64.073 37.6563 66.4829 40.45C66.6414 40.6167 66.7699 40.8096 66.8629 41.02C66.9006 41.0883 66.9169 41.1664 66.9098 41.2442C66.9026 41.3219 66.8723 41.3957 66.8228 41.456C66.7732 41.5163 66.7067 41.5604 66.6319 41.5825C66.557 41.6046 66.4772 41.6037 66.4029 41.58C66.0998 41.526 65.802 41.4456 65.5129 41.34C60.9149 40.0387 56.5536 38.0133 52.5929 35.34C52.4615 35.2658 52.3244 35.2022 52.1828 35.15C52.0728 35.56 51.9429 35.94 51.8529 36.33C50.6607 41.0358 48.6537 45.4965 45.9229 49.51C45.7097 49.8315 45.4758 50.1388 45.2228 50.43C44.9528 50.74 44.6928 51.14 44.2228 51.04C43.7528 50.94 43.6029 50.42 43.4629 49.99C43.2783 49.2415 43.2075 48.4695 43.2528 47.7C43.2947 44.62 43.6804 41.5544 44.4028 38.56C44.6929 37.29 45.0828 36.04 45.4028 34.78C45.4728 34.49 45.6928 34.22 45.5428 33.86C45.1279 34.2164 44.7703 34.6346 44.4829 35.1C40.824 39.8717 36.3274 43.938 31.2129 47.1C30.8952 47.3135 30.5608 47.5007 30.2129 47.66C29.6429 47.89 29.3029 47.66 29.3929 47.02C29.4243 46.8689 29.4712 46.7215 29.5329 46.58C31.1127 42.2076 33.2003 38.0357 35.7528 34.15C36.3328 33.3 36.9928 32.5 37.6929 31.57C37.2456 31.6407 36.819 31.8079 36.4429 32.06C31.81 34.2294 26.9359 35.8406 21.9229 36.86C20.8594 37.0383 19.7788 37.092 18.7029 37.02C18.3929 37.02 18.0529 37.02 17.9129 36.68C17.7729 36.34 18.0028 36.02 18.2528 35.77C19.6728 34.36 21.0929 32.95 22.5929 31.63C26.1484 28.578 30.5374 26.6621 35.1929 26.13C37.2 25.7571 39.2467 25.6429 41.2829 25.79C41.9329 25.87 42.0329 25.43 42.2129 25C43.3674 22.1862 44.7035 19.4505 46.2129 16.81C49.6308 10.934 54.4379 5.98609 60.2129 2.4C60.9229 1.93 61.6529 1.5 62.3629 1.05C62.6435 0.837969 62.9912 0.734371 63.3421 0.758255C63.6931 0.782139 64.0235 0.931899 64.2729 1.18C64.9129 1.73 65.5628 2.27 66.1628 2.87C66.2701 2.93996 66.3583 3.03559 66.4193 3.14821C66.4803 3.26084 66.5123 3.38691 66.5123 3.515C66.5123 3.64309 66.4803 3.76916 66.4193 3.88179C66.3583 3.99441 66.2701 4.09004 66.1628 4.16C65.7753 4.52816 65.3571 4.8627 64.9128 5.16C58.1444 10.0517 53.15 17.0116 50.6828 24.99C50.6129 25.21 50.5329 25.43 50.4729 25.65C50.4128 25.87 50.4829 25.87 50.4029 26.12Z" fill="#569315"/>
<path d="M23.303 73.99C21.2549 73.3139 19.4937 71.9684 18.303 70.17C17.8938 69.604 17.6736 68.9234 17.6736 68.225C17.6736 67.5266 17.8938 66.846 18.303 66.28C18.5713 65.8789 18.9226 65.54 19.3332 65.2864C19.7439 65.0328 20.2041 64.8703 20.683 64.81C21.3502 64.7097 22.0308 64.7472 22.683 64.92C24.8594 65.4091 26.8385 66.5415 28.363 68.17C28.7381 68.5667 29.0334 69.0318 29.233 69.54C29.4455 69.9755 29.5576 70.4532 29.5611 70.9378C29.5645 71.4224 29.4592 71.9016 29.2529 72.3401C29.0466 72.7786 28.7445 73.1653 28.369 73.4716C27.9935 73.7779 27.554 73.9961 27.083 74.11C25.843 74.4785 24.5171 74.4365 23.303 73.99Z" fill="#FF7885"/>
<path d="M67.293 66.4501C68.2102 66.0375 69.1908 65.7839 70.193 65.7001C70.9677 65.5994 71.7548 65.7368 72.4496 66.094C73.1444 66.4512 73.7141 67.0114 74.083 67.7001C74.4546 68.4133 74.589 69.2265 74.4667 70.0214C74.3445 70.8163 73.9718 71.5515 73.403 72.1201C72.5206 73.1148 71.379 73.8445 70.1058 74.2277C68.8325 74.6109 67.4778 74.6325 66.193 74.2901C63.193 73.6101 62.443 70.3701 64.583 68.2901C64.8821 67.9804 65.2179 67.7084 65.583 67.4801C66.103 67.0901 66.703 66.8001 67.293 66.4501Z" fill="#FF7885"/>
<path d="M35.6629 61.0699C35.6628 61.9086 35.4134 62.7284 34.9464 63.4251C34.4793 64.1217 33.8157 64.6638 33.0399 64.9825C32.264 65.3011 31.411 65.3819 30.5891 65.2146C29.7672 65.0473 29.0136 64.6394 28.4241 64.0428C27.8346 63.4462 27.4357 62.6879 27.2782 61.864C27.1206 61.0402 27.2116 60.1882 27.5394 59.4162C27.8672 58.6442 28.4172 57.9871 29.1194 57.5283C29.8215 57.0696 30.6442 56.83 31.4829 56.8399C32.5961 56.8531 33.6592 57.3045 34.4417 58.0964C35.2242 58.8882 35.663 59.9566 35.6629 61.0699Z" fill="black"/>
<path d="M31.763 59.78C31.763 60.0968 31.6689 60.4066 31.4926 60.6699C31.3164 60.9332 31.0659 61.1383 30.773 61.2591C30.48 61.3799 30.1578 61.411 29.8471 61.3484C29.5365 61.2859 29.2514 61.1325 29.0281 60.9077C28.8047 60.683 28.6531 60.397 28.5925 60.0859C28.5319 59.7749 28.565 59.4529 28.6877 59.1607C28.8103 58.8685 29.0169 58.6193 29.2814 58.4447C29.5458 58.2701 29.8561 58.178 30.173 58.18C30.5956 58.1826 31 58.3523 31.2979 58.6521C31.5958 58.9519 31.763 59.3573 31.763 59.78Z" fill="#F7F7F7"/>
<path d="M31.1429 64.3801C31.7725 64.3801 32.2829 63.8697 32.2829 63.2401C32.2829 62.6105 31.7725 62.1001 31.1429 62.1001C30.5133 62.1001 30.0029 62.6105 30.0029 63.2401C30.0029 63.8697 30.5133 64.3801 31.1429 64.3801Z" fill="#F7F7F7"/>
<path d="M60.843 65.66C63.1792 65.66 65.073 63.7661 65.073 61.43C65.073 59.0938 63.1792 57.2 60.843 57.2C58.5069 57.2 56.613 59.0938 56.613 61.43C56.613 63.7661 58.5069 65.66 60.843 65.66Z" fill="black"/>
<path d="M61.1729 60.1301C61.1749 60.4469 61.0827 60.7573 60.9081 61.0217C60.7335 61.2861 60.4843 61.4928 60.1921 61.6154C59.8999 61.738 59.5779 61.7711 59.2669 61.7105C58.9559 61.6499 58.6698 61.4983 58.4451 61.275C58.2203 61.0516 58.0669 60.7666 58.0044 60.4559C57.9418 60.1453 57.9729 59.8231 58.0937 59.5301C58.2145 59.2372 58.4196 58.9867 58.6829 58.8104C58.9463 58.6342 59.256 58.5401 59.5729 58.5401C59.7825 58.5388 59.9903 58.5789 60.1844 58.6582C60.3785 58.7375 60.5549 58.8544 60.7036 59.0022C60.8523 59.15 60.9704 59.3257 61.0509 59.5193C61.1314 59.7129 61.1729 59.9204 61.1729 60.1301Z" fill="#F7F7F7"/>
<path d="M60.5528 64.74C61.1824 64.74 61.6928 64.2296 61.6928 63.6C61.6928 62.9704 61.1824 62.46 60.5528 62.46C59.9232 62.46 59.4128 62.9704 59.4128 63.6C59.4128 64.2296 59.9232 64.74 60.5528 64.74Z" fill="#F7F7F7"/>
<path d="M45.0929 75.85C42.6013 75.9262 40.1361 75.3211 37.9629 74.1C37.3797 73.7847 36.847 73.3835 36.3829 72.91C35.9201 72.4662 35.6392 71.866 35.5948 71.2263C35.5504 70.5866 35.7458 69.9534 36.1429 69.45C36.3691 69.1469 36.6614 68.8993 36.9975 68.7261C37.3337 68.5528 37.7049 68.4584 38.0829 68.45C38.6285 68.4597 39.1596 68.6263 39.6129 68.93L39.7529 69.03C40.3653 69.4851 41.0385 69.852 41.7529 70.1199C42.8361 70.464 43.9665 70.6361 45.1029 70.63C46.2993 70.6202 47.4905 70.4726 48.6529 70.1899C49.7144 69.9462 50.7421 69.5735 51.7129 69.0799C52.0335 68.9086 52.368 68.7647 52.7129 68.6499C52.9757 68.571 53.2486 68.5306 53.5229 68.53C54.0365 68.529 54.5381 68.685 54.9605 68.977C55.3829 69.2691 55.7061 69.6832 55.8866 70.1639C56.0672 70.6447 56.0966 71.1692 55.9708 71.6671C55.845 72.165 55.5701 72.6126 55.1829 72.95C54.8164 73.2553 54.4133 73.514 53.9829 73.7199C51.2348 75.082 48.2101 75.7936 45.1429 75.7999L45.0929 75.85Z" fill="black"/>
</svg>
