<svg fill="none" xmlns="http://www.w3.org/2000/svg" viewBox="0 0 90 126"><path d="M65.953 115.37a28.254 28.254 0 01-2.6 3.39 21.08 21.08 0 01-16 7.17 15.76 15.76 0 01-9.27-3.07 29.11 29.11 0 01-8.22-8.33c-6-9.39-12.71-18.24-18.86-27.49a61.641 61.641 0 01-9.06-21 39.49 39.49 0 01.8-21.18 22.27 22.27 0 017.58-11.2 27.062 27.062 0 013.58-2.33 25.743 25.743 0 00-2.42 5.35 39.69 39.69 0 00-.8 21.18 62 62 0 009.06 21c6.16 9.25 12.9 18.1 18.87 27.49a29.11 29.11 0 008.22 8.33 15.744 15.744 0 009.26 3.07 22.141 22.141 0 009.86-2.38z" fill="#DD052A"/><path d="M89.133 57.2a64.176 64.176 0 01-5 22.27c-1.77 4.43-3.94 8.68-6.13 12.92-3.27 6.36-6.49 12.74-9.76 19.1a41.715 41.715 0 01-2.26 3.88 22.134 22.134 0 01-9.86 2.34 15.744 15.744 0 01-9.26-3.07 29.108 29.108 0 01-8.22-8.33c-6-9.39-12.71-18.24-18.87-27.49a62 62 0 01-9.06-21 39.691 39.691 0 01.77-21.14 25.744 25.744 0 012.38-5.31 24.761 24.761 0 018.62-2.83 39.326 39.326 0 014.61-.22h6.34c3.31 0 6.62-.09 9.93 0 2.49.09 5 .27 7.48.43 2.69.17 5.38.15 8.08.22a50.582 50.582 0 0112.56 1.56 31.882 31.882 0 017.61 3 18.28 18.28 0 017.39 8.8 34.568 34.568 0 012.65 14.87z" fill="#EF1B34"/><path d="M53.143 109.45c0-2.61.32-6 2.2-5.24 1 .4 1.08 1.7 1 2.75l-.21 5.13a4.306 4.306 0 01-.31 1.75 1.503 1.503 0 01-1.4.92 1.49 1.49 0 01-1.18-1.06 4.46 4.46 0 01-.13-1.67c.06-.42.02-1.43.03-2.58zm19.72-23.27c-.06.18-.13.52-.24.84-.52 1.61-1 3.2-1.56 4.81a2.58 2.58 0 01-.6 1.1 1.4 1.4 0 01-1.59.29 1.36 1.36 0 01-.83-1.38c.023-.266.08-.528.17-.78.54-1.67 1.08-3.35 1.64-5 .086-.292.21-.57.37-.83a1.42 1.42 0 011.62-.58 1.56 1.56 0 011.02 1.53zm-38.63 13.6a1.48 1.48 0 011.25-1.64 1.44 1.44 0 011.68 1.22c.37 1.56.68 3.14 1 4.71.09.41.2.82.25 1.24a1.44 1.44 0 01-1.12 1.73 1.48 1.48 0 01-1.69-1 3.469 3.469 0 01-.17-.55c-.38-1.72-.753-3.44-1.12-5.16a3.891 3.891 0 01-.08-.55zm-18.27-44a1.48 1.48 0 01-1.15 1.53 1.42 1.42 0 01-1.69-1 17.045 17.045 0 01-.42-1.91c-.19-1-.36-2-.51-3a4.82 4.82 0 010-1.14 1.36 1.36 0 011.24-1.3 1.42 1.42 0 011.54.94c.058.142.102.29.13.44.29 1.71.57 3.41.86 5.11-.03.12-.02.23 0 .33zm26.1-7.64v2.18a1.45 1.45 0 01-1.4 1.52 1.42 1.42 0 01-1.5-1.43c-.08-1.57-.08-3.14 0-4.71a1.431 1.431 0 011.47-1.46c.83 0 1.39.61 1.45 1.6v2.3h-.02zm5.69 35.51c-.19 1.2-.38 2.68-.65 4.15a1.453 1.453 0 01-2.183 1.029 1.452 1.452 0 01-.687-1.459c.17-1.48.37-3 .61-4.43a1.449 1.449 0 011.64-1.35c.86.12 1.32.77 1.27 2.06zm29.57-33.45c-.18 1.2-.37 2.68-.65 4.15a1.45 1.45 0 11-2.86-.43c.17-1.48.36-3 .61-4.43a1.45 1.45 0 011.68-1.35c.82.12 1.27.77 1.22 2.06zM24.603 86a1.48 1.48 0 01-1.12 1.45 1.35 1.35 0 01-1.63-.76 11.06 11.06 0 01-.52-1.63c-.26-.88-.52-1.76-.75-2.65a1.49 1.49 0 01.9-1.96 1.43 1.43 0 011.88 1c.45 1.38.8 2.79 1.19 4.19.027.118.044.239.05.36z" fill="#fff"/><path d="M49.993 33.08c-.07.25-.14.55-.24.84-.887 2.7-1.773 5.393-2.66 8.08a2.292 2.292 0 01-.38.84.75.75 0 01-.92.26.78.78 0 01-.5-.82c.024-.23.078-.455.16-.67l2.82-8.64c.045-.146.098-.29.16-.43.21-.41.53-.69 1-.52a.86.86 0 01.56 1.06zm-15.65-5.12c.54 0 .83.12 1 .5a.77.77 0 01-.37 1c-.163.1-.338.18-.52.24a67.98 67.98 0 00-7.82 3.75 2.54 2.54 0 01-.84.37.781.781 0 01-.85-.45.7.7 0 01.13-.85 2.81 2.81 0 01.65-.48 64.989 64.989 0 017.89-3.79l.73-.29zm9.22 3.92a1.16 1.16 0 01-.37.82l-4.78 5.6a2.192 2.192 0 01-.42.38.71.71 0 01-.86 0 .73.73 0 01-.31-.9 1.77 1.77 0 01.35-.59l4.69-5.52a1.42 1.42 0 01.62-.49.789.789 0 011.08.7zm13.28-5.06l5.64.63c.267.02.532.067.79.14a.76.76 0 01.55.79.75.75 0 01-.73.75c-.27.03-.541.03-.81 0-2-.22-3.89-.45-5.84-.69a1.795 1.795 0 01-.45-.09.8.8 0 01.19-1.57h.69l-.03.04zm.48 7.63a.81.81 0 01-1 .85c-.25-.099-.48-.24-.68-.42a148.89 148.89 0 01-3.38-2.77 3.108 3.108 0 01-.66-.78.7.7 0 01.12-.94.67.67 0 01.94-.13c1.51 1.24 3 2.5 4.49 3.76.1.11.13.34.17.43z" fill="#000"/><path d="M50.403 26.12c1.36-.18 2.6-.42 3.86-.5a33.52 33.52 0 0116.53 2.83 5 5 0 01.91.5c.47.35.43.78-.11 1.07-.322.159-.656.29-1 .39a32 32 0 01-11.43 1.84 2.448 2.448 0 00-1 0c0 .3.23.38.39.51a62.146 62.146 0 017.93 7.69c.158.167.287.36.38.57a.39.39 0 01-.46.56 5.308 5.308 0 01-.89-.24 44.997 44.997 0 01-12.92-6 2.813 2.813 0 00-.41-.19c-.11.41-.24.79-.33 1.18a41.584 41.584 0 01-5.93 13.18 8.916 8.916 0 01-.7.92c-.27.31-.53.71-1 .61-.47-.1-.62-.62-.76-1.05a7.679 7.679 0 01-.21-2.29 41.34 41.34 0 011.15-9.14c.29-1.27.68-2.52 1-3.78.07-.29.29-.56.14-.92a5.32 5.32 0 00-1.06 1.24 49.571 49.571 0 01-13.27 12c-.318.213-.652.4-1 .56-.57.23-.91 0-.82-.64.031-.151.078-.299.14-.44a59.41 59.41 0 016.22-12.43c.58-.85 1.24-1.65 1.94-2.58a3.12 3.12 0 00-1.25.49 64.591 64.591 0 01-14.52 4.8 13.872 13.872 0 01-3.22.16c-.31 0-.65 0-.79-.34s.09-.66.34-.91c1.42-1.41 2.84-2.82 4.34-4.14a23.43 23.43 0 0112.6-5.5 23.909 23.909 0 016.09-.34c.65.08.75-.36.93-.79a70.189 70.189 0 014-8.19 41.559 41.559 0 0114-14.41c.71-.47 1.44-.9 2.15-1.35a1.46 1.46 0 011.91.13c.64.55 1.29 1.09 1.89 1.69a.77.77 0 010 1.29 9.423 9.423 0 01-1.25 1 38.5 38.5 0 00-14.23 19.83c-.07.22-.15.44-.21.66-.06.22.01.22-.07.47z" fill="#569315"/><path d="M23.303 73.99a9.61 9.61 0 01-5-3.82 3.32 3.32 0 010-3.89 3.37 3.37 0 012.38-1.47 4.94 4.94 0 012 .11 11.12 11.12 0 015.68 3.25c.375.397.67.862.87 1.37a3.241 3.241 0 01-2.15 4.57 6 6 0 01-3.78-.12zm43.99-7.54a8.87 8.87 0 012.9-.75 3.85 3.85 0 013.89 2 3.78 3.78 0 01-.68 4.42 7.17 7.17 0 01-7.21 2.17c-3-.68-3.75-3.92-1.61-6 .3-.31.635-.582 1-.81.52-.39 1.12-.68 1.71-1.03z" fill="#FF7885"/><path d="M35.663 61.07a4.23 4.23 0 11-8.462-.001 4.23 4.23 0 018.462 0z" fill="#000"/><path d="M31.763 59.78a1.6 1.6 0 11-3.2 0 1.6 1.6 0 013.2 0zm-.62 4.6a1.14 1.14 0 100-2.28 1.14 1.14 0 000 2.28z" fill="#F7F7F7"/><path d="M60.843 65.66a4.23 4.23 0 100-8.46 4.23 4.23 0 000 8.46z" fill="#000"/><path d="M61.173 60.13a1.6 1.6 0 11-1.6-1.59 1.59 1.59 0 011.6 1.59zm-.62 4.61a1.14 1.14 0 100-2.28 1.14 1.14 0 000 2.28z" fill="#F7F7F7"/><path d="M45.093 75.85a13.7 13.7 0 01-7.13-1.75 6.623 6.623 0 01-1.58-1.19 2.58 2.58 0 01-.24-3.46 2.49 2.49 0 011.94-1 2.84 2.84 0 011.53.48l.14.1a8.152 8.152 0 002 1.09c1.083.344 2.214.516 3.35.51a15.562 15.562 0 003.55-.44 13.335 13.335 0 003.06-1.11c.32-.171.655-.315 1-.43.263-.079.536-.12.81-.12a2.52 2.52 0 011.66 4.42c-.367.305-.77.564-1.2.77a19.998 19.998 0 01-8.84 2.08l-.05.05z" fill="#000"/></svg>