<svg fill="none" xmlns="http://www.w3.org/2000/svg" viewBox="0 0 104 118"><path d="M44.973 23.18c0-2 .23-4.12.47-6.2a1.739 1.739 0 012-1.73c.5 0 1 0 1.52.05 1.43.09 2 .59 2.26 2 .35 2.14.65 4.29 1 6.43.08.61.17 1.22.2 1.83a1.66 1.66 0 01-1.23 1.89 18.53 18.53 0 01-3.87 1 2 2 0 01-2.14-1.72 21.344 21.344 0 01-.21-3.55z" fill="#569315"/><path d="M51.143 24.97c.9-6.43 3-12.71 8.39-17.48a27.42 27.42 0 017.35-4.52 83.521 83.521 0 018.05-2.85 1.87 1.87 0 01.52-.12c.47 0 .67.15.61.63a2.38 2.38 0 01-.26.82c-1.6 3.19-3.08 6.45-4.9 9.53a32.852 32.852 0 01-7.69 8.6 40.51 40.51 0 01-9.17 5.87c-.63.27-1.28.49-1.93.7-.84.3-1.05.11-.97-1.18z" fill="#96C11F"/><path d="M63.903 110.8l-1.47.52a17.002 17.002 0 00-7.27 4.73c-1.76 2-3.91 1.77-5.36-.51-.74-1.15-1.46-2.32-2.18-3.49a9.893 9.893 0 00-4.6-4 45.918 45.918 0 00-7.15-2.14 67.216 67.216 0 01-10-3.23 39 39 0 01-22-23.81 56 56 0 01-1.82-30.42 31.61 31.61 0 018.83-16.37 32.469 32.469 0 019.6-6.36 19.998 19.998 0 016.11-1.35c.6-.07 1.21-.12 1.81-.15a26.883 26.883 0 00-3.57 2.95 31.61 31.61 0 00-8.83 16.37 56 56 0 001.87 30.45 39 39 0 0022 23.81 67.25 67.25 0 0010 3.23 45.918 45.918 0 017.15 2.14 9.893 9.893 0 014.6 4c.72 1.17 1.44 2.34 2.18 3.49.031.048.064.095.1.14z" fill="#FF8D8D"/><path d="M98.913 85.18a52.37 52.37 0 01-9 14.61 15.745 15.745 0 01-4.86 3.74l-.8.39a76.566 76.566 0 01-11.37 4.15h-.1c-3 .87-5.94 1.69-8.87 2.7a1.746 1.746 0 01-.12-.17c-.74-1.15-1.46-2.32-2.18-3.49a9.894 9.894 0 00-4.6-4 45.917 45.917 0 00-7.15-2.14 67.247 67.247 0 01-10-3.23 39 39 0 01-22-23.81 56 56 0 01-1.87-30.45 31.61 31.61 0 018.83-16.37 26.88 26.88 0 013.66-2.89A39.228 39.228 0 0143.373 26c1.13.36 2.25.78 3.36 1.25.234.117.489.185.75.2a2.06 2.06 0 00.95-.24 60.907 60.907 0 0117-5 44.248 44.248 0 0118.25 1.13 27.72 27.72 0 018.52 4 19.29 19.29 0 016 7 42.481 42.481 0 014.51 14.63c.573 3.945.881 7.924.92 11.91a58.928 58.928 0 01-4.72 24.3z" fill="#F99"/><path d="M54.643 22.73a.749.749 0 01-.74-1 1.53 1.53 0 01.41-.62c3.81-4.21 7.6-8.43 11.43-12.61 1.51-1.65 3.12-3.22 4.69-4.82.229-.28.511-.51.83-.68a.75.75 0 01.89.18.7.7 0 01.05.9 3.85 3.85 0 01-.5.57c-3.82 3.69-7.35 7.67-10.87 11.64-1.73 2-3.5 3.85-5.25 5.78a1.69 1.69 0 01-.94.66zm38.84 22.72c-.92-8.9-7.2-16-16.15-17.4-2.52-.39-3.6 3.46-1.06 3.86 7.06 1.1 12.47 6.31 13.21 13.54.26 2.51 4.27 2.54 4 0zm2.43 10.24c-.79-2.44-4.66-1.4-3.86 1.06a22.28 22.28 0 01.22 13.54c-.73 2.48 3.13 3.53 3.86 1.07a26.179 26.179 0 00-.22-15.67z" fill="#fff"/><path d="M31.663 63.8c2.67.14 5 1 6.61 3.29a4.28 4.28 0 01-2.39 6.67 7.55 7.55 0 01-6.36-.93 10.783 10.783 0 01-2.35-1.85 4.002 4.002 0 011.21-6.46 6.34 6.34 0 013.28-.72zm39.3 10.49a5.2 5.2 0 01-4.58-2.39 3.67 3.67 0 01.5-4.88 9.67 9.67 0 018.27-2.6c3.36.53 4.29 4.71 2.31 6.94a8.43 8.43 0 01-6.5 2.93z" fill="#FF556E"/><path d="M51.483 70.68a13.64 13.64 0 01-7.14-1.74 7.177 7.177 0 01-1.58-1.2 2.57 2.57 0 01-.23-3.45 2.43 2.43 0 011.94-1 2.7 2.7 0 011.52.48l.15.1a8.2 8.2 0 002 1.08 10.65 10.65 0 003.36.52 15.995 15.995 0 003.54-.44 13.466 13.466 0 003.06-1.11c.32-.174.654-.318 1-.43a2.85 2.85 0 01.82-.13 2.47 2.47 0 012.16 1.25 2.51 2.51 0 01-.5 3.17c-.367.31-.774.568-1.21.77a20 20 0 01-8.84 2.08l-.05.05zm-13.88-8.25a4.27 4.27 0 100-8.54 4.27 4.27 0 000 8.54z" fill="#000"/><path d="M37.943 56.85a1.621 1.621 0 11-1.61-1.61 1.61 1.61 0 011.61 1.61zm.54 3.5a1.16 1.16 0 11-2.319.02 1.16 1.16 0 012.319-.02z" fill="#F7F7F7"/><path d="M66.313 61.77a4.27 4.27 0 100-8.54 4.27 4.27 0 000 8.54z" fill="#000"/><path d="M66.653 56.2a1.62 1.62 0 11-1.62-1.62 1.612 1.612 0 011.62 1.62zm-.63 4.65a1.15 1.15 0 100-2.3 1.15 1.15 0 000 2.3z" fill="#F7F7F7"/></svg>