<svg fill="none" xmlns="http://www.w3.org/2000/svg" viewBox="0 0 122 123"><path d="M74.533 29.733a70.502 70.502 0 01-7.94 1.6c-1.74.29-3.47.67-5.2 1-.94.18-1.22 0-1.23-1 0-2.07.34-4.12.5-6.17a28.223 28.223 0 011.48-6.91 34.534 34.534 0 011.71-4.08 15.68 15.68 0 017.16-7.12c1.58-.81 3.23-1.45 4.86-2.14a26.12 26.12 0 007.08-4.24c.36-.31.75-.95 1.29-.54.54.41.07.9-.07 1.33a13.652 13.652 0 00-.49 5 70.26 70.26 0 01.05 7.95 19.93 19.93 0 01-4.5 11.89 9.83 9.83 0 01-4.7 3.43z" fill="#569315"/><path d="M82.133 4.063c.017.123.017.247 0 .37a1.3 1.3 0 01-.25.48c-3.11 3.77-5.28 8.17-8.11 12.13-2.57 3.6-5.31 7.08-8.18 10.45-.377.401-.8.757-1.26 1.06a.62.62 0 01-.88-.81c.345-.566.732-1.104 1.16-1.61a117.007 117.007 0 0010-13.23c1.21-1.89 2.36-3.82 3.6-5.7.69-1 1.48-2 2.23-3a2.36 2.36 0 01.53-.56.8.8 0 011.16.42z" fill="#fff"/><path d="M61.773 28.173v.44c.16 2-.82 3.06-2.83 3.08a1.86 1.86 0 01-1.88-1.28c-.33-.9-.6-1.82-.87-2.74-1.44-4.88-2.54-9.85-3.83-14.77-.12-.46-.2-.93-.28-1.41a2.07 2.07 0 011.5-2.43c.42-.14.85-.24 1.28-.35a1.84 1.84 0 012.43 1.12 26.505 26.505 0 011.35 3.74 95.376 95.376 0 013 13c.08.51.11 1 .17 1.54l-.04.06z" fill="#4C820D"/><path d="M101.653 115.353a25.476 25.476 0 01-8.23 4.69 38.339 38.339 0 01-10 2.29 29.138 29.138 0 01-12.5-1.82 52.684 52.684 0 01-7.32-3.38 16.432 16.432 0 00-3.74-1.64 7.714 7.714 0 00-4.26.11 38.84 38.84 0 00-3.92 1.46 30.246 30.246 0 01-19.81 1.5 43.005 43.005 0 01-14-5.86 34.644 34.644 0 01-11.39-12.74 54.74 54.74 0 01-6.48-25.72 50.56 50.56 0 014.58-21.58 70.158 70.158 0 016.74-12.06 41.302 41.302 0 0118.16-14.17 23.064 23.064 0 015.85-1.57 40.731 40.731 0 00-9.16 9.2 71.567 71.567 0 00-6.75 12.06 50.56 50.56 0 00-4.57 21.59 54.51 54.51 0 006.48 25.7 34.392 34.392 0 0011.38 12.75 42.99 42.99 0 0014 5.87 30.207 30.207 0 0019.82-1.51 38.797 38.797 0 013.95-1.46 7.455 7.455 0 014.24-.09c1.31.38 2.567.924 3.74 1.62a55.193 55.193 0 007.32 3.39 29.65 29.65 0 0012.5 1.83 27.136 27.136 0 003.37-.46z" fill="#92AF1B"/><path d="M115.823 95.063a77.733 77.733 0 01-7.42 12.31c-1.12 1.61-2.3 3.16-3.53 4.69a23.56 23.56 0 01-3.22 3.32 27.097 27.097 0 01-3.38.46 29.65 29.65 0 01-12.5-1.83 55.199 55.199 0 01-7.32-3.39 16.147 16.147 0 00-3.74-1.62 7.463 7.463 0 00-4.23.06 38.903 38.903 0 00-3.94 1.47 30.207 30.207 0 01-19.83 1.53 42.99 42.99 0 01-14-5.87 34.392 34.392 0 01-11.38-12.75 54.51 54.51 0 01-6.48-25.7 50.56 50.56 0 014.57-21.59 71.576 71.576 0 016.75-12.09 40.73 40.73 0 019.18-9.21 32.472 32.472 0 015.76-.26c5.878.2 11.644 1.66 16.91 4.28.6.3 1.21.56 1.8.86a9.74 9.74 0 007.61.48c3.24-1 6.42-2.21 9.67-3.16 10.31-3 19.88-1.29 28.6 4.87a35.509 35.509 0 019.68 11.14 39.265 39.265 0 015.32 14.32 75.74 75.74 0 01.81 8.37 64.84 64.84 0 01-5.69 29.31z" fill="#B0D333"/><path d="M107.293 88.523a1.5 1.5 0 01-.14-1.66c.32-.71.67-1.4.94-2.13a38.4 38.4 0 001.85-20.47c-.36-2-.82-4-1.3-6.06a3.994 3.994 0 01-.15-.75 1.334 1.334 0 011-1.42 1.349 1.349 0 011.59.68c.135.263.236.542.3.83a60.197 60.197 0 012 11.77 39.86 39.86 0 01-3.33 18.12 3.002 3.002 0 01-.75 1.21 1.35 1.35 0 01-2.01-.12zm-8.81-53.46a38.99 38.99 0 017.72 10.16c.207.39.394.79.56 1.2.35.93.13 1.66-.59 2a1.397 1.397 0 01-1.703-.31 1.405 1.405 0 01-.297-.54 32.594 32.594 0 00-2.54-4.4 34.311 34.311 0 00-6.91-7.57 7.541 7.541 0 01-.67-.58 1.36 1.36 0 01-.15-1.9 1.33 1.33 0 011.88-.24 26.669 26.669 0 012.7 2.18z" fill="#fff"/><path d="M28.983 63.463c3.15.17 5.91 1.15 7.78 3.88a5 5 0 01-2.81 7.85 8.83 8.83 0 01-7.47-1.13 12.874 12.874 0 01-2.76-2.18 4.711 4.711 0 011.43-7.61 7.56 7.56 0 013.83-.81zm60.5 11.69a6.09 6.09 0 01-5.4-2.81 4.34 4.34 0 01.58-5.75 11.38 11.38 0 019.74-3.06c4 .62 5.06 5.55 2.73 8.17a9.88 9.88 0 01-7.65 3.45z" fill="#FF556E"/><path d="M59.883 71.743a16.21 16.21 0 01-8.4-2.05 7.998 7.998 0 01-1.86-1.41 3 3 0 01-.28-4.07 2.86 2.86 0 012.28-1.12 3.192 3.192 0 011.8.57l.17.11a9.625 9.625 0 002.34 1.28c1.291.418 2.642.624 4 .61a18.487 18.487 0 004.18-.52 15.83 15.83 0 003.6-1.31c.376-.2.768-.37 1.17-.51a3.48 3.48 0 011-.14 2.92 2.92 0 012.55 1.46 3 3 0 01-.6 3.74 6.84 6.84 0 01-1.41.91 23.609 23.609 0 01-10.42 2.45h-.12zm-19.23-7.38a5.04 5.04 0 100-10.08 5.04 5.04 0 000 10.08z" fill="#000"/><path d="M41.053 57.783a1.9 1.9 0 11-1.9-1.9 1.91 1.91 0 011.9 1.9zm.62 4.13a1.36 1.36 0 11-2.72 0 1.36 1.36 0 012.72 0z" fill="#F7F7F7"/><path d="M85.483 58.393a5 5 0 11-10 0 5 5 0 0110 0z" fill="#000"/><path d="M80.883 56.853a1.91 1.91 0 11-3.82 0 1.91 1.91 0 013.82 0zm.6 4.12a1.36 1.36 0 11-2.719 0 1.36 1.36 0 012.719 0z" fill="#F7F7F7"/></svg>