<svg fill="none" xmlns="http://www.w3.org/2000/svg" viewBox="0 0 105 173"><path d="M33.543 39.67l-6.46-2c-6.79-2.07-13.51-4.3-20.1-7-.71-.29-1.4-.63-2.11-1-.33-.16-.66-.37-.62-.79.04-.42.41-.58.76-.68a13.233 13.233 0 013.36-.53c9.61-.22 18.05 1.87 26.87 5.67a4.728 4.728 0 001.67.57l-1.36-1.32c-4.27-4-8.47-8-12.52-12.22-1-1-1.93-2.1-2.84-3.21a4.931 4.931 0 01-.45-.6c-.16-.24-.45-.52-.24-.87.21-.35.52-.4 1-.35.484.032.965.095 1.44.19a39.16 39.16 0 0113.54 6.19 66.69 66.69 0 015.57 4.39c.27.23.64.53.94.75.24-1.58.25-3.28.38-4.86a175.144 175.144 0 012.3-18.75 12.9 12.9 0 01.57-2.14c.24-.65.7-.59 1.06-.09.171.28.315.574.43.88a120.012 120.012 0 016.62 19.64c.43 1.67.8 3.34 1.22 5 .07.27.1.67.39.73.29.06.4-.21.6-.34a83.138 83.138 0 0123.42-10.18 19.666 19.666 0 012.3-.37c.37-.05.75-.06 1 .32a1 1 0 01-.19 1.12c-.25.34-.49.66-.76 1-1.07 1.25-2.22 2.4-3.38 3.56-2.92 2.88-5.81 5.76-8.73 8.67a4 4 0 00-.83 1c.42.105.86.105 1.28 0a70.47 70.47 0 0118.4.7c.45.048.89.16 1.31.33a.65.65 0 01.13 1.14c-.427.318-.9.57-1.4.75-2.91 1.18-5.82 2-8.83 3l-4.35 1.35c.656.281 1.35.463 2.06.54a82.509 82.509 0 0116.71 5.39 22.567 22.567 0 013.78 2.2c.238.162.465.339.68.53.24.2.5.49.35.83-.15.34-.47.4-.81.43-1.18.08-2.36.13-3.54.21-5.17.36-10.3 1-15.43 1.77-.406.043-.81.107-1.21.19-2.22.56-4-.08-5.93-1.09a38.522 38.522 0 00-11.63-4.06 46.468 46.468 0 00-11.18-.29 39.005 39.005 0 00-7.88 1.36 10.11 10.11 0 00-2.07.81 3.46 3.46 0 01-2.05.47 109.001 109.001 0 00-16.37-.31 109.352 109.352 0 00-16.6 2.69c-.42.1-.88.22-1.31.28-.89.1-1.24-.43-1.05-1.21a4.16 4.16 0 011.07-1.9 14.92 14.92 0 014.32-3.3 44.82 44.82 0 0113.63-4c4.35-.6 8.72-.79 13.07-1.19z" fill="#569315"/><path d="M50.483 37.38c0 .7-.19 1.06-.76 1.16-.57.1-.88-.31-1-.84-.22-1.41-.39-2.84-.58-4.26-.76-6-1.49-11.94-2-18a2 2 0 010-1 .8.8 0 01.7-.59.76.76 0 01.85.51c.117.353.188.72.21 1.09.58 6.47 1.42 13 2.24 19.38.18.93.34 1.86.34 2.55zm-28.29-5.77c.625.132 1.24.31 1.84.53 5 1.58 10 3 15.14 4.36 1.25.32 2.48.72 3.74 1.11.21.044.412.118.6.22a.9.9 0 01.55 1 1 1 0 01-1.17.59l-.36-.09a1275.026 1275.026 0 01-17.37-4.95c-1-.31-2.07-.67-3.11-1l-.34-.13c-.42-.22-.74-.57-.58-1.05a.86.86 0 011.06-.59zm3.62 13.07c-3.08.05-6 .14-9 .19a3.494 3.494 0 01-.95-.08.83.83 0 01-.512-1.272.82.82 0 01.412-.318c.304-.11.628-.155.95-.13 6.16-.06 12.29-.12 18.46-.16.29-.026.58.001.86.08a.83.83 0 01.58.81.89.89 0 01-.62.8c-.242.063-.49.09-.74.08-3.14.06-6.37-.05-9.44 0zm5.13-22.23c.334.047.637.219.85.48 3.82 3.74 7.8 7.27 11.64 11 .336.308.647.642.93 1a.85.85 0 01-1.06 1.27 2.68 2.68 0 01-.68-.53 2802.117 2802.117 0 01-11.28-10.62c-.378-.36-.732-.745-1.06-1.15a.86.86 0 01.66-1.39v-.06zm29.27 17.65a.92.92 0 01-1-.65c-.16-.45.23-.82.5-1a2.51 2.51 0 01.6-.22c5-1.58 10-3 15.15-4.33.28-.094.567-.158.86-.19a.93.93 0 011 .59.9.9 0 01-.54 1c-.194.094-.4.164-.61.21-5.09 1.33-10.15 2.76-15.13 4.3a3.994 3.994 0 01-.83.29zm-2.23-6.75a1 1 0 01-1.12-.4.73.73 0 01.1-.9 2.12 2.12 0 01.56-.49c3.4-2.39 6.77-4.76 10.18-7.14.332-.244.69-.449 1.07-.61a.82.82 0 011 .33.89.89 0 01-.16 1.07 1.78 1.78 0 01-.42.32c-3.4 2.4-6.91 4.83-10.25 7.18a4.491 4.491 0 01-.96.64zm17.07 12.55c-.41 0-.69.08-.91.09-.63 0-1.25-.1-1.28-.79-.03-.69.52-.88 1.18-1 .66-.12 1.45-.15 2.18-.21 2.91-.25 5.86-.49 8.78-.72.163-.02.327-.02.49 0 .49.08.84.29.9.81a.87.87 0 01-.79.91c-.95.15-2.29.24-3.16.31-2 .17-5.79.45-7.18.56-.95.09-.19.04-.21.04z" fill="#fff"/><path d="M93.483 161.78a34.67 34.67 0 01-4 3.59 23.843 23.843 0 01-3.77 2.29c-.946.471-1.922.882-2.92 1.23a36.585 36.585 0 01-4.68 1.36 85.487 85.487 0 01-14.46 1.79c-1.84.09-3.56.09-5.49.08-1.93-.01-4-.1-6.07-.19-6.19-.27-12.47-.77-18.65-1.46-1.63-.19-3.25-.42-4.88-.67-1.1-.16-2.22-.36-3.31-.57-1.48-.3-3-.58-4.45-1a41.217 41.217 0 01-7-2.62 20.41 20.41 0 01-7.62-6.85 22.179 22.179 0 01-2.24-4.1c-.56-1.37-1-2.47-1.42-3.84a46.05 46.05 0 01-1.78-8.52 123.328 123.328 0 01-.48-18.13c.18-5.37.69-10.64 1.33-15.88.35-2.76.76-5.41 1.21-8.06.66-3.79 1.35-7.52 2.13-11.22a85.372 85.372 0 013.65-13.09 80.867 80.867 0 013.71-8.07c.54-1.06 1.15-2 1.74-3.07.21-.34.4-.69.63-1a44.63 44.63 0 0110.29-10.9 60.994 60.994 0 018.83-5.43 43.795 43.795 0 00-8 9c-.23.34-.43.68-.63 1-.59 1-1.2 2-1.74 3.06a80.758 80.758 0 00-3.72 8.07 87.995 87.995 0 00-3.64 13.09c-.79 3.7-1.47 7.44-2.13 11.23-.45 2.64-.86 5.3-1.21 8.05-.64 5.25-1.15 10.51-1.33 15.88a124.727 124.727 0 00.47 18.13c.331 2.893.93 5.748 1.79 8.53.412 1.3.89 2.578 1.43 3.83a20.826 20.826 0 002.23 4.11 20.38 20.38 0 007.62 6.84 39.555 39.555 0 006.95 2.62c1.46.41 3 .69 4.45 1 1.09.21 2.21.41 3.31.58 1.63.25 3.25.47 4.87.65 6.19.7 12.47 1.19 18.67 1.48 2 .09 4.13.17 6.06.18 1.93.01 3.66 0 5.49-.07a85.4 85.4 0 0014.46-1.8 34.488 34.488 0 004.3-1.13z" fill="#EFC206"/><path d="M104.113 118.97c.065 5.17-.175 10.339-.72 15.48a99.162 99.162 0 01-2.28 13.29c-.08.35-.17.69-.28 1-.26.975-.571 1.937-.93 2.88a32.199 32.199 0 01-6.42 10.16 34.512 34.512 0 01-4.29 1.22 85.395 85.395 0 01-14.46 1.8c-1.83.09-3.56.09-5.49.07-1.93-.02-4-.09-6.06-.18-6.2-.29-12.48-.78-18.67-1.48-1.62-.18-3.24-.4-4.87-.65-1.1-.17-2.22-.37-3.31-.58-1.48-.29-3-.57-4.45-1a39.552 39.552 0 01-6.95-2.62 20.38 20.38 0 01-7.62-6.84 20.821 20.821 0 01-2.23-4.11 40.64 40.64 0 01-1.43-3.83 46.99 46.99 0 01-1.79-8.53 124.713 124.713 0 01-.47-18.13c.18-5.37.69-10.63 1.33-15.88.35-2.75.76-5.41 1.21-8.05.66-3.79 1.34-7.53 2.13-11.23a88.001 88.001 0 013.64-13.09 80.744 80.744 0 013.72-8.07c.54-1.06 1.15-2 1.74-3.06.2-.35.4-.69.63-1a43.8 43.8 0 018-9l.36-.2c1-.5 1.91-.93 2.88-1.37 1.75-.76 3.49-1.53 5.3-2.18a31.219 31.219 0 019.91-1.75h1.71c1.94.12 3.94.28 5.84.56a40.73 40.73 0 015.55 1.18 35.552 35.552 0 0110 4.85c.84.588 1.645 1.226 2.41 1.91.29.25.57.49.85.76a77.873 77.873 0 0113.88 18.22c.53.93 1 1.85 1.45 2.87.45 1.02 1 2.11 1.5 3.22a108.25 108.25 0 016.23 20c.832 4.245 1.44 8.531 1.82 12.84.28 2.85.42 5.7.56 8.56.03.64.06 1.3.07 1.96z" fill="#FCD528"/><path d="M92.483 130.6c3.85-4.5 7.76-9 11.5-13.58-.12-2.86-.31-5.71-.55-8.56l-.76-1.15c-4.6-7-9.29-14-13.77-21-.55-.87-.51-.92 0-1.73 1.2-1.76 2.59-3.58 3.85-5.36.84-1.2 1.75-2.39 2.61-3.58-.48-1.09-1-2.17-1.51-3.24-2.23 3.06-4.49 6.13-6.69 9.19-.2.29-.43.79-.77.73-.34-.06-.39-.46-.57-.73-4.82-7.25-9.73-14.6-14.58-21.83-.58-.87-.52-.94.16-1.79 2-2.41 4.2-5 6.26-7.4a31.68 31.68 0 00-2.41-1.92c-1.91 2.23-3.83 4.48-5.75 6.7-.2.23-.38.63-.69.59-.31-.04-.4-.39-.56-.62-2.48-3.61-4.91-7.25-7.35-10.89-.4-.59-.8-1.2-1.19-1.8-1.95-.27-3.9-.45-5.86-.56-.57 0-1.13-.05-1.7-.05-3.3 3.78-6.58 7.61-9.88 11.36-.13.15-.29.44-.44.39-.37-.14-.57-.67-.8-1-1.19-1.88-2.35-3.8-3.49-5.73l-.61-1c-1 .43-1.93.88-2.87 1.37 1.57 2.72 3.33 5.51 4.9 8.17.61 1 .66 1-.15 1.92-5.11 6-10.4 12.23-15.51 18.34-.24.28-.45.73-.81.72-.36-.01-.44-.42-.63-.67a831.38 831.38 0 01-7.85-11c-.61 1-1.19 2-1.75 3.06 2 2.87 4.11 5.73 6.16 8.59.54.77 1.07 1.54 1.64 2.28a.71.71 0 010 .95c-.23.26-.35.39-.51.59-4.64 5.68-9.23 11.32-13.7 17.14-.83 1.08-1.7 2.24-2.52 3.34a1.281 1.281 0 01-.57-.51c-.45 2.67-.85 5.36-1.2 8.05.16-.23.35-.45.52-.68.17-.23.42-.66.67-.72.25-.06.3.14.39.27 4.25 6.8 8.24 13.73 12.71 20.38a1.19 1.19 0 01-.06 1.43c-.27.41-.42.66-.62 1-4.27 7-8.5 13.91-12.7 20.9.43 1.28.91 2.55 1.42 3.8 4.54-7.56 9.1-15.107 13.68-22.64.16-.26.34-.66.6-.7.26-.04.33.22.45.38a232.241 232.241 0 0017 20.53c.51.56.42.91 0 1.49-2.18 3.24-4.38 6.54-6.57 9.78-1.3 1.93-2.62 3.81-3.92 5.74 1.1.2 2.21.4 3.31.58 3.16-4.56 6.3-9.14 9.36-13.75.16-.24.31-.61.59-.63.28-.02.46.31.64.51 4.29 4.71 8.77 9.5 13.07 14.11.87.93.55.85 0 1.71 0 .06-.1.11-.14.17 2 .09 4.05.16 6.08.2-.24-.31-.38-.43-.65-.77a.725.725 0 01-.188-.853.725.725 0 01.188-.247 6.6 6.6 0 00.47-.56c4.33-5 8.7-9.93 13.15-14.79.24-.26.47-.73.84-.63.37.1.41.47.61.73 3.37 4.6 6.74 9.28 10.15 13.88 1-.36 2-.77 2.91-1.22-3.68-5-7.42-10.15-11-15.21-.61-.86-.62-.8.12-1.65 4.44-5.09 9.11-10.39 13.6-15.5.24-.28.48-.75.79-.69.31.06.5.59.72.94 3.32 5.32 6.64 10.73 9.95 16.09.35-.95.66-1.9.94-2.88l.27-1c-1.79-2.92-3.61-5.84-5.37-8.76-1.26-2.09-2.6-4.19-3.84-6.24-.47-.79-.37-.89.14-1.58.33-.31.52-.51.64-.7zm-24-69.07a2 2 0 01.85.92c4.85 7.25 9.81 14.49 14.5 21.76.7 1.09.79.9-.05 2.06-3.38 4.7-7.06 9.69-10.57 14.44-.16.21-.29.63-.61.55-.32-.08-.51-.57-.72-.9-4.7-7.51-9.8-15.1-14.63-22.42-.92-1.4-.91-1.11.08-2.43 3.12-4.12 6.59-8.41 9.91-12.5.44-.5.87-1 1.24-1.48zm1.68 43.33c-.9 1.19-1.76 2.36-2.67 3.57-3.87 5.19-7.74 10.47-11.51 15.71-.14.19-.29.52-.45.52-.34 0-.51-.43-.68-.69-5-7.75-9.83-15.66-15.15-23.15-.58-.82-.54-.9.07-1.74 4.49-6.23 9.18-12.56 13.79-18.76.21-.28.42-.71.75-.72.33-.01.47.41.65.67a883.565 883.565 0 0115 23 4.6 4.6 0 00.25.42.86.86 0 01-.01 1.17h-.04zm-26.1-48.76c3.79-4.37 7.66-8.8 11.49-13.2.12-.11.255-.204.4-.28 1.93 2.89 3.88 5.78 5.82 8.66 1.5 2.24 3 4.44 4.5 6.66a1 1 0 010 1.37c-3.83 4.63-7.63 9.4-11.33 14.14-.08.1-.16.25-.27.25-.35 0-.49-.38-.66-.64-3.35-5.19-6.68-10.34-10-15.58a1 1 0 01.09-1.38h-.04zm-19 22.48c5.28-6.3 10.63-12.63 16-18.91.08-.09.29-.26.39-.35.29.44.62 1 .9 1.41 3.12 4.95 6.39 9.93 9.5 14.81.64 1 .65 1-.07 2-4.6 6.1-9.23 12.4-13.73 18.63-.23.33-.5.64-.75 1a1.94 1.94 0 01-.8-.78c-3.85-5.44-7.62-10.88-11.46-16.31a.998.998 0 01.02-1.5zm-6.58 46.2a2.05 2.05 0 01-.8-.9c-4.18-6.4-8.17-12.87-12.17-19.37a1.12 1.12 0 01.06-1.48c5.35-7.08 10.94-14 16.61-20.91a1.68 1.68 0 01.24-.17c.52.73 1.08 1.48 1.58 2.21 3.47 5.06 7.05 10.17 10.5 15.17.6.86.63.86 0 1.74-5.24 7.53-10.55 15.21-15.54 23-.1.22-.31.49-.48.71zm20 24.82c-.05.06 0 .16-.22.16s-.44-.3-.62-.51c-5.56-6.45-11.28-13-16.14-19.88-1.26-1.8-1.17-1.41.07-3.4 4.48-7.16 9.64-14.65 14.59-21.69a6.65 6.65 0 01.94-1.21c.254.157.467.373.62.63 5.37 7.59 10.17 15.45 15.24 23.26a1.17 1.17 0 010 1.57c-4.84 6.92-9.72 14.03-14.48 21.07zm31 2.52c-4.69 5.28-9.42 10.58-14 15.92-.07.09-.17.22-.28.22-.34 0-.53-.32-.73-.55-4.36-4.8-8.92-9.64-13.18-14.43-.86-1-.86-.84-.14-1.91 4.44-6.68 9.18-13.41 13.77-20.1a1.47 1.47 0 01.59-.57c1 1.41 1.94 2.87 2.9 4.27 3.59 5.23 7.4 10.55 11.06 15.61.51.87.55.87.01 1.54zm17.39-19.75c-1.25 1.44-2.56 3-3.86 4.43-3.32 3.75-6.69 7.56-10 11.33-.23.27-.46.76-.82.69-.36-.07-.6-.58-.86-.94-4.61-6.31-9-12.79-13.41-19.31a1.24 1.24 0 010-1.65c4.51-6.3 9.18-12.67 13.85-18.88.17-.22.33-.54.53-.61.2-.07.46.31.6.53 4.6 7.56 9.19 15.1 13.95 22.54.048.063.092.13.13.2.39.8.5.93-.16 1.67h.05zm2.84-3.26c-.64-1-1.37-2.12-2-3.12-4.23-6.77-8.51-13.67-12.56-20.43-.74-1.24-.72-1 .1-2.17 3.35-4.65 7-9.49 10.36-14.16.192-.318.428-.607.7-.86.22-.17.37.12.45.24 5.19 7.89 10.33 15.79 15.51 23.69l.2.3c.45.59.34 1-.12 1.59-3.39 4.21-6.92 8.28-10.47 12.4-.73.8-1.52 1.7-2.22 2.52h.05z" fill="#fff"/><path d="M53.483 109.34c-1.23-.08-4.67-.95-6.19-2.52a19.3 19.3 0 01-4.1-5.71 2.729 2.729 0 01.13-2.65 2.309 2.309 0 011.93-1 2.49 2.49 0 012 .95c.204.267.372.56.5.87.06.103.113.21.16.32a9.896 9.896 0 003.88 4.19 4.22 4.22 0 002.38.59 4.999 4.999 0 003-1.08 8.937 8.937 0 002.63-3.53c0-.09.07-.18.14-.35.092-.253.199-.5.32-.74a2.58 2.58 0 012.16-1.41c.31-.022.621.04.9.18a2.55 2.55 0 011.48 2.92.917.917 0 01-.06.25c-1.82 4.32-4.22 7.15-8.73 8.58a8.41 8.41 0 01-2 .21h-.24l-.29-.07z" fill="#000"/><path d="M37.483 105.6a7.049 7.049 0 01-6.35 6.38 6.883 6.883 0 01-6.07-1.67c-2.88-2.8-1.77-6.48 1.7-8.24a9.909 9.909 0 018.4-.08 3.338 3.338 0 012.32 3.61zm37.77 5.26a6.771 6.771 0 01-4.44-1.72 3.613 3.613 0 01-.61-5.08 7.743 7.743 0 019.84-2.36 4.42 4.42 0 012.44 4.35 4.89 4.89 0 01-2.84 4.05 7.93 7.93 0 01-4.39.76z" fill="#FF556E"/><path d="M38.393 93.36a5.41 5.41 0 01-5.39 5.26 4.79 4.79 0 01-5-5.12 5.34 5.34 0 015.36-5.23 4.86 4.86 0 015.03 5.09z" fill="#000"/><path d="M33.633 91.79a2 2 0 01-2 2 1.81 1.81 0 01-1.9-1.93 2 2 0 012-2 1.84 1.84 0 011.9 1.93zm.53 4.3a1.5 1.5 0 01-1.47 1.45 1.288 1.288 0 01-1.36-1.39 1.5 1.5 0 011.47-1.45 1.29 1.29 0 011.36 1.39z" fill="#F7F7F7"/><path d="M79.803 93.34a5.09 5.09 0 11-4.87-5.36 5.002 5.002 0 014.87 5.36z" fill="#000"/><path d="M75.173 91.55a1.91 1.91 0 11-1.83-2 1.901 1.901 0 011.83 2zm.48 4.33a1.37 1.37 0 11-2.736-.163 1.37 1.37 0 012.736.163z" fill="#F7F7F7"/></svg>