<svg width="19" height="19" viewBox="0 0 19 19" fill="none" xmlns="http://www.w3.org/2000/svg">
<path d="M15.2722 7.32235C15.2722 7.56746 15.2722 7.81256 15.2722 8.05767C15.2722 8.64666 15.2722 9.23564 15.2722 9.82463C15.2722 10.538 15.2722 11.2495 15.2722 11.9629C15.2722 12.5793 15.2722 13.1957 15.2722 13.8122C15.2722 14.1103 15.2648 14.4103 15.2722 14.7085C15.2722 14.7121 15.2722 14.7176 15.2722 14.7213C15.5154 14.478 15.7605 14.2329 16.0038 13.9896C15.8849 13.9896 15.7679 13.9896 15.649 13.9896C15.3289 13.9896 15.0088 13.9896 14.6887 13.9896C14.2167 13.9896 13.743 13.9896 13.2711 13.9896C12.6912 13.9896 12.1132 13.9896 11.5334 13.9896C10.9023 13.9896 10.2694 13.9896 9.63838 13.9896C8.99818 13.9896 8.35798 13.9896 7.71595 13.9896C7.12147 13.9896 6.527 13.9896 5.93253 13.9896C5.42951 13.9896 4.92649 13.9896 4.42531 13.9896C4.06131 13.9896 3.69914 13.9896 3.33514 13.9896C3.1632 13.9896 2.99126 13.9859 2.82114 13.9896C2.81383 13.9896 2.80651 13.9896 2.79919 13.9896C3.04247 14.2329 3.28758 14.478 3.53085 14.7213C3.53085 14.4505 3.53085 14.1798 3.53085 13.9091C3.53085 13.2689 3.53085 12.6287 3.53085 11.9885C3.53085 11.2349 3.53085 10.4813 3.53085 9.72768C3.53085 9.12589 3.53085 8.5241 3.53085 7.92231C3.53085 7.5638 3.52171 7.20346 3.54732 6.84494C3.55646 6.71508 3.5711 6.58338 3.58756 6.45534C3.57841 6.51936 3.56927 6.58521 3.56195 6.64923C3.6406 6.06756 3.79425 5.50052 4.0229 4.95909C3.99912 5.01763 3.97351 5.07616 3.94973 5.13469C4.17106 4.61338 4.45823 4.12317 4.80394 3.67503C4.76553 3.72442 4.72712 3.7738 4.6887 3.82319C5.03807 3.37139 5.44414 2.96715 5.89594 2.61595C5.84656 2.65437 5.79717 2.69278 5.74778 2.73119C6.19592 2.38548 6.68614 2.0983 7.20744 1.87698C7.14891 1.90076 7.09038 1.92636 7.03184 1.95014C7.57144 1.7215 8.14031 1.56785 8.72198 1.4892C8.65796 1.49834 8.59211 1.50749 8.52809 1.51481C9.10244 1.43981 9.68594 1.43981 10.2603 1.51481C10.1963 1.50566 10.1304 1.49651 10.0664 1.4892C10.6462 1.56785 11.2114 1.7215 11.7492 1.94649C11.6907 1.92271 11.6322 1.8971 11.5736 1.87332C12.1004 2.09648 12.5961 2.38548 13.0497 2.73485C13.0004 2.69644 12.951 2.65802 12.9016 2.61961C13.3497 2.96715 13.754 3.36956 14.1015 3.8177C14.0631 3.76832 14.0247 3.71893 13.9863 3.66954C14.3411 4.13049 14.6356 4.63168 14.8624 5.16762C14.8386 5.10908 14.813 5.05055 14.7893 4.99202C15.0106 5.52064 15.1624 6.0767 15.2392 6.64557C15.2301 6.58155 15.2209 6.5157 15.2136 6.45168C15.252 6.74251 15.2722 7.03152 15.2722 7.32235C15.2722 7.70464 15.6087 8.0723 16.0038 8.05401C16.3989 8.03572 16.7373 7.73208 16.7355 7.32235C16.7318 5.89013 16.302 4.45242 15.4935 3.26713C14.7051 2.10928 13.6076 1.16361 12.3126 0.613036C11.9596 0.463046 11.6047 0.329518 11.2334 0.234402C10.8566 0.137457 10.4706 0.0752664 10.0829 0.0350251C9.41157 -0.0363117 8.73661 0.00575875 8.07263 0.120995C7.46169 0.227086 6.87637 0.428292 6.31299 0.684373C5.76059 0.934966 5.2594 1.26604 4.78565 1.64468C4.3119 2.02148 3.90766 2.46048 3.54 2.93971C3.20344 3.37871 2.91809 3.85795 2.70042 4.36645C2.45349 4.93897 2.26325 5.52247 2.16814 6.14072C2.10595 6.54862 2.06754 6.95652 2.06754 7.36991C2.06754 7.79976 2.06754 8.22961 2.06754 8.65946C2.06754 9.43319 2.06754 10.2051 2.06754 10.9788C2.06754 11.7562 2.06754 12.5318 2.06754 13.3092C2.06754 13.761 2.06754 14.2109 2.06754 14.6627C2.06754 14.6847 2.06754 14.7048 2.06754 14.7267C2.06754 15.1218 2.40227 15.4584 2.79919 15.4584C2.91809 15.4584 3.03515 15.4584 3.15405 15.4584C3.47415 15.4584 3.79425 15.4584 4.11435 15.4584C4.58627 15.4584 5.06002 15.4584 5.53194 15.4584C6.11178 15.4584 6.68979 15.4584 7.26963 15.4584C7.90069 15.4584 8.53358 15.4584 9.16463 15.4584C9.80483 15.4584 10.445 15.4584 11.0871 15.4584C11.6815 15.4584 12.276 15.4584 12.8705 15.4584C13.3735 15.4584 13.8765 15.4584 14.3777 15.4584C14.7417 15.4584 15.1039 15.4584 15.4679 15.4584C15.6398 15.4584 15.8099 15.4602 15.9819 15.4584C15.9892 15.4584 15.9965 15.4584 16.0038 15.4584C16.3989 15.4584 16.7355 15.1237 16.7355 14.7267C16.7355 14.4816 16.7355 14.2365 16.7355 13.9914C16.7355 13.4024 16.7355 12.8135 16.7355 12.2245C16.7355 11.5111 16.7355 10.7996 16.7355 10.0862C16.7355 9.46977 16.7355 8.85335 16.7355 8.23693C16.7355 7.93878 16.741 7.6388 16.7355 7.34064C16.7355 7.33699 16.7355 7.3315 16.7355 7.32784C16.7355 6.94555 16.3989 6.57789 16.0038 6.59618C15.6069 6.60898 15.2722 6.91262 15.2722 7.32235Z" fill="white"/>
<path d="M2.78798 13.9916C2.35813 13.9916 1.92645 13.9916 1.4966 13.9916C1.1143 13.9916 0.746646 14.3282 0.764937 14.7233C0.783229 15.1202 1.08687 15.455 1.4966 15.455C1.92645 15.455 2.35813 15.455 2.78798 15.455C3.17027 15.455 3.53793 15.1184 3.51963 14.7233C3.50317 14.3264 3.19953 13.9916 2.78798 13.9916Z" fill="white"/>
<path d="M17.286 13.9916C16.8562 13.9916 16.4245 13.9916 15.9947 13.9916C15.6124 13.9916 15.2447 14.3282 15.263 14.7233C15.2813 15.1202 15.5849 15.455 15.9947 15.455C16.4245 15.455 16.8562 15.455 17.286 15.455C17.6683 15.455 18.036 15.1184 18.0177 14.7233C17.9994 14.3264 17.6958 13.9916 17.286 13.9916Z" fill="white"/>
<path d="M11.275 14.7232C11.2732 14.8421 11.2658 14.9591 11.2494 15.0762C11.2585 15.0122 11.2677 14.9463 11.275 14.8823C11.2421 15.1091 11.1817 15.3304 11.0921 15.5426C11.1159 15.4841 11.1415 15.4256 11.1652 15.367C11.0756 15.5737 10.9622 15.7658 10.825 15.945C10.8634 15.8956 10.9018 15.8463 10.9403 15.7969C10.8031 15.9725 10.6439 16.1298 10.4683 16.267C10.5177 16.2285 10.5671 16.1901 10.6165 16.1517C10.4372 16.2889 10.2433 16.4005 10.0367 16.4901C10.0952 16.4663 10.1537 16.4407 10.2123 16.417C10.0001 16.5048 9.77874 16.5651 9.5501 16.598C9.61412 16.5889 9.67997 16.5797 9.74399 16.5724C9.50803 16.6035 9.27207 16.6035 9.03611 16.5724C9.10013 16.5816 9.16598 16.5907 9.23 16.598C9.00135 16.5669 8.78003 16.5066 8.56785 16.417C8.62638 16.4407 8.68491 16.4663 8.74344 16.4901C8.53675 16.4023 8.34286 16.2889 8.1636 16.1517C8.21299 16.1901 8.26238 16.2285 8.31177 16.267C8.13617 16.1298 7.97703 15.9725 7.83985 15.7969C7.87826 15.8463 7.91667 15.8956 7.95508 15.945C7.8179 15.7676 7.70449 15.5737 7.61486 15.367C7.63864 15.4256 7.66425 15.4841 7.68803 15.5426C7.5984 15.3304 7.53804 15.1091 7.50511 14.8823C7.51426 14.9463 7.5234 15.0122 7.53072 15.0762C7.51426 14.9591 7.50694 14.8402 7.50511 14.7232C7.26183 14.9664 7.01673 15.2115 6.77345 15.4548C7.3661 15.4548 7.95874 15.4548 8.55138 15.4548C9.48791 15.4548 10.4244 15.4548 11.3591 15.4548C11.5731 15.4548 11.7871 15.4548 12.003 15.4548C12.3853 15.4548 12.7529 15.1183 12.7346 14.7232C12.7164 14.3262 12.4127 13.9915 12.003 13.9915C11.4103 13.9915 10.8177 13.9915 10.2251 13.9915C9.28853 13.9915 8.35201 13.9915 7.41731 13.9915C7.2033 13.9915 6.98929 13.9915 6.77345 13.9915C6.38018 13.9915 6.03813 14.3262 6.04179 14.7232C6.04728 15.3853 6.243 16.0676 6.63261 16.609C6.86125 16.9273 7.11367 17.1815 7.42463 17.4175C7.68803 17.6169 7.98069 17.7595 8.29165 17.873C8.9227 18.1053 9.65619 18.1162 10.3001 17.9333C10.9183 17.7577 11.5091 17.3937 11.9207 16.898C12.1932 16.5688 12.3908 16.2304 12.5426 15.8316C12.6743 15.4823 12.7328 15.0963 12.7365 14.7232C12.7401 14.3409 12.3981 13.9732 12.0048 13.9915C11.6061 14.0098 11.2768 14.3134 11.275 14.7232Z" fill="white"/>
</svg>
