<svg width="12" height="12" viewBox="0 0 12 12" fill="none" xmlns="http://www.w3.org/2000/svg">
<path d="M0.32797 11.9999C0.242505 11.9999 0.158788 11.9665 0.0960549 11.904C0.00774787 11.8157 -0.0228534 11.6847 0.0175842 11.5665L1.37323 7.59069C1.3894 7.54326 1.41629 7.49998 1.4517 7.46457L8.53222 0.384048C8.77987 0.136395 9.10905 0 9.45922 0C9.80939 0 10.1386 0.136395 10.3862 0.384048L11.616 1.61379C11.8636 1.86122 11.9998 2.19063 11.9998 2.54058C11.9998 2.89096 11.8634 3.21993 11.616 3.46758L4.53545 10.5481C4.50004 10.5835 4.45698 10.6104 4.40933 10.6266L0.433545 11.9822C0.399009 11.994 0.363381 11.9999 0.32797 11.9999ZM1.9693 7.87419L0.853659 11.1464L4.12583 10.0307L11.1524 3.00419C11.4077 2.74867 11.4077 2.33314 11.1524 2.07762L9.92262 0.847879C9.67496 0.600444 9.2437 0.600444 8.99605 0.847879L1.9693 7.87419Z" fill="white"/>
<path d="M4.53549 10.0844L1.91541 7.46429L1.45173 7.92797L4.07181 10.5481L4.53549 10.0844Z" fill="white"/>
<path d="M11.0253 3.59415L8.40521 0.97406L7.94153 1.43774L10.5616 4.05782L11.0253 3.59415Z" fill="white"/>
</svg>
