<svg fill="none" xmlns="http://www.w3.org/2000/svg" viewBox="0 0 36 18"><path d="M26.73 17.99h-.85a1.11 1.11 0 01-.22-.04c-.16 0-.32-.02-.48-.05-.15-.04-.3-.03-.45-.07l-.61-.16a38.02 38.02 0 01-1.5-.54c-.23-.1-.44-.21-.65-.32a9.34 9.34 0 01-1.3-.78 16.75 16.75 0 01-1.83-1.46l-.45-.41-.2-.21a.55.55 0 00-.14-.1.25.25 0 00-.28.05c-.22.2-.43.42-.65.61-.31.28-.63.54-.95.8-.29.23-.6.44-.9.66-.17.12-.35.24-.54.35-.31.17-.6.37-.94.5l-.6.3c-.2.08-.41.19-.64.24-.12.03-.23.08-.34.12l-.3.09-.27.08-.2.05-.36.07c-.04 0-.07 0-.1.02-.11.05-.22.04-.33.05l-.65.09-.23.01H8.55c-.1 0-.2-.01-.3-.04-.09-.02-.19 0-.28-.01-.06 0-.11-.02-.17-.03l-.08-.02c-.11 0-.22-.01-.33-.05-.1-.05-.23-.05-.34-.07l-.3-.09c-.09-.02-.17-.02-.25-.06-.12-.05-.26-.07-.38-.12a11.57 11.57 0 01-1.7-.79c-.1-.04-.17-.1-.25-.16-.21-.15-.44-.28-.65-.45a10.52 10.52 0 01-1.75-1.76c-.14-.17-.26-.37-.39-.55l-.3-.51-.27-.54-.05-.09c-.1-.22-.2-.45-.28-.68-.05-.2-.13-.38-.19-.58-.04-.14-.08-.3-.1-.45-.04-.16-.05-.32-.1-.48-.03-.11-.03-.22-.04-.34 0-.05-.02-.1-.03-.14a1.49 1.49 0 01-.02-.2V8.22C0 8.1 0 8 .05 7.89v-.03c-.02-.18.03-.34.06-.51l.1-.44.11-.4c.04-.13.08-.28.13-.4a7.87 7.87 0 01.77-1.64c.12-.2.24-.38.37-.56l.48-.61c.22-.3.48-.54.74-.8.3-.28.61-.54.95-.78.22-.15.44-.31.67-.45.35-.2.7-.38 1.06-.54l.78-.3c.12-.05.25-.07.38-.1l.33-.1.03-.02c.14-.02.29-.03.43-.06l.3-.06.18-.03.29-.05.07-.01h1.78l.11.01.24.04c.15.02.3.04.43.1a.1.1 0 00.04 0c.22 0 .43.07.64.11.17.03.33.1.5.14.2.04.38.14.57.19l.29.1.95.44c.48.22.93.5 1.37.8.21.14.42.3.62.45l.6.45c.42.35.81.72 1.2 1.1l.31.3c.04.04.07.03.11 0l.7-.66.29-.26.92-.75c.27-.21.55-.41.84-.6.33-.22.68-.42 1.02-.62.14-.08.3-.15.45-.22.14-.07.28-.15.43-.21a11.59 11.59 0 011.15-.43l.66-.17.39-.1.5-.06c.08 0 .15-.01.22-.03.13-.04.26-.06.4-.06l1-.01h.5c.14.03.3.02.43.09a.1.1 0 00.05 0c.18-.01.35.03.52.07.2.03.4.08.6.13l.33.08.3.1c.25.1.5.18.74.29.33.15.65.31.97.5.24.13.48.3.7.46a11.06 11.06 0 011.86 1.75 9.46 9.46 0 011.25 2.07l.16.45.12.3.15.54.09.32v.02l.07.49.09.5.01.13c0 .16 0 .32.02.47 0 .12.04.23.03.34-.03.24-.04.48-.05.72-.01.14-.03.28-.06.41l-.08.4-.07.3-.13.51c-.02.1-.05.21-.09.31-.13.35-.24.7-.42 1.02l-.3.6-.39.6-.39.5c-.25.35-.54.67-.86.96a14.17 14.17 0 01-1.56 1.2 9.52 9.52 0 01-1.84.85c-.28.1-.55.2-.85.24a4.05 4.05 0 00-.43.11l-.36.05c-.39.04-.77.08-1.17.07h-.22v-.01zm.01-1.71c.34-.03.68.05 1.02-.04.25 0 .49-.1.73-.13.13-.02.26-.05.39-.1l.6-.18c.18-.07.35-.16.53-.24l.5-.25c.23-.13.46-.27.67-.43.2-.16.42-.3.62-.48a7.6 7.6 0 001.37-1.64l.12-.21.3-.61c.16-.34.28-.7.37-1.05.03-.14.1-.27.1-.42l.09-.45.04-.36c0-.28.03-.57.02-.86 0-.26-.04-.52-.06-.78 0-.12-.03-.23-.06-.34a1.1 1.1 0 01-.04-.3l-.01-.03-.1-.26-.07-.3-.15-.4a4.66 4.66 0 00-.3-.67c-.1-.17-.2-.33-.28-.5-.09-.17-.2-.3-.3-.46a8.03 8.03 0 00-.27-.34l-.25-.3a7.46 7.46 0 00-1.45-1.2c-.17-.12-.35-.2-.52-.3-.39-.24-.81-.38-1.23-.52l-.3-.1-.56-.12c-.12-.03-.26-.04-.39-.06-.2-.03-.42-.08-.63-.08-.38 0-.76-.04-1.14.03-.2.03-.41.02-.62.06l-.42.07h-.04l-.27.08a5.1 5.1 0 00-.68.2c-.06.02-.13.02-.18.05l-.42.17c-.27.1-.54.23-.8.37l-.7.4a12 12 0 00-.57.38c-.16.1-.32.21-.47.33A30.8 30.8 0 0018.66 6c-.24.25-.45.53-.67.8l-.08.14-.26.33c-.07.08-.15.14-.21.22l-.52.68a.61.61 0 01-.08.08c-.06.05-.1.06-.15 0l-.14-.15a56.56 56.56 0 01-.78-1.05c-.05-.06-.05-.11 0-.17.12-.17.25-.34.39-.5.2-.25.43-.49.64-.73.05-.06.05-.1.01-.14-.14-.14-.27-.29-.42-.42l-.52-.48-.42-.37a19.3 19.3 0 00-1.88-1.32 7.71 7.71 0 00-1.11-.55l-.64-.24-.34-.1-.14-.04a9.47 9.47 0 00-.37-.09l-.67-.12c-.15-.03-.3-.04-.46-.05H8.7c-.15 0-.3.02-.46.04l-.5.06a.3.3 0 00-.04 0l-.37.1L7 2l-.52.18c-.15.05-.3.1-.45.17l-.61.31-.25.16A6 6 0 004 3.69c-.21.2-.4.42-.59.63-.19.2-.34.43-.5.66l-.32.54c-.16.3-.3.6-.41.9l-.08.23-.1.3a3.71 3.71 0 00-.14.6l-.02.13c-.05.22-.1.45-.1.69l-.03.32V9c0 .16.03.31.03.46 0 .21.04.42.06.62l.1.5.08.33a6.6 6.6 0 00.72 1.7c.11.19.24.37.36.56a6.63 6.63 0 001.73 1.72c.18.13.38.24.56.35l.32.17c.2.1.4.2.6.28.18.07.36.13.55.18l.65.2c.14.03.3.04.45.06l.1.02c.16.03.33.07.49.08.57 0 1.14.04 1.7-.04l.46-.07a9.76 9.76 0 001.77-.53c.21-.09.43-.18.63-.28.24-.12.47-.26.7-.4a11.1 11.1 0 002-1.45 24.97 24.97 0 00.96-.9c.05-.06.05-.08 0-.15l-.6-.7a51.02 51.02 0 01-1.47-1.92c-.23-.33-.44-.66-.7-.97l-.5-.6a4.47 4.47 0 00-1.3-1.08c-.12-.08-.26-.14-.4-.22-.25-.14-.53-.23-.8-.34-.16-.06-.34-.09-.5-.13l-.27-.07c-.16-.03-.32-.07-.49-.09-.07 0-.14-.02-.18-.07-.1-.11-.22-.1-.34-.05a.17.17 0 01-.1.01l-.46-.15c-.2-.07-.39-.16-.57-.27-.17-.1-.33-.22-.47-.37a1.48 1.48 0 01-.4-.62c-.02-.06-.01-.1.03-.14.05-.03.1-.08.16-.09a10.51 10.51 0 011.57-.06c.26.01.51.04.77.06h.01l.7.14.53.13.56.2a9.99 9.99 0 012.35 1.35c.19.16.36.33.55.48.27.22.5.49.73.74.2.23.4.49.58.74l.57.78.5.71.47.58.63.77c.06.08.09.07.15 0l.58-.7c.24-.3.49-.6.72-.92.2-.25.38-.5.55-.77.14-.23.31-.44.47-.65l.19-.24c.19-.2.38-.38.55-.59.2-.21.4-.42.62-.6l.67-.52c.11-.09.22-.17.34-.24a35.65 35.65 0 011.28-.7 12.57 12.57 0 01.93-.33l.4-.1a5.79 5.79 0 01.82-.17c.25-.03.5-.08.75-.1.35 0 .71 0 1.07.02.08 0 .15.02.23.03l.39.05c.07.01.13.05.18.1a.1.1 0 01.03.1.75.75 0 01-.07.17c-.18.31-.44.56-.73.77-.16.1-.33.18-.5.25l-.12.06-.5.15c-.08.02-.15.03-.24 0-.12-.06-.2-.04-.28.06a.14.14 0 01-.14.06c-.15-.02-.29.04-.43.07-.14.02-.28.06-.42.1l-.27.07c-.1.04-.21.1-.33.12-.23.05-.43.17-.64.27-.2.1-.4.2-.6.33a5.8 5.8 0 00-1.3 1.19l-.47.61c-.17.22-.32.45-.48.67a79.5 79.5 0 01-1.58 2.03c-.16.2-.33.38-.5.56-.06.07-.07.09 0 .17l.23.24c.1.1.22.2.3.31.13.16.28.28.42.41.16.16.34.3.52.43l.13.11.64.47c.18.13.36.26.56.38l.75.42c.26.13.53.24.79.36a5.4 5.4 0 00.97.33 9.74 9.74 0 00.91.2c.18.03.36.07.54.08h.77z" fill="#EAF5FF"/></svg>