<svg fill="none" xmlns="http://www.w3.org/2000/svg" viewBox="0 0 265 135"><path d="M196.78 134.9c-2.1 0-4.2.02-6.3 0a7.98 7.98 0 01-1.57-.3c-1.2 0-2.38-.12-3.55-.37-1.1-.28-2.28-.2-3.35-.53-1.47-.45-3-.68-4.47-1.17a277.7 277.7 0 01-6.47-2.24 60.29 60.29 0 01-4.63-1.84c-1.6-.72-3.14-1.55-4.69-2.37a68.96 68.96 0 01-4.1-2.32 122.03 122.03 0 01-10.83-7.48 95.25 95.25 0 01-8.13-7.02c-1.08-1.06-2.26-2.02-3.35-3.07-.52-.48-.93-1.08-1.43-1.58a4.02 4.02 0 00-1.07-.78 1.77 1.77 0 00-2.05.41c-1.59 1.55-3.15 3.13-4.8 4.61a183.24 183.24 0 01-6.96 5.98c-2.13 1.73-4.36 3.32-6.56 4.92a39 39 0 01-4.02 2.63c-2.31 1.27-4.47 2.8-6.94 3.83-1.5.63-2.9 1.52-4.4 2.16-1.5.64-3.06 1.43-4.72 1.82-.86.21-1.67.6-2.51.88l-2.2.7c-.68.2-1.35.43-2.03.63-.49.14-.97.28-1.47.38-.87.18-1.75.32-2.63.48-.27 0-.54.05-.8.14-.74.4-1.55.33-2.35.42-1.6.2-3.18.44-4.78.64-.56.07-1.13.1-1.7.1h-9a7.83 7.83 0 01-2.2-.29c-.65-.19-1.38-.06-2.06-.1-.41-.05-.82-.13-1.22-.22-.21-.04-.41-.1-.62-.12-.84-.07-1.64-.1-2.45-.44-.76-.31-1.63-.31-2.45-.5-.8-.18-1.53-.42-2.3-.63-.59-.16-1.2-.2-1.8-.46-.88-.4-1.87-.56-2.78-.9-1.4-.5-2.81-1-4.17-1.6a84.32 84.32 0 01-8.39-4.32c-.61-.36-1.17-.8-1.75-1.2-1.61-1.12-3.3-2.15-4.82-3.37a78.07 78.07 0 01-12.89-13.2c-1.02-1.35-1.93-2.77-2.84-4.18-.8-1.25-1.58-2.51-2.28-3.83-.7-1.31-1.3-2.7-1.95-4.06-.1-.22-.24-.41-.34-.63a38.24 38.24 0 01-2.05-5.12c-.42-1.45-1-2.86-1.42-4.31a37.1 37.1 0 01-.8-3.39c-.25-1.2-.29-2.44-.65-3.6-.28-.85-.25-1.68-.3-2.53-.03-.38-.18-.74-.24-1.12-.08-.5-.12-1-.14-1.5V61.63c0-.83-.1-1.67.33-2.45a.46.46 0 00.04-.26c-.15-1.3.23-2.55.46-3.8.2-1.1.5-2.19.77-3.28.25-1 .48-2.02.75-3.02s.56-2.06.92-3.07A64.24 64.24 0 019 33.5a69.55 69.55 0 012.7-4.17c1.12-1.57 2.36-3.04 3.51-4.59 1.62-2.17 3.55-4.05 5.47-5.93a54.68 54.68 0 017-5.9c1.63-1.15 3.23-2.34 4.95-3.35a74.35 74.35 0 017.82-4.07c1.87-.81 3.8-1.47 5.68-2.25.9-.37 1.88-.54 2.82-.81l2.47-.76.16-.07c1.06-.16 2.12-.28 3.17-.47.73-.12 1.44-.32 2.17-.47.46-.1.93-.15 1.4-.23l2.11-.37c.18-.04.35-.06.53-.06H74.1c.27.01.53.04.8.1l1.76.3c1.07.15 2.14.24 3.14.67.08.03.17.05.26.05 1.64-.05 3.17.53 4.75.84 1.25.25 2.46.77 3.7 1.03 1.47.31 2.78 1.03 4.21 1.42.71.21 1.4.48 2.07.8 2.35 1.07 4.7 2.14 7.02 3.25a77.3 77.3 0 0110.09 6.04c1.56 1.06 3.07 2.22 4.57 3.37 1.5 1.14 2.93 2.22 4.35 3.39 3.12 2.56 6.03 5.35 8.88 8.2.75.76 1.54 1.49 2.3 2.25.3.3.52.28.83 0 1.71-1.66 3.44-3.3 5.16-4.93.69-.66 1.36-1.33 2.08-1.95 2.25-1.9 4.49-3.81 6.8-5.63 2-1.57 4.05-3.1 6.17-4.5 2.45-1.64 4.98-3.13 7.5-4.63 1.07-.64 2.22-1.13 3.33-1.69 1.05-.53 2.09-1.11 3.17-1.58 1.36-.6 2.75-1.14 4.14-1.67 1.39-.53 2.84-1.08 4.29-1.52 1.61-.49 3.26-.87 4.9-1.3.95-.24 1.9-.53 2.85-.7a53.5 53.5 0 013.72-.47 9.07 9.07 0 001.57-.25 12.5 12.5 0 012.9-.45c2.46-.08 4.92-.08 7.38-.09 1.23 0 2.47-.07 3.68.1 1.08.14 2.22.11 3.25.58.1.05.22.08.34.07 1.3-.12 2.54.21 3.8.44 1.46.28 2.91.65 4.36.99.84.2 1.68.4 2.52.64.74.22 1.46.5 2.18.78 1.84.7 3.72 1.29 5.49 2.12a92.97 92.97 0 017.07 3.7c1.82 1.05 3.54 2.29 5.25 3.5a51.8 51.8 0 016.54 5.48 82.06 82.06 0 017.12 7.69 70.79 70.79 0 014.57 6.53 60.07 60.07 0 014.58 8.97c.44 1.1.82 2.22 1.23 3.32.28.78.6 1.54.84 2.33.4 1.33.76 2.67 1.13 4.01l.63 2.4.04.18c.17 1.2.31 2.42.5 3.62.2 1.28.43 2.56.65 3.84.05.3.08.59.09.89.05 1.19.06 2.39.13 3.58.04.83.3 1.67.2 2.48-.2 1.81-.27 3.62-.35 5.44a25.68 25.68 0 01-.42 3.1c-.17 1-.42 2-.63 3.01-.16.75-.28 1.52-.46 2.26-.3 1.28-.62 2.54-.95 3.8-.2.78-.4 1.56-.67 2.3-.95 2.6-1.82 5.22-3.12 7.67-.79 1.48-1.43 3.03-2.25 4.48a64.13 64.13 0 01-2.8 4.43c-.9 1.32-1.9 2.57-2.86 3.86a51.62 51.62 0 01-6.37 7.13c-1.95 1.8-3.98 3.55-6.07 5.2a54.52 54.52 0 01-5.4 3.8 62.62 62.62 0 01-13.55 6.45c-2.04.67-4.07 1.45-6.23 1.78a29.53 29.53 0 00-3.18.81c-.88.13-1.76.3-2.65.39-2.86.3-5.72.6-8.6.46-.54-.02-1.08 0-1.62 0l-.01-.06zm.07-12.8c2.5-.2 5.02.35 7.5-.33 1.86.05 3.58-.69 5.38-.94.96-.17 1.9-.41 2.82-.72 1.49-.45 2.98-.87 4.43-1.42 1.33-.5 2.62-1.14 3.9-1.76 1.3-.62 2.48-1.25 3.7-1.9a34.15 34.15 0 004.93-3.22c1.52-1.17 3.09-2.3 4.55-3.55a37.2 37.2 0 003.23-3.2 56.94 56.94 0 006.83-9.1c.32-.53.66-1.06.93-1.62.74-1.52 1.46-3.05 2.18-4.58a37.24 37.24 0 002.73-7.89c.23-1.03.7-2 .8-3.09.12-1.14.44-2.26.62-3.4.14-.89.24-1.78.28-2.67.09-2.15.2-4.3.16-6.45-.05-1.97-.28-3.93-.45-5.9-.05-.86-.18-1.71-.4-2.55a8.44 8.44 0 01-.36-2.19.91.91 0 00-.06-.26c-.22-.66-.47-1.32-.67-2-.2-.67-.32-1.45-.56-2.15-.33-1.05-.73-2.07-1.11-3.1-.6-1.72-1.34-3.4-2.21-5.01-.7-1.24-1.48-2.43-2.09-3.7-.6-1.28-1.4-2.34-2.2-3.44a60 60 0 00-1.96-2.55c-.6-.77-1.2-1.56-1.87-2.27a55.36 55.36 0 00-10.65-9.08c-1.24-.8-2.59-1.44-3.84-2.21-2.83-1.75-5.94-2.8-9.04-3.9-.73-.26-1.47-.47-2.23-.66a98.04 98.04 0 00-4.1-.96c-.91-.2-1.9-.32-2.86-.45-1.54-.22-3.08-.6-4.61-.6-2.8 0-5.61-.28-8.42.19-1.5.24-3.03.14-4.54.47-1.04.22-2.1.34-3.15.5a37.05 37.05 0 00-7.24 2.11c-.45.15-.94.21-1.38.38-1.03.4-2.04.85-3.05 1.29-2 .82-3.97 1.76-5.86 2.8-1.75 1-3.5 1.98-5.22 3.04a88.1 88.1 0 00-4.16 2.76c-1.16.82-2.34 1.62-3.43 2.53a226.7 226.7 0 00-6.94 5.99 161.57 161.57 0 00-9.82 9.6c-1.75 1.88-3.29 3.96-4.9 5.97-.26.31-.38.73-.63 1.07-.61.83-1.24 1.65-1.9 2.45-.5.6-1.09 1.1-1.55 1.7-1.28 1.68-2.52 3.38-3.79 5.06-.18.23-.39.44-.61.63-.42.38-.67.4-1.07.02a10.1 10.1 0 01-1.08-1.2 423.65 423.65 0 01-3.75-5.06c-.67-.9-1.32-1.83-1.96-2.75-.35-.5-.37-.9-.05-1.3.95-1.25 1.88-2.53 2.88-3.73 1.56-1.87 3.17-3.7 4.75-5.53.33-.39.37-.75.09-1.04-1.03-1.06-2.04-2.14-3.1-3.16-1.26-1.22-2.55-2.4-3.83-3.57-1.03-.95-2.05-1.9-3.12-2.79a140.57 140.57 0 00-9.06-6.9 89.38 89.38 0 00-4.75-3 56.47 56.47 0 00-8.2-4.07c-1.56-.65-3.14-1.25-4.72-1.83-.8-.3-1.64-.5-2.46-.75-.34-.1-.67-.25-1.02-.34-.93-.23-1.86-.45-2.8-.63-1.63-.33-3.26-.66-4.9-.93-1.13-.2-2.26-.32-3.4-.36-2.79-.07-5.58-.1-8.35-.07-1.12.02-2.26.25-3.39.38l-3.72.43c-.1.01-.18.04-.26.06l-2.75.67c-.78.2-1.56.4-2.33.65-1.29.43-2.55.93-3.84 1.36-1.12.37-2.25.7-3.3 1.26-1.5.8-3.02 1.54-4.51 2.34-.63.33-1.18.79-1.8 1.14a44.3 44.3 0 00-8.73 6.57c-1.54 1.47-2.88 3.15-4.33 4.73-1.4 1.51-2.51 3.23-3.63 4.93-.87 1.3-1.6 2.7-2.38 4.07a44.95 44.95 0 00-3.07 6.8c-.2.55-.36 1.11-.54 1.67-.24.76-.5 1.52-.73 2.29-.17.56-.34 1.14-.47 1.72-.22.92-.42 1.84-.61 2.78-.07.28-.05.6-.12.89-.39 1.71-.74 3.43-.74 5.2 0 .8-.17 1.6-.22 2.4-.06.78-.08 1.56-.06 2.33.06 1.17.27 2.32.26 3.48 0 1.56.28 3.08.5 4.62.18 1.26.48 2.5.74 3.76.12.82.3 1.64.51 2.44.6 1.9 1.23 3.77 1.94 5.63a49.8 49.8 0 003.39 7.12c.84 1.44 1.78 2.81 2.67 4.21 1.31 2.06 2.94 3.88 4.55 5.7a49.04 49.04 0 008.21 7.2c1.32.96 2.72 1.78 4.1 2.63.76.46 1.55.89 2.34 1.28 1.46.73 2.92 1.47 4.42 2.1 1.3.56 2.67.97 4.02 1.4 1.59.5 3.17 1.02 4.78 1.42 1.1.28 2.23.35 3.35.52.24.03.47.11.7.15 1.21.2 2.42.53 3.63.55 4.2.08 8.38.3 12.57-.3 1.12-.17 2.25-.32 3.35-.55a70.29 70.29 0 009.38-2.53c1.24-.4 2.45-.9 3.65-1.41 1.55-.66 3.12-1.31 4.61-2.09 1.76-.91 3.46-1.95 5.18-2.95a81.8 81.8 0 008.15-5.54c2.24-1.71 4.43-3.5 6.53-5.38a110.48 110.48 0 007.06-6.78c.43-.45.4-.6 0-1.07-1.47-1.75-2.97-3.47-4.38-5.26a384.75 384.75 0 01-10.81-14.44c-1.7-2.42-3.27-4.95-5.17-7.24-1.25-1.5-2.45-3.07-3.66-4.58a33.2 33.2 0 00-4.52-4.5 32.82 32.82 0 00-5-3.57c-.98-.55-2-1.04-2.97-1.6-1.86-1.1-3.91-1.75-5.89-2.54-1.2-.48-2.51-.7-3.78-1.04-.64-.17-1.26-.35-1.9-.48-1.2-.25-2.4-.5-3.61-.65-.54-.07-1.03-.17-1.38-.56-.76-.83-1.6-.74-2.5-.36-.25.1-.51.13-.77.06-1.11-.35-2.23-.77-3.35-1.14a22.24 22.24 0 01-4.15-1.98 17.38 17.38 0 01-3.45-2.79 11.11 11.11 0 01-3.01-4.66c-.14-.46-.06-.8.23-1.04.36-.28.8-.61 1.23-.66a75.97 75.97 0 0111.56-.45c1.87.07 3.75.28 5.62.42.03 0 .06 0 .09.02 1.7.34 3.4.65 5.1 1.03 1.32.3 2.66.6 3.96 1 1.4.44 2.72 1.04 4.11 1.48 1.8.61 3.54 1.37 5.21 2.26a73.18 73.18 0 016.46 3.77 55.04 55.04 0 015.62 4.1c1.4 1.16 2.64 2.46 4.03 3.62 2 1.65 3.7 3.62 5.4 5.53 1.54 1.75 2.9 3.66 4.29 5.53 1.42 1.94 2.79 3.92 4.16 5.89 1.24 1.77 2.45 3.56 3.74 5.3 1.09 1.48 2.25 2.9 3.4 4.34a920 920 0 004.63 5.75c.48.6.69.59 1.16 0 1.4-1.71 2.84-3.41 4.21-5.16 1.82-2.3 3.61-4.63 5.35-6.99 1.4-1.88 2.81-3.73 4.01-5.75 1.02-1.72 2.33-3.27 3.52-4.9.4-.61.84-1.2 1.33-1.76 1.4-1.45 2.8-2.87 4.1-4.4a38.09 38.09 0 014.57-4.52c1.6-1.35 3.26-2.64 4.91-3.93.8-.66 1.64-1.26 2.52-1.82 2.2-1.33 4.44-2.62 6.68-3.88.88-.5 1.8-.93 2.73-1.32a91.54 91.54 0 016.85-2.49c.97-.3 1.96-.55 2.93-.82a41.8 41.8 0 016.02-1.2c1.83-.26 3.67-.62 5.51-.7 2.63-.09 5.28 0 7.91.07.56.05 1.12.14 1.68.25.94.14 1.9.24 2.84.38.54.1 1.02.38 1.36.8a.75.75 0 01.2.8c-.12.4-.27.79-.47 1.15a18.47 18.47 0 01-5.43 5.8c-1.11.8-2.37 1.34-3.6 1.9-.3.17-.62.32-.94.45-1.21.38-2.43.73-3.66 1.07-.58.17-1.14.28-1.74 0-.94-.43-1.47-.3-2.13.5a1.02 1.02 0 01-1 .45c-1.1-.15-2.12.28-3.17.46-1.06.19-2.08.5-3.1.78-.66.17-1.32.34-1.96.55-.81.28-1.58.69-2.4.88-1.71.4-3.2 1.28-4.76 2-1.53.72-3 1.57-4.4 2.53a42.72 42.72 0 00-9.56 8.89c-1.18 1.53-2.38 3.04-3.51 4.6-1.2 1.67-2.32 3.39-3.52 5.04a597 597 0 01-7 9.45 192.08 192.08 0 01-4.62 5.76c-1.17 1.42-2.39 2.8-3.63 4.18-.5.55-.58.68-.09 1.26.54.63 1.14 1.2 1.72 1.8.77.78 1.63 1.48 2.29 2.34.9 1.17 2.02 2.1 3.06 3.1 1.18 1.16 2.5 2.17 3.78 3.24.32.28.63.56.95.8 1.57 1.17 3.13 2.36 4.72 3.5 1.35.97 2.7 1.95 4.11 2.83a89.21 89.21 0 005.56 3.18c1.9.98 3.85 1.84 5.8 2.71 1.09.5 2.19.95 3.3 1.34a70.79 70.79 0 007.48 2.04c1.02.22 2.06.4 3.08.56 1.32.22 2.63.52 3.97.6 1.9.1 3.79.02 5.68.02h-.01z" fill="#EAF5FF"/></svg>