<svg width="36" height="18" viewBox="0 0 36 18" fill="none" xmlns="http://www.w3.org/2000/svg">
<path d="M26.732 17.9867C26.4467 17.9867 26.1629 17.9889 25.8768 17.9867C25.8127 17.9808 25.7492 17.9694 25.6871 17.9525C25.6793 17.9502 25.6713 17.9486 25.6632 17.9477C25.5013 17.9475 25.3397 17.9306 25.1814 17.8972C25.0327 17.8601 24.8718 17.8705 24.7261 17.827C24.5262 17.7669 24.319 17.7357 24.1191 17.6704C23.8251 17.5735 23.5314 17.4755 23.24 17.3715C23.0279 17.2972 22.8159 17.2178 22.6106 17.1265C22.394 17.0299 22.1838 16.9197 21.9736 16.8101C21.7839 16.7118 21.5969 16.6119 21.4155 16.5016C21.1659 16.3505 20.9193 16.1946 20.6783 16.0309C20.4297 15.8621 20.1856 15.6866 19.9461 15.5044C19.5598 15.2128 19.1907 14.9001 18.8405 14.5677C18.6937 14.4266 18.5336 14.2989 18.3853 14.1593C18.3151 14.0943 18.2597 14.0153 18.191 13.9484C18.1488 13.9061 18.0997 13.8708 18.0457 13.8441C17.9995 13.8234 17.9478 13.8175 17.898 13.8273C17.8481 13.8371 17.8028 13.8621 17.7684 13.8987C17.5517 14.1047 17.3396 14.316 17.1154 14.5135C16.8058 14.7856 16.4928 15.0548 16.17 15.3113C15.8812 15.5408 15.5777 15.7539 15.2791 15.9674C15.1045 16.0948 14.922 16.2116 14.7328 16.3171C14.4186 16.4864 14.1257 16.6913 13.7907 16.828C13.5858 16.9115 13.3958 17.0299 13.1917 17.1157C12.9875 17.2015 12.777 17.3065 12.5516 17.3592C12.4348 17.3867 12.324 17.438 12.2102 17.4758C12.1108 17.5085 12.0106 17.5378 11.9108 17.5686C11.819 17.5969 11.7276 17.6262 11.6354 17.6529C11.5694 17.6719 11.5033 17.69 11.4362 17.7038C11.3174 17.7275 11.1975 17.7468 11.0784 17.7676C11.0419 17.7687 11.0057 17.7751 10.971 17.7866C10.8694 17.84 10.7586 17.8304 10.6505 17.843C10.4338 17.8686 10.2179 17.9017 10.0013 17.9284C9.92447 17.9368 9.84719 17.9408 9.76987 17.9403C9.3624 17.9403 8.95493 17.9421 8.54745 17.9403C8.44624 17.942 8.3453 17.9295 8.24773 17.9032C8.16085 17.8779 8.06182 17.8954 7.96849 17.8887C7.91274 17.8821 7.85739 17.8726 7.8027 17.8601C7.77462 17.8553 7.74693 17.8471 7.71885 17.8445C7.60503 17.8348 7.49614 17.8304 7.38574 17.7855C7.2833 17.7439 7.16417 17.7439 7.05377 17.719C6.94336 17.6941 6.84586 17.6626 6.7419 17.6347C6.66109 17.6132 6.57838 17.6091 6.49757 17.5731C6.3773 17.5193 6.24262 17.4988 6.11817 17.4532C5.92848 17.3863 5.73688 17.3192 5.55249 17.239C5.1618 17.0683 4.78118 16.8765 4.4124 16.6642C4.32932 16.6167 4.25344 16.5569 4.17452 16.5031C3.95561 16.3546 3.72759 16.2172 3.52044 16.0543C3.07271 15.6992 2.65526 15.3091 2.27223 14.8877C2.09517 14.6957 1.92748 14.4977 1.76914 14.2937C1.63066 14.1151 1.5066 13.9247 1.38292 13.7368C1.27441 13.5701 1.16818 13.4027 1.07333 13.2271C0.978481 13.0515 0.896152 12.8658 0.807753 12.685C0.793715 12.6564 0.775124 12.6301 0.761845 12.6015C0.652512 12.3807 0.559573 12.1526 0.483747 11.9187C0.426458 11.7249 0.348682 11.5371 0.290255 11.344C0.245107 11.1955 0.21172 11.044 0.180989 10.8922C0.14874 10.7325 0.143049 10.5666 0.0933479 10.4125C0.0554082 10.2982 0.0603401 10.1879 0.0527521 10.0743C0.0493376 10.0245 0.0280914 9.9759 0.0208829 9.92577C0.00990841 9.85944 0.00344467 9.79247 0.00153386 9.72529C0.00153386 9.48211 0.00153386 9.23881 0.00153386 8.99539V8.21796C0.00153386 8.10658 -0.0128831 7.9952 0.0466822 7.8905C0.0517402 7.87958 0.0534531 7.86746 0.051614 7.8556C0.0311265 7.68222 0.0831039 7.51664 0.113835 7.34994C0.141152 7.20143 0.182886 7.05775 0.218928 6.91222C0.252315 6.77745 0.283425 6.64231 0.320606 6.50902C0.357787 6.37574 0.396486 6.23466 0.446187 6.10063C0.504235 5.93653 0.566836 5.77317 0.635886 5.61279C0.802052 5.21709 0.998242 4.83411 1.22281 4.46706C1.33967 4.27883 1.45842 4.0906 1.58931 3.91017C1.74107 3.70114 1.91066 3.50474 2.06659 3.29869C2.28588 3.0091 2.54843 2.75924 2.80907 2.5079C3.10316 2.21968 3.42147 1.95615 3.76064 1.72007C3.98221 1.56822 4.1996 1.40932 4.43255 1.27455C4.77535 1.07318 5.13008 0.891935 5.49486 0.731764C5.74944 0.623726 6.01122 0.536478 6.26656 0.431781C6.38834 0.382032 6.52189 0.360127 6.64975 0.323372C6.76167 0.291072 6.87283 0.256173 6.98476 0.222017C6.99191 0.218351 6.9994 0.215367 7.00714 0.213106C7.15055 0.192315 7.2951 0.17598 7.43813 0.150734C7.53678 0.134027 7.6339 0.108038 7.73217 0.0883611C7.79553 0.0757381 7.85926 0.0675703 7.92186 0.0568036C8.01785 0.0404679 8.11346 0.0237609 8.20945 0.00779654C8.2332 0.00316491 8.25732 0.000556329 8.28153 0H10.0647C10.1012 0.00158083 10.1374 0.00592529 10.1732 0.0129943C10.2533 0.0256173 10.3329 0.0412105 10.4134 0.0523485C10.5575 0.072768 10.7032 0.0850197 10.8394 0.142195C10.8507 0.147027 10.8628 0.149554 10.8751 0.14962C11.0974 0.142566 11.3053 0.220532 11.5201 0.260999C11.6904 0.294785 11.8536 0.36384 12.0235 0.39911C12.2223 0.44032 12.4006 0.535736 12.5949 0.587713C12.6911 0.616033 12.7849 0.651787 12.8753 0.694637C13.1947 0.836832 13.5138 0.979398 13.8298 1.12753C14.3124 1.35326 14.759 1.63876 15.1998 1.93281C15.4123 2.07463 15.6172 2.22982 15.8209 2.38204C16.0246 2.53426 16.2193 2.67905 16.4124 2.83461C16.8358 3.17617 17.2315 3.54744 17.6177 3.92836C17.7206 4.02934 17.8275 4.12661 17.9304 4.2276C17.971 4.26806 18.0009 4.26472 18.0442 4.2276C18.276 4.00707 18.5101 3.78839 18.7438 3.57009C18.8375 3.48284 18.9289 3.39299 19.0276 3.3102C19.3334 3.05774 19.6365 2.80231 19.9503 2.56025C20.2227 2.35048 20.5012 2.14666 20.7895 1.9588C21.1218 1.74198 21.4656 1.54224 21.8089 1.34212C21.9535 1.25785 22.109 1.19176 22.2597 1.11751C22.4031 1.04697 22.5438 0.969002 22.6907 0.907001C22.8754 0.826808 23.064 0.754782 23.2529 0.684242C23.4419 0.613701 23.6388 0.540562 23.8357 0.481902C24.0553 0.416188 24.2796 0.365696 24.5019 0.308893C24.6309 0.276221 24.7587 0.236867 24.8896 0.214591C25.0566 0.186004 25.2254 0.168926 25.3942 0.151847C25.4663 0.146884 25.5378 0.135703 25.6078 0.118434C25.7365 0.0834692 25.869 0.0635296 26.0024 0.0590311C26.3363 0.0482644 26.6705 0.0482645 27.0044 0.0467794C27.1713 0.0467794 27.3402 0.0374978 27.5044 0.0594025C27.6513 0.0790795 27.8049 0.0746243 27.9449 0.137739C27.9597 0.144442 27.9761 0.147379 27.9923 0.146279C28.168 0.130314 28.3372 0.174866 28.5068 0.20531C28.7064 0.242436 28.9033 0.291443 29.1006 0.337109C29.2144 0.363469 29.3282 0.389457 29.442 0.4225C29.5426 0.452201 29.6405 0.49007 29.7387 0.526454C29.988 0.618899 30.2437 0.69835 30.4842 0.808987C30.8113 0.959721 31.133 1.12456 31.4456 1.3024C31.6926 1.44274 31.9259 1.60758 32.1589 1.76982C32.4747 1.98887 32.7715 2.233 33.0463 2.49973C33.3839 2.82793 33.7212 3.15613 34.0145 3.52479C34.2379 3.8034 34.4451 4.09407 34.6352 4.39541C34.8764 4.77642 35.0845 5.17656 35.2574 5.59163C35.317 5.7379 35.3685 5.88864 35.4239 6.03529C35.4619 6.1385 35.5063 6.24023 35.5378 6.34492C35.5928 6.52239 35.6417 6.70171 35.6922 6.88029C35.7221 6.98684 35.7491 7.09376 35.7775 7.20069C35.78 7.20835 35.7819 7.21617 35.7832 7.22408C35.8056 7.38484 35.8253 7.54634 35.8504 7.70672C35.8773 7.87788 35.9096 8.04829 35.9384 8.21907C35.9452 8.25799 35.9494 8.2973 35.9509 8.33676C35.9574 8.49603 35.9593 8.65568 35.9684 8.81458C35.9744 8.92596 36.0101 9.03734 35.9972 9.14538C35.9676 9.38707 35.9593 9.62802 35.9479 9.8712C35.9377 10.0094 35.9189 10.1469 35.8917 10.2829C35.8678 10.4177 35.8337 10.551 35.8052 10.6854C35.784 10.786 35.7673 10.8874 35.7438 10.9872C35.7028 11.1569 35.6588 11.3258 35.6136 11.4944C35.5859 11.5972 35.5601 11.7012 35.5226 11.801C35.3936 12.1463 35.2752 12.4957 35.0988 12.8228C34.9922 13.0195 34.9049 13.2267 34.793 13.4205C34.6765 13.6232 34.546 13.8189 34.4136 14.0108C34.2907 14.1864 34.1541 14.3531 34.0247 14.5246C33.7671 14.8675 33.4775 15.1861 33.1597 15.4766C32.8941 15.7171 32.6183 15.9496 32.3345 16.1697C32.1009 16.3525 31.8561 16.5213 31.6015 16.675C31.2836 16.8691 30.9542 17.0445 30.6151 17.2003C30.3368 17.3268 30.0517 17.4383 29.7611 17.5345C29.483 17.6254 29.2075 17.729 28.9139 17.7728C28.7802 17.7996 28.648 17.833 28.5178 17.8731C28.5061 17.8767 28.4942 17.8795 28.4821 17.8816C28.3622 17.8991 28.2423 17.921 28.1217 17.9332C27.7336 17.9733 27.3454 18.0142 26.9543 17.9952C26.8811 17.9915 26.8075 17.9952 26.7342 17.9952L26.732 17.9867ZM26.7415 16.2789C27.0803 16.2532 27.4244 16.3271 27.7613 16.2365C28.0132 16.2432 28.2465 16.1445 28.492 16.1107C28.622 16.0881 28.7501 16.056 28.8752 16.0145C29.0767 15.9551 29.2796 15.8987 29.4762 15.8256C29.6571 15.758 29.8324 15.6737 30.0073 15.5909C30.1822 15.5081 30.3431 15.4242 30.5097 15.3385C30.7447 15.2141 30.9684 15.0702 31.1781 14.9082C31.3853 14.7519 31.5978 14.6015 31.7962 14.4348C31.9515 14.3014 32.0984 14.1588 32.2359 14.0078C32.5857 13.6348 32.8964 13.2285 33.1635 12.7949C33.2072 12.7236 33.2527 12.6531 33.2899 12.5785C33.3908 12.3761 33.4883 12.1723 33.5866 11.9685C33.7496 11.6324 33.8737 11.2795 33.9565 10.9163C33.988 10.7786 34.0509 10.6494 34.0657 10.5042C34.0813 10.3516 34.1253 10.2024 34.1496 10.0505C34.1692 9.93265 34.1819 9.81377 34.1875 9.69448C34.1993 9.40786 34.2152 9.12087 34.2088 8.83463C34.2027 8.57214 34.1708 8.3104 34.1477 8.04866C34.1414 7.93372 34.1235 7.81968 34.0942 7.70821C34.0649 7.61333 34.0486 7.51509 34.0456 7.41602C34.0444 7.40429 34.0415 7.39279 34.0369 7.38187C34.0066 7.29313 33.9728 7.20514 33.9462 7.1153C33.9197 7.02545 33.903 6.9215 33.8703 6.82757C33.8248 6.68834 33.7702 6.55209 33.7186 6.41472C33.6365 6.1847 33.5363 5.96127 33.4189 5.74644C33.3248 5.58123 33.2174 5.42307 33.1351 5.25266C33.0527 5.08225 32.9454 4.94191 32.8361 4.79415C32.7519 4.67831 32.6616 4.56619 32.5705 4.45407C32.4878 4.3516 32.4078 4.24616 32.3163 4.15186C32.0363 3.86264 31.7518 3.57714 31.4267 3.33508C31.2438 3.19956 31.0602 3.06368 30.8686 2.94079C30.7009 2.8335 30.5176 2.74959 30.3473 2.64601C29.9633 2.4136 29.5403 2.27251 29.1192 2.12624C29.0205 2.09208 28.9188 2.06386 28.8156 2.03899C28.6309 1.99332 28.4461 1.9484 28.2594 1.91053C28.1358 1.88417 28.0018 1.86858 27.8702 1.85001C27.6615 1.82106 27.4528 1.77168 27.2442 1.77094C26.8648 1.77094 26.4823 1.73381 26.1011 1.79581C25.8981 1.82774 25.6887 1.81512 25.4845 1.85855C25.343 1.88863 25.1985 1.90348 25.0554 1.92538C25.0435 1.92781 25.0317 1.93104 25.0202 1.93503C24.933 1.96494 24.8444 1.99047 24.7546 2.01151C24.5225 2.06072 24.2943 2.12598 24.0717 2.2068C24.0106 2.22722 23.9446 2.23465 23.885 2.25766C23.7458 2.31187 23.6084 2.37127 23.4707 2.42919C23.1981 2.53876 22.9321 2.66346 22.674 2.80268C22.4368 2.93597 22.1978 3.06702 21.9649 3.20773C21.7725 3.32394 21.5855 3.4498 21.4003 3.5764C21.2421 3.68481 21.0824 3.7921 20.9348 3.91351C20.6165 4.17339 20.2997 4.43848 19.9912 4.71173C19.5276 5.12061 19.0832 5.54732 18.658 5.99185C18.4194 6.24208 18.2107 6.52016 17.991 6.78784C17.9565 6.8298 17.9398 6.88586 17.9064 6.93004C17.823 7.04142 17.7372 7.15094 17.6473 7.25749C17.5809 7.3362 17.5005 7.40377 17.4371 7.48471C17.2633 7.70747 17.0956 7.93431 16.9234 8.15855C16.8983 8.18912 16.8702 8.21722 16.8396 8.24246C16.783 8.29332 16.7493 8.29629 16.6939 8.24469C16.6411 8.19571 16.5924 8.1427 16.5482 8.08616C16.3762 7.86191 16.2061 7.63668 16.0379 7.41045C15.9472 7.28942 15.8592 7.16728 15.7723 7.04439C15.7241 6.97682 15.7222 6.92521 15.7651 6.86989C15.8949 6.70357 16.0208 6.5339 16.157 6.37277C16.368 6.12402 16.5869 5.88121 16.802 5.63544C16.8468 5.58457 16.8525 5.53631 16.8138 5.49695C16.6745 5.3555 16.5368 5.21219 16.3926 5.07557C16.2223 4.9137 16.047 4.75665 15.8725 4.59961C15.7329 4.47375 15.5948 4.34566 15.4491 4.22834C15.2472 4.06387 15.0408 3.9046 14.8322 3.74829C14.6307 3.59719 14.4273 3.44794 14.2179 3.30797C14.0085 3.16801 13.7926 3.03509 13.5729 2.90738C13.3973 2.80417 13.2167 2.70764 13.0331 2.61853C12.8494 2.52943 12.6537 2.44367 12.459 2.36496C12.2473 2.27845 12.0326 2.199 11.8171 2.12178C11.7079 2.08131 11.594 2.05421 11.4828 2.0208C11.4366 2.00706 11.3918 1.98738 11.3447 1.97587C11.2188 1.9458 11.0924 1.91647 10.9654 1.8916C10.743 1.84779 10.5211 1.80361 10.2976 1.76759C10.1455 1.74179 9.99174 1.72591 9.83744 1.72007C9.45805 1.71042 9.07865 1.70634 8.70191 1.71116C8.55015 1.71302 8.39535 1.7442 8.24208 1.76165C8.07362 1.78096 7.90479 1.79878 7.73634 1.81846C7.72428 1.82056 7.71237 1.82341 7.70068 1.827C7.57661 1.8567 7.45179 1.88528 7.32773 1.91647C7.22188 1.9432 7.11527 1.96845 7.01169 2.00223C6.83641 2.05978 6.66454 2.12624 6.48926 2.18378C6.3375 2.23353 6.18347 2.27697 6.04081 2.35197C5.83784 2.45852 5.63069 2.5569 5.42809 2.66346C5.3431 2.70801 5.2676 2.76927 5.18376 2.81568C4.75309 3.05871 4.35486 3.35301 3.99814 3.69186C3.78833 3.88789 3.60698 4.1125 3.4097 4.32301C3.22 4.52424 3.06824 4.75331 2.91648 4.98015C2.79887 5.15427 2.69908 5.33991 2.59399 5.5222C2.4295 5.81259 2.28991 6.11584 2.17666 6.42883C2.14934 6.50308 2.12771 6.57733 2.10305 6.65159C2.07004 6.75331 2.03552 6.85467 2.00365 6.95714C1.98051 7.03139 1.95812 7.10936 1.93953 7.18621C1.90994 7.3091 1.88262 7.43236 1.85644 7.55747C1.8481 7.5946 1.84999 7.6373 1.84127 7.67554C1.78815 7.90424 1.74035 8.13294 1.74073 8.3698C1.74073 8.47673 1.71721 8.58365 1.71 8.69058C1.70172 8.7937 1.69932 8.8972 1.70279 9.00058C1.71 9.1554 1.73883 9.30985 1.73731 9.46429C1.73731 9.67257 1.77525 9.87528 1.80485 10.0795C1.82951 10.2477 1.87124 10.4136 1.90577 10.5811C1.92269 10.6908 1.94587 10.7995 1.9752 10.9067C2.05715 11.1587 2.14251 11.4097 2.23888 11.657C2.36643 11.9849 2.52032 12.3025 2.69908 12.6067C2.8129 12.7986 2.94114 12.9813 3.06255 13.1684C3.24048 13.4431 3.46167 13.6856 3.67983 13.9284C4.00914 14.2948 4.39347 14.6037 4.79601 14.8888C4.97433 15.0155 5.16517 15.1257 5.35335 15.239C5.45616 15.3006 5.56277 15.357 5.6709 15.4097C5.86933 15.5063 6.06699 15.6058 6.27111 15.6893C6.44867 15.7635 6.63381 15.8185 6.81744 15.8749C7.03256 15.9425 7.2473 16.0123 7.46621 16.0658C7.61493 16.1029 7.76973 16.1118 7.92149 16.1341C7.95374 16.1389 7.98485 16.1493 8.01671 16.1541C8.18099 16.1805 8.34527 16.2247 8.50993 16.2284C9.07903 16.2388 9.64812 16.2688 10.2172 16.1872C10.369 16.1653 10.523 16.1452 10.6725 16.1151C10.8705 16.0754 11.0686 16.0323 11.2636 15.9804C11.4928 15.9192 11.7204 15.8518 11.9465 15.778C12.1146 15.7231 12.2792 15.6574 12.442 15.5891C12.6533 15.5011 12.8658 15.4142 13.0691 15.3106C13.3082 15.1888 13.5392 15.0507 13.7718 14.9178C14.1561 14.6934 14.5262 14.4464 14.88 14.1782C15.1835 13.9503 15.4817 13.7131 15.7663 13.461C15.9514 13.2969 16.1354 13.1305 16.3156 12.9609C16.4556 12.8294 16.5903 12.6932 16.725 12.5566C16.7834 12.4972 16.78 12.4775 16.725 12.4147C16.5262 12.1816 16.3225 11.9518 16.1305 11.713C15.8589 11.3756 15.5929 11.0329 15.33 10.6887C15.1023 10.3917 14.8796 10.0914 14.6619 9.78766C14.43 9.46466 14.218 9.12755 13.96 8.82238C13.7904 8.62189 13.6276 8.41398 13.4626 8.21164C13.2779 7.99256 13.0721 7.79139 12.848 7.61094C12.6371 7.43233 12.4096 7.27347 12.1685 7.13646C12.036 7.06221 11.8972 6.99798 11.7655 6.92187C11.5132 6.77596 11.2344 6.68983 10.9658 6.58439C10.8019 6.52016 10.6243 6.49009 10.4521 6.44554C10.3659 6.42326 10.2806 6.39838 10.1937 6.38094C10.0309 6.34864 9.86779 6.31411 9.70313 6.29443C9.63029 6.28589 9.5639 6.27141 9.51685 6.22018C9.41328 6.1088 9.29946 6.12179 9.17539 6.17266C9.14289 6.18609 9.10681 6.18883 9.07258 6.18045C8.92082 6.13293 8.76906 6.07798 8.6173 6.0286C8.42023 5.95964 8.23103 5.87081 8.05276 5.76352C7.88114 5.65984 7.7238 5.53507 7.58458 5.39226C7.40285 5.21516 7.25109 5.01765 7.17521 4.77039C7.15624 4.70876 7.16724 4.66458 7.2067 4.63228C7.25526 4.59515 7.31483 4.55023 7.37326 4.54392C7.62707 4.51607 7.88203 4.49305 8.13736 4.48377C8.40598 4.47412 8.67535 4.47486 8.94396 4.48377C9.19892 4.49342 9.45311 4.5209 9.70807 4.5402C9.71204 4.54046 9.71598 4.54108 9.71983 4.54206C9.95088 4.58735 10.1823 4.62968 10.4122 4.67943C10.5928 4.71878 10.7738 4.75999 10.9502 4.8142C11.1399 4.87211 11.3209 4.95231 11.5094 5.01134C11.7535 5.09257 11.9902 5.19328 12.2174 5.31243C12.5182 5.46489 12.8109 5.6323 13.0942 5.81401C13.3602 5.98033 13.6151 6.16299 13.8575 6.36089C14.0472 6.5157 14.2172 6.68909 14.4061 6.84353C14.6774 7.06443 14.9073 7.32618 15.1383 7.58161C15.3481 7.81439 15.5333 8.06871 15.7215 8.31931C15.915 8.57697 16.1009 8.84168 16.2864 9.10342C16.4556 9.33955 16.6203 9.57901 16.7948 9.81143C16.9428 10.0082 17.1006 10.1979 17.2561 10.3891C17.4648 10.6455 17.6747 10.9013 17.8859 11.1565C17.9508 11.2352 17.9789 11.2341 18.0438 11.1565C18.2335 10.9274 18.4296 10.701 18.6159 10.4682C18.8621 10.1608 19.1061 9.85115 19.3428 9.53632C19.5325 9.28571 19.7245 9.0392 19.8873 8.76966C20.0257 8.54021 20.2037 8.33342 20.3645 8.11697C20.4193 8.03446 20.4798 7.9557 20.5455 7.88122C20.7352 7.68853 20.9272 7.49882 21.1036 7.29388C21.2927 7.07641 21.5002 6.87496 21.724 6.69168C21.9417 6.51162 22.1667 6.33973 22.3913 6.16783C22.5 6.08043 22.614 5.9996 22.7328 5.92576C23.0325 5.7483 23.336 5.5764 23.6407 5.40785C23.7606 5.34239 23.8844 5.28387 24.0113 5.23261C24.1821 5.16281 24.3562 5.10007 24.5304 5.0377C24.6666 4.98906 24.8039 4.94265 24.942 4.90033C25.0733 4.86023 25.2076 4.82608 25.3392 4.79081C25.4595 4.75925 25.5801 4.72769 25.7023 4.70393C25.8541 4.6746 26.0058 4.64985 26.1576 4.62968C26.4068 4.59552 26.6561 4.54763 26.9065 4.53835C27.2643 4.52535 27.6228 4.53835 27.981 4.54689C28.0574 4.55399 28.1334 4.56527 28.2086 4.58067C28.3372 4.59812 28.4666 4.61186 28.5956 4.63005C28.6681 4.64288 28.7335 4.68068 28.78 4.7366C28.7947 4.74984 28.8052 4.76707 28.8099 4.78611C28.8146 4.80515 28.8134 4.82514 28.8065 4.84353C28.7912 4.8971 28.77 4.94889 28.7432 4.99797C28.5599 5.31206 28.3038 5.55933 28.006 5.76946C27.8542 5.87676 27.6839 5.94878 27.5151 6.02378C27.4744 6.04651 27.4323 6.06684 27.3891 6.08467C27.2241 6.13479 27.0579 6.18119 26.8917 6.22723C26.8128 6.24914 26.7358 6.26436 26.6542 6.22723C26.5279 6.16931 26.455 6.18751 26.3663 6.29369C26.3517 6.31528 26.3312 6.33236 26.307 6.34295C26.2829 6.35353 26.2562 6.35718 26.2301 6.35346C26.0806 6.33304 25.9417 6.39059 25.7987 6.41509C25.6556 6.4396 25.5168 6.48229 25.3768 6.5183C25.2876 6.54169 25.1981 6.56434 25.1112 6.59256C25.0016 6.62968 24.8968 6.68389 24.7845 6.70951C24.5531 6.76222 24.3505 6.87954 24.1396 6.97607C23.9314 7.07221 23.7315 7.18483 23.542 7.31281C23.3165 7.46234 23.102 7.62722 22.9001 7.80622C22.6606 8.0179 22.4403 8.24958 22.2418 8.49863C22.0821 8.70246 21.9197 8.90405 21.7657 9.11196C21.6018 9.33472 21.4512 9.56342 21.2873 9.78395C20.9735 10.2065 20.6578 10.6275 20.3357 11.0437C20.1339 11.3035 19.9218 11.559 19.709 11.8122C19.55 12.0015 19.3846 12.1857 19.2158 12.3691C19.1475 12.4433 19.1365 12.4604 19.2036 12.5376C19.2765 12.6215 19.358 12.6984 19.4373 12.7775C19.5413 12.881 19.6593 12.9746 19.7484 13.0897C19.8695 13.246 20.0227 13.3689 20.1635 13.5033C20.3247 13.6574 20.5049 13.7918 20.678 13.9347C20.7208 13.9718 20.7626 14.009 20.8073 14.0405C21.0202 14.1976 21.2323 14.3553 21.4478 14.5083C21.631 14.6379 21.8142 14.7682 22.0062 14.8851C22.2528 15.0336 22.5044 15.1781 22.7616 15.3088C23.0188 15.4394 23.2852 15.5542 23.5496 15.6711C23.6968 15.7361 23.8463 15.7973 23.9988 15.8489C24.1707 15.9072 24.3456 15.9566 24.5212 16.0038C24.6844 16.0476 24.8494 16.0862 25.0145 16.1214C25.1529 16.1511 25.2933 16.1742 25.4318 16.1957C25.6113 16.225 25.7903 16.2655 25.9709 16.2752C26.2293 16.2893 26.4865 16.2792 26.743 16.2792L26.7415 16.2789Z" fill="#EAF5FF"/>
</svg>
