<svg fill="none" xmlns="http://www.w3.org/2000/svg" viewBox="0 0 1075 585"><g clip-path="url(#clip0)"><path d="M547.5 583.84c291.33 0 527.5-15.63 527.5-34.92S838.83 514 547.5 514C256.17 514 20 529.63 20 548.92s236.17 34.92 527.5 34.92z" fill="#F2F2F2"/><path d="M514.66 181C428.71 181 367 236.14 367 364.8c0 145.81 61.71 184.4 147.66 184.4 85.95 0 151.32-42.27 151.32-184.4 0-151.94-65.38-183.8-151.32-183.8zm.56 319.8c-59.53 0-90.63-34.91-90.63-135.9 0-89.12 32.38-136.11 91.9-136.11s91.9 30.86 91.9 136.1c0 98.45-33.64 135.92-93.17 135.92v-.01z" fill="#2F2E41"/><path d="M322.5 415.03h-35.53V310.39a20.96 20.96 0 00-20.96-20.95h-8.32a20.96 20.96 0 00-20.96 20.95v104.64H136.5a11.96 11.96 0 01-10.58-17.55L232.01 196.7a20.98 20.98 0 00-9.58-28.74l-6.27-2.95a20.96 20.96 0 00-27.43 9.07L59.35 416.1a28.42 28.42 0 0025.06 41.8h152.32v66.18a25.12 25.12 0 0050.24 0V457.9h35.53a21.43 21.43 0 0015.17-36.6 21.43 21.43 0 00-15.17-6.28zM386.27 357.44c0-128.66 61.72-183.8 147.65-183.8 85.95 0 151.34 31.86 151.34 183.8 0 142.14-65.38 184.4-151.34 184.4-85.94 0-147.64-38.6-147.64-184.4zM944.3 415.03h35.54a21.42 21.42 0 0121.44 21.45 21.44 21.44 0 01-21.44 21.44H944.3v66.17a25.12 25.12 0 01-50.23 0V457.9H741.75a28.42 28.42 0 01-25.06-41.8l129.38-242.03A20.95 20.95 0 01873.5 165l6.26 2.95a20.94 20.94 0 019.58 28.74L783.26 397.48a11.96 11.96 0 0010.58 17.55h100.23V310.39a20.95 20.95 0 0120.95-20.95h8.33a20.95 20.95 0 0120.95 20.95v104.64z" stroke="#3F3D56" stroke-miterlimit="10"/><path d="M309.51 415.04h-35.53V310.4a20.96 20.96 0 00-20.96-20.96h-8.33a20.96 20.96 0 00-20.95 20.96v104.64H123.5a11.96 11.96 0 01-10.58-17.56L219 196.7a20.95 20.95 0 00-9.58-28.73l-6.26-2.96a20.96 20.96 0 00-27.43 9.07L46.36 416.1a28.42 28.42 0 0025.06 41.82h152.32v66.17a25.12 25.12 0 0050.24 0v-66.18h35.53a21.44 21.44 0 100-42.88zm657.99 0h-35.53V310.4a20.96 20.96 0 00-20.95-20.96h-8.33a20.96 20.96 0 00-20.95 20.96v104.64H781.5a11.96 11.96 0 01-10.58-17.56L877 196.7a20.95 20.95 0 00-9.58-28.73l-6.26-2.96a20.96 20.96 0 00-27.43 9.07L704.36 416.1a28.42 28.42 0 0025.06 41.8h152.32v66.18a25.12 25.12 0 0050.23 0v-66.17h35.54a21.44 21.44 0 100-42.88h-.01z" fill="#1A2639"/></g><defs><clipPath id="clip0"><path fill="#fff" d="M0 0h1074.39v584.23H0z"/></clipPath></defs></svg>