<svg fill="none" xmlns="http://www.w3.org/2000/svg" viewBox="0 0 1055 435"><path d="M527.5 434.84c291.33 0 527.5-15.63 527.5-34.92S818.83 365 527.5 365C236.17 365 0 380.63 0 399.92s236.17 34.92 527.5 34.92z" fill="#F2F2F2"/><path d="M312.5 266.28h-35.53V161.64a20.96 20.96 0 00-20.96-20.95h-8.32a20.96 20.96 0 00-20.96 20.95v104.64H126.5a11.96 11.96 0 01-10.58-17.55L222.01 47.95a20.98 20.98 0 00-9.58-28.74l-6.27-2.95a20.96 20.96 0 00-27.43 9.07L49.35 267.36a28.42 28.42 0 00-3.35 13.4v0a28.42 28.42 0 0028.41 28.41h152.32v66.17a25.13 25.13 0 0025.12 25.12v0a25.13 25.13 0 0025.12-25.12v-66.17h35.53a21.45 21.45 0 100-42.89v0zm666.58 0h-35.54V161.64a20.96 20.96 0 00-20.95-20.95h-8.33a20.96 20.96 0 00-20.95 20.95v104.64H793.08a11.96 11.96 0 01-10.58-17.55L888.58 47.95A20.98 20.98 0 00879 19.21l-6.26-2.95a20.96 20.96 0 00-27.43 9.07L715.93 267.36a28.42 28.42 0 00-3.36 13.4v0a28.42 28.42 0 0028.42 28.41h152.32v66.17a25.12 25.12 0 0025.11 25.12v0a25.13 25.13 0 0025.12-25.12v-66.17h35.54a21.44 21.44 0 0021.44-21.44v0a21.47 21.47 0 00-21.44-21.45v0zM521.42 1c-85.94 0-147.65 55.14-147.65 183.8 0 145.81 61.7 184.41 147.65 184.41s151.33-42.27 151.33-184.41C672.75 32.86 607.36 1 521.42 1v0zm.57 319.81c-59.53 0-90.63-34.92-90.63-135.92 0-89.1 32.37-136.1 91.9-136.1 59.53 0 91.9 30.87 91.9 136.1 0 98.45-33.65 135.92-93.17 135.92z" stroke="#3F3D56" stroke-miterlimit="10"/><path d="M299.51 260.04h-35.53V155.4a20.96 20.96 0 00-20.96-20.96h-8.33a20.96 20.96 0 00-20.95 20.96v104.64H113.5a11.96 11.96 0 01-10.58-17.56L209 41.7a20.95 20.95 0 00-9.58-28.73L193.16 10a20.96 20.96 0 00-27.43 9.07L36.36 261.1a28.42 28.42 0 0025.06 41.82h152.32v66.17a25.12 25.12 0 0050.24 0v-66.18h35.53a21.44 21.44 0 100-42.88zm657.99 0h-35.53V155.4a20.96 20.96 0 00-20.95-20.96h-8.33a20.96 20.96 0 00-20.95 20.96v104.64H771.5a11.96 11.96 0 01-10.58-17.56L867 41.7a20.95 20.95 0 00-9.58-28.73L851.16 10a20.96 20.96 0 00-27.43 9.07L694.36 261.1a28.42 28.42 0 0025.06 41.8h152.32v66.18a25.12 25.12 0 0050.23 0v-66.17h35.54a21.44 21.44 0 100-42.88h-.01z" fill="#1A2639"/><path d="M504.66 26C418.71 26 357 81.14 357 209.8c0 145.81 61.71 184.4 147.66 184.4 85.95 0 151.32-42.27 151.32-184.4C655.98 57.86 590.6 26 504.66 26zm.56 319.8c-59.53 0-90.63-34.91-90.63-135.9 0-89.12 32.38-136.11 91.9-136.11s91.9 30.86 91.9 136.1c0 98.45-33.64 135.92-93.17 135.92v-.01z" fill="#2F2E41"/></svg>