<svg fill="none" xmlns="http://www.w3.org/2000/svg" viewBox="0 0 38 33"><path d="M36.37 10.26v17.46l-.02.4c0 .11.03-.02 0-.05.02.01 0 .1 0 .1a3.15 3.15 0 01-.19.69l-.04.1c.02 0 .07-.15.02-.04l-.12.24-.23.38-.06.09c-.07.1.13-.16 0-.02l-.15.18c-.1.1-.2.21-.32.31l-.08.07.04-.03c0 .04-.19.13-.22.15-.12.08-.24.15-.37.21l-.12.06-.03.01c.12-.03 0 0-.02.01l-.16.05c-.14.05-.3.1-.44.12l-.22.04c.02 0 .2-.02.04-.01l-.16.01H6.06c-.46 0-.93.02-1.4 0h-.33c-.15-.02.02 0 .04 0l-.48-.1-.2-.07a1.54 1.54 0 00-.13-.04c-.03-.01-.14-.04-.03 0 .11.02 0 0-.02-.02l-.13-.06a3.52 3.52 0 01-.2-.11c-.06-.03-.38-.19-.38-.25 0 0 .15.13.04.03l-.08-.07a7.7 7.7 0 01-.2-.18l-.28-.31c-.12-.13.07.11 0 .02l-.05-.09-.15-.22a4.72 4.72 0 01-.23-.46 3.14 3.14 0 01-.18-.68s-.03-.1-.02-.11a3.23 3.23 0 010-.23v-.25-2.92-5.21-5.39-3.44-.31-.06-.28l.01-.11c0-.12-.03.01 0 .05-.03-.04.03-.23.04-.27.03-.15.07-.28.12-.42.01-.03.05-.2.07-.2-.04.01-.07.15 0 .02l.05-.13a3.75 3.75 0 01.37-.58s-.13.15-.03.04l.08-.1a3.88 3.88 0 01.47-.46l-.04.03.13-.1a4.82 4.82 0 01.58-.32c.03-.02.14-.05.02-.02l.08-.02c.15-.06.3-.1.44-.13l.22-.05c.03 0 .07 0 .1-.02-.2.05-.04.01.01 0h5.26c.37 0 .68-.26.79-.6l.68-2.21.45-1.45.14-.43.03-.09v-.04c.03-.06.02-.16 0 0 0-.04.05-.1.08-.15l.09-.14c.07-.13-.03.02-.03.03.02-.08.15-.17.2-.23.08-.06.06-.11 0 0 .01-.02.08-.05.11-.07l.12-.07.1-.05-.09.04c.05-.05.2-.07.27-.09h.05c.1-.02.08-.02-.04 0 .03-.02.1-.02.14-.02h12.57l.14.01-.1-.01.09.02c.07.01.24.03.3.08-.04 0-.07-.02-.1-.03l.1.05.1.05c.03.02.12.06.14.1-.07-.12-.08-.07-.01 0 .07.05.13.13.2.2.07.08-.11-.17-.02-.02l.1.15c.02.04.06.1.07.15-.03-.15-.04-.09-.02-.03l.02.07.03.09.33 1.09.88 2.8.06.2c.1.33.42.59.78.59H33.36l.37.02c.1 0-.08-.01-.08-.01l.11.01.22.05c.11.03.22.05.34.1l.18.06c.1.04-.02-.03-.05-.02l.1.04c.23.11.43.24.64.38l-.04-.03c.02 0 .07.06.08.06a4.99 4.99 0 01.5.5c.02 0 .1.14.12.17.07.11.15.23.21.36l.1.2c0 .02.02.1 0 0-.04-.13 0 .03.02.04a3.1 3.1 0 01.2.75V10v.26c0 .43.36.83.8.81.44-.02.82-.35.81-.8 0-1.24-.49-2.43-1.36-3.31a4.77 4.77 0 00-3.28-1.4c-1.17-.02-2.34 0-3.5 0h-1.48l.78.6-.7-2.29-.46-1.45c-.12-.38-.22-.77-.44-1.1A2.81 2.81 0 0025.2 0H13.54c-.7 0-1.36-.01-2.02.32-.7.34-1.16 1-1.39 1.71-.1.36-.22.7-.33 1.06l-.89 2.87-.06.2.78-.6H5.37c-.81 0-1.61 0-2.38.32A4.79 4.79 0 00.2 9c-.26.91-.18 1.93-.18 2.87V27.6c0 .87.2 1.72.64 2.48a4.76 4.76 0 003.56 2.3c.26.04.52.04.78.04h28.3A4.73 4.73 0 0038 27.7v-2.5-5.1-5.53-3.76-.54c0-.43-.37-.84-.8-.82a.82.82 0 00-.82.81z" fill="#000"/><path d="M26.5 19a8 8 0 01-.03.62l-.03.33v.06c-.02.09-.01.07 0-.05.01.04-.02.13-.02.17-.07.41-.17.82-.3 1.22-.06.2-.13.38-.2.56-.07.18.07-.16-.01 0l-.06.13-.15.31c-.18.37-.4.72-.63 1.06-.04.05-.1.17-.16.21l.06-.08-.07.09-.1.12a11.86 11.86 0 01-.83.86l-.21.19-.13.1-.08.06.08-.06c-.05.08-.19.14-.26.2l-.22.14a9.33 9.33 0 01-1.07.6l-.15.07c-.18.08.17-.07 0 0l-.3.12c-.4.14-.8.26-1.22.34l-.27.05c-.04 0-.13.03-.17.02l.1-.01a40.71 40.71 0 01-.77.06 8.35 8.35 0 01-1.26-.05c-.03.01-.12-.02-.16-.02l-.3-.06a7.93 7.93 0 01-1.19-.32l-.3-.12c-.17-.07.13.06.02 0a8.17 8.17 0 01-1.49-.84c-.07-.04-.19-.1-.23-.17l.08.06-.09-.06a7.91 7.91 0 01-1.2-1.2l-.07-.08-.04-.04.03.04c-.07-.06-.13-.19-.19-.26a6.97 6.97 0 01-.8-1.45c-.09-.17.06.17-.01 0a8.68 8.68 0 01-.5-1.8c-.01-.03-.04-.12-.03-.16l.01.1-.01-.1-.03-.34a8.25 8.25 0 010-1.3c0-.1.02-.2.03-.29v-.05c.02-.1.02-.08 0 .05-.01-.04.02-.13.02-.17l.14-.65c.1-.4.24-.78.38-1.17.04-.1-.09.2 0 .03l.06-.15a6.53 6.53 0 01.42-.8c.1-.17.2-.34.32-.5.06-.07.12-.2.2-.26-.13.09-.07.08-.02.02l.12-.15c.26-.31.55-.6.85-.88l.2-.17.12-.1.04-.03c.07-.06.06-.05-.03.02.04-.06.15-.1.21-.15a8.29 8.29 0 011.39-.8l.1-.05c.17-.08-.17.07 0 0l.3-.12a7.3 7.3 0 011.16-.33l.33-.06c.04 0 .13-.04.17-.02-.12.01-.15.02-.08 0h.08c.44-.05.87-.06 1.3-.05l.62.05h.06c.09.02.07.02-.05 0 .04-.01.13.02.17.03l.33.06c.4.08.81.2 1.2.34l.26.1c.18.07-.17-.08 0 0l.15.07a7.58 7.58 0 011.3.74c.06.06.2.12.25.2l-.08-.07.09.07.12.1a7.68 7.68 0 011.05 1.05l.1.12.03.04-.03-.03c.08.05.14.18.2.26.23.33.44.69.63 1.05l.12.24.06.15c.08.18-.07-.17 0 0a7.95 7.95 0 01.51 1.84l.02.12c-.05-.23 0-.05 0 0l.03.3V19c0 .43.38.83.82.81a.83.83 0 00.81-.8 9.13 9.13 0 00-16.1-5.87 9.09 9.09 0 008.83 14.8 9.16 9.16 0 007.28-8.94c0-.43-.38-.84-.82-.81a.84.84 0 00-.81.81zM15.46 6.07h7.08c.43 0 .84-.38.82-.82a.83.83 0 00-.82-.8h-7.08c-.43 0-.83.37-.81.8.02.45.36.82.81.82z" fill="#000"/></svg>