<svg fill="none" xmlns="http://www.w3.org/2000/svg" viewBox="0 0 26 23"><path d="M23.39 7.38v11.75c0 .1 0 .22-.02.33l.05-.35c-.04.22-.1.43-.18.64.05-.1.1-.2.13-.3-.08.2-.19.38-.32.55l.2-.26a2.6 2.6 0 01-.45.45l.26-.2c-.17.13-.36.24-.56.33.1-.05.2-.1.3-.13-.2.08-.41.14-.63.17l.34-.05c-.24.03-.5.02-.75.02H3.82c-.11 0-.22 0-.34-.02l.35.05a2.71 2.71 0 01-.64-.17l.3.13c-.2-.09-.38-.2-.55-.33l.26.2a2.61 2.61 0 01-.46-.45l.2.26a2.56 2.56 0 01-.32-.56l.13.31c-.08-.2-.14-.42-.17-.64l.05.35c-.06-.46-.02-.95-.02-1.4V15.2v-3.48-2.98-1.35c0-.11 0-.22.02-.33l-.05.34c.03-.22.09-.43.17-.64l-.13.31c.09-.2.2-.38.33-.56l-.2.27c.13-.17.28-.33.45-.46l-.26.2c.17-.13.36-.24.56-.32l-.31.13c.2-.09.42-.14.64-.18l-.35.05c.42-.05.85-.02 1.27-.02h2.22c.6 0 1.09-.4 1.26-.96l.74-2.4c.05-.12.08-.26.13-.4l-.13.32c.05-.1.1-.2.17-.29l-.2.27c.06-.09.13-.17.22-.23l-.26.2c.08-.06.17-.12.27-.16l-.3.13.3-.1-.34.06c.3-.05.63-.02.93-.02h6.29c.37 0 .76-.03 1.12.02l-.35-.05c.11.02.22.05.32.09-.1-.05-.21-.1-.31-.13.1.04.19.1.27.16l-.26-.2c.08.06.16.14.23.23l-.2-.27c.06.1.11.19.15.29l-.13-.31c.13.31.21.65.31.97l.46 1.48.1.34c.18.55.68.96 1.26.96h2.9c.2 0 .4 0 .6.02l-.35-.05c.22.04.43.1.64.18-.1-.05-.2-.1-.31-.13.2.08.39.19.56.32l-.26-.2c.17.13.32.28.45.46-.06-.1-.13-.18-.2-.27.13.17.24.36.33.56-.05-.1-.1-.2-.13-.3.08.2.14.41.17.63l-.05-.34.02.32c0 .34.14.68.38.92a1.32 1.32 0 001.85 0c.23-.25.38-.56.38-.92 0-1-.4-1.97-1.1-2.68a3.85 3.85 0 00-2.67-1.13h-3.2l1.25.96-.45-1.47-.3-.93c-.09-.3-.18-.63-.35-.9A2.61 2.61 0 0016.98 0H9.1a2.6 2.6 0 00-2.54 1.88l-.22.68-.57 1.85-.04.12 1.26-.95H3.8c-.61 0-1.17.15-1.72.4-.46.22-.88.56-1.19.95-.38.49-.7 1.02-.8 1.64-.13.64-.1 1.3-.1 1.95V19.13a3.54 3.54 0 00.68 2.16 3.89 3.89 0 003.27 1.65h17.39c.35 0 .7.02 1.05-.01a3.88 3.88 0 003.06-1.82c.38-.62.55-1.34.55-2.05V17.2v-3.43-3.6-2.43-.35c0-.34-.15-.69-.38-.93a1.32 1.32 0 00-1.85 0c-.23.26-.38.58-.38.93z" fill="#868686"/><path d="M16.31 13.1c0 .2-.01.4-.04.61l.05-.35a4.75 4.75 0 01-.2.88c-.15.36-.36.71-.6 1.03l.2-.27c-.23.3-.5.58-.81.82l.26-.2a4.7 4.7 0 01-1.03.6l.31-.13c-.38.16-.78.27-1.18.32l.34-.04c-.4.05-.81.05-1.22 0l.34.04a4.75 4.75 0 01-.87-.19 4.64 4.64 0 01-1.03-.6l.26.2c-.3-.24-.58-.51-.81-.82.06.1.13.18.2.27a4.71 4.71 0 01-.6-1.03l.13.3a4.64 4.64 0 01-.33-1.18l.05.35c-.05-.4-.05-.82 0-1.23l-.05.35a4.75 4.75 0 01.2-.87c.15-.37.35-.72.6-1.03l-.2.26c.23-.3.5-.58.81-.82l-.26.2a4.7 4.7 0 011.03-.6c-.1.05-.2.1-.31.13.38-.16.78-.26 1.18-.32l-.34.05c.4-.05.81-.05 1.22 0l-.34-.05c.4.06.8.17 1.18.32l-.31-.13c.37.16.71.36 1.03.6l-.26-.2c.3.24.58.52.81.82l-.2-.26a4.7 4.7 0 01.47.72c.16.38.27.77.33 1.18l-.05-.35c.03.2.04.41.04.62 0 .34.14.69.38.92a1.32 1.32 0 001.85 0c.23-.25.38-.57.38-.92a5.85 5.85 0 00-2.46-4.79 5.85 5.85 0 00-6.67-.18 5.83 5.83 0 00-2.31 2.86 5.8 5.8 0 00-.22 3.56 5.83 5.83 0 003.2 3.89c.3.14.62.27.96.36.34.1.69.14 1.04.19a5.82 5.82 0 004.8-1.78 5.77 5.77 0 001.66-4.1c0-.34-.15-.7-.38-.93-.23-.23-.6-.4-.93-.38-.7.03-1.3.57-1.3 1.3zM11.77 5.99h2.46c.34 0 .7-.15.93-.38a1.32 1.32 0 000-1.85 1.35 1.35 0 00-.92-.38h-2.47c-.34 0-.69.14-.93.38a1.32 1.32 0 000 1.85c.26.23.57.38.93.38z" fill="#868686"/></svg>