<svg data-name="Layer 1" xmlns="http://www.w3.org/2000/svg" xmlns:xlink="http://www.w3.org/1999/xlink" viewBox="0 0 798.8 755.1"><defs><linearGradient id="a" x1="589.6" y1="790.7" x2="589.6" y2="501.5" gradientUnits="userSpaceOnUse"><stop offset="0" stop-color="gray" stop-opacity=".3"/><stop offset=".5" stop-color="gray" stop-opacity=".1"/><stop offset="1" stop-color="gray" stop-opacity=".1"/></linearGradient><linearGradient id="c" x1="411.3" y1="295" x2="411.3" y2="145.7" xlink:href="#a"/><linearGradient id="d" x1="545.5" y1="654.4" x2="545.5" y2="72.4" gradientTransform="translate(-198.3 -72.4)" xlink:href="#a"/><linearGradient id="e" x1="725.9" y1="600.1" x2="725.9" y2="322.9" xlink:href="#a"/><linearGradient id="f" x1="637.9" y1="827.6" x2="637.9" y2="758.6" gradientTransform="translate(-198.3 -72.4)" xlink:href="#a"/><linearGradient id="b" x1="544.6" y1="346" x2="544.6" y2="205.9" gradientUnits="userSpaceOnUse"><stop offset="0" stop-opacity=".1"/><stop offset=".6" stop-opacity=".1"/><stop offset="1" stop-opacity="0"/></linearGradient><linearGradient id="g" x1="544.6" y1="339.9" x2="544.6" y2="212" xlink:href="#a"/><linearGradient id="h" x1="551.3" y1="291.9" x2="551.3" y2="217.1" gradientTransform="rotate(.1 32405.7 -87007.4)" xlink:href="#b"/><linearGradient id="i" x1="396.1" y1="399.9" x2="396.1" y2="262.8" xlink:href="#a"/><linearGradient id="j" x1="386.9" y1="501.4" x2="386.9" y2="378" xlink:href="#a"/><linearGradient id="k" x1="382.1" y1="603.7" x2="382.1" y2="494.2" xlink:href="#a"/><linearGradient id="l" x1="347.2" y1="384.6" x2="347.2" y2="323.6" xlink:href="#b"/><linearGradient id="m" x1="958.8" y1="334.2" x2="958.8" y2="269" gradientTransform="rotate(32.4 1024.2 -101.5)" xlink:href="#a"/></defs><path d="M23.7 448.6l-1.8-5.8" fill="none" stroke="#69f0ae" stroke-miterlimit="10" stroke-width="9"/><path d="M18.7 431.3c-24.4-93.7-100.1-525 659.6-255.7" fill="none" stroke="#69f0ae" stroke-miterlimit="10" stroke-width="9" stroke-dasharray="12.04 12.04"/><path d="M684 177.6l5.7 2" fill="none" stroke="#69f0ae" stroke-miterlimit="10" stroke-width="9"/><path d="M795 582.7a81.2 81.2 0 00-161-15.1l-249.6-6.8 2.7 42.9s-35.6 82 151.5 104v83h216.2v-138a81.2 81.2 0 0040.1-70z" transform="translate(-198.3 -72.4)" fill="url(#a)"/><path d="M197.3 533s-34 78.7 145 99.6v79.6h207.2V501.6L194.7 492z" fill="#f6b9ad"/><path d="M499.2 277.3a38.2 38.2 0 01-52.5 12l-111.2-73.4a38.2 38.2 0 01-12-52.5 38.2 38.2 0 0152.5-11.9l111.2 73.3a38.2 38.2 0 0112 52.5z" transform="translate(-198.3 -72.4)" fill="url(#c)"/><path d="M294.7 200.8a35.5 35.5 0 01-48.8 11.1l-103.4-68A35.5 35.5 0 01131.4 95a35.5 35.5 0 0148.8-11l103.3 68a35.5 35.5 0 0111.2 48.8z" fill="#f6b9ad"/><circle cx="510.1" cy="512.9" r="77.8" fill="#f6b9ad"/><rect x="186" width="322.4" height="582" rx="12.3" ry="12.3" fill="url(#d)"/><rect x="190.3" y="7.9" width="313.7" height="566.2" rx="13.6" ry="13.6" fill="#fff"/><path d="M426 22a25.4 25.4 0 01-25 21.7H292.5a25.4 25.4 0 01-25-21.6H210A12 12 0 00198.2 34v514a12 12 0 0012 11.9h274a12 12 0 0012-12V34a12 12 0 00-12-11.8z" fill="#1a2639"/><rect x="312.7" y="28.8" width="69.9" height="4.4" rx="2" ry="2" fill="#dbdbdb"/><circle cx="397.4" cy="30.6" r="2.6" fill="#dbdbdb"/><path d="M758.8 599c-22.6 5.3-38.1-9.4-43.3-32l-51.9-192.5a42.2 42.2 0 0131.6-50.6 42.2 42.2 0 0150.5 31.6L788 553c5.2 22.6-6.7 40.9-29.2 46z" transform="translate(-198.3 -72.4)" fill="url(#e)"/><rect x="693.9" y="330" width="70.8" height="282.6" rx="35.4" ry="35.4" transform="rotate(-13 312.8 1305)" fill="#f6b9ad"/><path fill="url(#f)" d="M291.6 686.1h296v69h-296z"/><path fill="#ff8976" d="M299.6 694.1h280v54h-280z"/><path d="M611.6 254.8l-23-17.3 10-13-16.7-13-10.4 13.2-23.6-17.8a5.2 5.2 0 00-6.2 0L479 253.5a11 11 0 00-4.6 9.5l-.2 71.7v3.2a7.8 7.8 0 007.8 7.8h3l59.4.2 62.4.1a7.8 7.8 0 007.8-7.8l.2-74.8h.1c0-5.2-1-6.6-3.4-8.6z" transform="translate(-198.3 -72.4)" fill="url(#b)"/><path d="M608.8 264.5c0-4.8-1-6-3.1-7.8l-58-43.7a4.7 4.7 0 00-5.8 0l-57 42.5a10 10 0 00-4.2 8.7l-.2 65.4v3a7.1 7.1 0 007.1 7h2.8l54.1.2 57 .1a7.1 7.1 0 007-7.1l.2-68.2z" transform="translate(-198.3 -72.4)" fill="url(#g)"/><path d="M283.3 192l125.9.3-.2 69.2a4.2 4.2 0 01-4.2 4.2l-117-.3a4.6 4.6 0 01-4.6-4.6l.2-68.8z" fill="#1a2639"/><path d="M283.3 192l125.9.3-.2 69.2a4.2 4.2 0 01-4.2 4.2l-117-.3a4.6 4.6 0 01-4.6-4.6l.2-68.8z" fill="#fff" opacity=".2"/><path d="M283.4 192l-.2 63.6a9.8 9.8 0 009.8 9.8l106.3.2" fill="#f5f5f5"/><path d="M409.2 192.3l-.2 63.6a9.8 9.8 0 01-9.7 9.7l-106.3-.2" fill="#fff"/><path d="M343.6 142.2l-56 41.3a9.8 9.8 0 00-4.1 8.5l125.8.4c0-4.7-1-5.9-3-7.7l-57-42.5a4.7 4.7 0 00-5.7 0z" fill="#1a2639"/><path d="M343.6 142.2l-56 41.3a9.8 9.8 0 00-4.1 8.5l125.8.4c0-4.7-1-5.9-3-7.7l-57-42.5a4.7 4.7 0 00-5.7 0z" opacity=".2"/><path fill="url(#h)" d="M395.6 156.6l-15.3-12-36.8 46.7-19.8-15.4-12.3 15.8 28.7 22 7.2 5.7 48.3-62.8z"/><path fill="#fff" d="M394.4 156.3l-13.8-10.6-36.5 47.7-20.3-15.6-10.6 13.8 27.2 20.9 7 5.2 47-61.4z"/><path d="M475.3 382.2a37.9 37.9 0 01-52.1 11.9l-94.5-61.6a37.9 37.9 0 01-11.9-52 37.9 37.9 0 0152.1-11.9l94.5 61.5a37.9 37.9 0 0111.9 52.1z" transform="translate(-198.3 -72.4)" fill="url(#i)"/><path d="M272 306.6a35.5 35.5 0 01-48.9 11L134.6 260a35.5 35.5 0 01-11-48.8 35.5 35.5 0 0148.7-11l88.5 57.6a35.5 35.5 0 0111.1 48.8z" fill="#f6b9ad"/><path d="M456 483.9a37.7 37.7 0 01-51.9 11.8l-74.6-48.3a37.7 37.7 0 01-11.7-51.9 37.7 37.7 0 0151.8-11.8l74.6 48.3a37.7 37.7 0 0111.8 51.9z" transform="translate(-198.3 -72.4)" fill="url(#j)"/><path d="M437.3 586a38 38 0 01-52.4 11.9l-46.1-33.7a38 38 0 01-12-52.3 38 38 0 0152.4-11.9l46.2 33.7a38 38 0 0111.9 52.3z" transform="translate(-198.3 -72.4)" fill="url(#k)"/><path d="M235.2 511a35.5 35.5 0 01-48.8 11.2l-43-31.5a35.5 35.5 0 01-11.1-48.8 35.5 35.5 0 0148.8-11l43 31.4a35.5 35.5 0 0111.1 48.8z" fill="#f6b9ad"/><path fill="url(#l)" d="M245.2 323.6h204v61h-204z"/><path fill="#69f0ae" d="M252.2 329.6h190v44h-190z"/><path fill="url(#m)" d="M795.2 214.5l3.6.6-.5-.5h.3l-.5-.2-65.1-61.7-15.8 24.9-13.1 22.7 6 1-2.6 12.3 87.7 1z"/><path fill="#1a2639" d="M720 178.9l-12 20.8 88 14.3-56.8-39.4-19.3 4.3z"/><path opacity=".2" d="M720 178.9l-12 20.8 88 14.3-56.8-39.4-19.3 4.3z"/><path fill="#1a2639" d="M734.4 156l61.5 58-76-35.1 14.5-22.8z"/><path fill="#1a2639" d="M711.2 212l84.5 1.5-79-28-5.5 26.4z"/><path d="M253.6 408.8a35.5 35.5 0 01-48.8 11.1l-70.2-45.4a35.5 35.5 0 01-11-48.8 35.5 35.5 0 0148.7-11.1l70.2 45.4a35.5 35.5 0 0111 48.8z" fill="#f6b9ad"/></svg>