<svg width="76" height="76" viewBox="0 0 76 76" fill="none"
    xmlns="http://www.w3.org/2000/svg">
    <circle cx="38" cy="38" r="36" stroke="#F0592C" stroke-width="4"/>
    <path d="M36.04 51V31.36H40.24V51H36.04ZM36.12 26C35.56 25.4667 35.28 24.8133 35.28 24.04C35.28 23.2667 35.56 22.6133 36.12 22.08C36.68 21.52 37.36 21.24 38.16 21.24C38.9333 21.24 39.6 21.52 40.16 22.08C40.72 22.6133 41 23.2667 41 24.04C41 24.8133 40.72 25.4667 40.16 26C39.6 26.5333 38.9333 26.8 38.16 26.8C37.36 26.8 36.68 26.5333 36.12 26Z" fill="#F0592C"/>
</svg>
