<svg fill="none" xmlns="http://www.w3.org/2000/svg" viewBox="0 0 1038 773"><g clip-path="url(#clip0)"><path opacity=".1" d="M104.4 77.33c-6.46 2.68-13.09 6.12-16.64 12.15-3.76 6.37-3.31 14.28-2.61 21.65 6.1 63.92 22.17 131.9-5.58 189.8-13.47 28.09-36 50.6-53.92 76.11C7.73 402.55-5.8 434.4 2.52 464.41c10.16 36.67 48.08 57 73.64 85.22 16.73 18.45 28.46 40.87 44.07 60.28 15.61 19.41 37 36.51 61.92 37.65 35.84 1.65 65-29.3 100.14-36.47 36-7.34 72.25 11.34 101.44 33.7 29.19 22.36 55.74 49.45 89.75 63.41 37.56 15.43 79.9 13.07 119.44 22.34 36 8.45 69.14 26.42 104.88 36 35.74 9.58 77.63 9 105.32-15.47 36.09-32 33.25-89 56.3-131.33 21.41-39.33 63.32-62.81 91.53-97.58 50.76-62.58 49.1-158.23 6-226.29s-121.17-109.27-201-120c-36-4.83-73.07-4.17-107.68-15.16C555.63 131.31 500.5 25.97 405.92 4.05 345.8-9.86 287.33 14.23 236.12 43.88c-44.45 25.74-85.46 14.26-131.72 33.45z" fill="#1A2639"/><path d="M521.94 740.41c196.61 0 356-159.39 356-356s-159.39-356-356-356-356 159.39-356 356 159.39 356 356 356z" fill="#1A2639"/><path d="M521.94 667.41c156.3 0 283-126.7 283-283s-126.7-283-283-283-283 126.7-283 283 126.7 283 283 283z" fill="#DDE1EC"/><path opacity=".3" d="M529.94 151.41h-16v250h16v-250z" fill="#535461"/><g opacity=".1" fill="#000"><path opacity=".1" d="M764.94 378.41h-226v20h226v-20zM379.38 303.58l-9.28 17.72 142.2 74.47 9.28-17.72-142.2-74.47z"/><path opacity=".1" d="M521.94 418.41a30 30 0 100-60 30 30 0 000 60z"/></g><path d="M764.94 374.41h-226v20h226v-20zM521.65 374.07l-142.2-74.46-9.28 17.71 142.2 74.47 9.28-17.72z" fill="#535461"/><path d="M521.94 414.41a30 30 0 100-60 30 30 0 000 60z" fill="#535461"/><path opacity=".1" d="M260.92 418.41c0-156.3 126.7-283 283-283a282.57 282.57 0 01226.16 112.84c-48.16-87.52-141.16-146.84-248.16-146.84-156.3 0-283 126.7-283 283a281.74 281.74 0 0056.87 170.16 281.7 281.7 0 01-34.87-136.16z" fill="#000"/></g><defs><clipPath id="clip0"><path fill="#fff" d="M0 0h1037.94v772.29H0z"/></clipPath></defs></svg>