<svg width="19" height="19" viewBox="0 0 19 19" fill="none" xmlns="http://www.w3.org/2000/svg">
<path d="M8.408 13L9.452 7.108H10.712L9.668 13H8.408ZM9.872 5.5C9.704 5.34 9.62 5.144 9.62 4.912C9.62 4.68 9.704 4.484 9.872 4.324C10.04 4.156 10.24 4.072 10.472 4.072C10.712 4.072 10.916 4.156 11.084 4.324C11.252 4.484 11.336 4.68 11.336 4.912C11.336 5.144 11.252 5.34 11.084 5.5C10.916 5.66 10.712 5.74 10.472 5.74C10.24 5.74 10.04 5.66 9.872 5.5Z" fill="#B4B4B4"/>
<circle cx="9.5" cy="9.5" r="9" stroke="#B4B4B4"/>
</svg>
