<svg width="265" height="135" viewBox="0 0 265 135" fill="none" xmlns="http://www.w3.org/2000/svg">
<path d="M196.777 134.9C194.677 134.9 192.588 134.917 190.482 134.9C190.01 134.856 189.543 134.771 189.086 134.644C189.028 134.627 188.97 134.614 188.91 134.608C187.718 134.606 186.529 134.479 185.363 134.229C184.268 133.951 183.084 134.029 182.012 133.703C180.54 133.252 179.015 133.018 177.543 132.528C175.379 131.801 173.217 131.066 171.072 130.286C169.511 129.729 167.95 129.133 166.439 128.448C164.844 127.725 163.297 126.898 161.75 126.076C160.354 125.338 158.977 124.589 157.642 123.762C155.804 122.629 153.989 121.459 152.215 120.231C150.385 118.965 148.589 117.649 146.825 116.283C143.982 114.096 141.265 111.751 138.687 109.258C137.606 108.2 136.428 107.242 135.336 106.195C134.819 105.708 134.412 105.114 133.906 104.613C133.595 104.295 133.234 104.031 132.836 103.831C132.496 103.675 132.116 103.631 131.749 103.705C131.382 103.778 131.048 103.966 130.795 104.24C129.2 105.786 127.639 107.37 125.988 108.851C123.71 110.892 121.406 112.911 119.029 114.835C116.904 116.556 114.669 118.154 112.471 119.755C111.186 120.711 109.843 121.587 108.45 122.378C106.137 123.648 103.981 125.185 101.515 126.21C100.007 126.836 98.6077 127.725 97.1052 128.368C95.6027 129.011 94.0527 129.799 92.3938 130.194C91.5336 130.4 90.7181 130.785 89.8803 131.069C89.1486 131.314 88.4113 131.534 87.6768 131.765C87.0009 131.976 86.3279 132.196 85.6492 132.397C85.1633 132.539 84.6773 132.675 84.183 132.778C83.3089 132.957 82.4263 133.101 81.5494 133.257C81.2804 133.266 81.0141 133.313 80.7591 133.399C80.0106 133.8 79.1951 133.728 78.3992 133.823C76.8045 134.015 75.2154 134.263 73.6207 134.463C73.0551 134.526 72.4862 134.556 71.9171 134.552C68.9177 134.552 65.9182 134.566 62.9188 134.552C62.1737 134.565 61.4307 134.471 60.7125 134.274C60.0729 134.084 59.344 134.215 58.657 134.165C58.2465 134.116 57.8391 134.044 57.4365 133.951C57.2299 133.914 57.026 133.853 56.8193 133.834C55.9815 133.761 55.18 133.728 54.3672 133.391C53.6132 133.079 52.7363 133.079 51.9236 132.893C51.1109 132.706 50.3931 132.469 49.6279 132.26C49.033 132.099 48.4242 132.068 47.8293 131.798C46.944 131.394 45.9526 131.241 45.0366 130.899C43.6402 130.398 42.2298 129.894 40.8725 129.292C37.9966 128.013 35.1948 126.574 32.4802 124.982C31.8686 124.625 31.31 124.177 30.7291 123.773C29.1177 122.66 27.4392 121.629 25.9144 120.407C22.6185 117.744 19.5456 114.818 16.7261 111.658C15.4228 110.218 14.1884 108.732 13.0229 107.203C12.0035 105.864 11.0903 104.435 10.1798 103.026C9.38108 101.776 8.5991 100.52 7.90091 99.203C7.20271 97.8859 6.59668 96.4937 5.94596 95.1376C5.84262 94.9232 5.70578 94.7255 5.60803 94.5111C4.80322 92.8555 4.11908 91.1441 3.56092 89.3905C3.13921 87.937 2.56669 86.528 2.1366 85.0801C1.80426 83.9663 1.55849 82.8302 1.33228 81.6913C1.09489 80.494 1.053 79.2494 0.687144 78.0938C0.407866 77.2362 0.44417 76.4092 0.388314 75.5571C0.363179 75.184 0.206784 74.8192 0.153721 74.4433C0.0729369 73.9458 0.0253566 73.4435 0.0112909 72.9397C0.0112909 71.1159 0.0112909 69.2911 0.0112909 67.4654V61.6347C0.0112909 60.7993 -0.0948342 59.964 0.343633 59.1788C0.380866 59.0968 0.393474 59.0059 0.379936 58.917C0.229126 57.6167 0.611737 56.3748 0.837953 55.1245C1.03903 54.0107 1.34624 52.9331 1.61155 51.8416C1.85732 50.8309 2.08633 49.8173 2.36002 48.8177C2.63371 47.818 2.91858 46.7599 3.28443 45.7547C3.71173 44.524 4.17254 43.2988 4.68083 42.0959C5.90399 39.1282 7.34817 36.2558 9.00126 33.503C9.86144 32.0912 10.7356 30.6795 11.6991 29.3262C12.8162 27.7586 14.0646 26.2856 15.2124 24.7402C16.8266 22.5683 18.7592 20.6943 20.6779 18.8092C22.8427 16.6476 25.1858 14.6711 27.6825 12.9005C29.3135 11.7617 30.9137 10.5699 32.6285 9.55915C35.1519 8.04889 37.7631 6.68951 40.4483 5.48823C42.3222 4.67794 44.2493 4.02359 46.1288 3.23836C47.0253 2.86524 48.0084 2.70095 48.9495 2.42529C49.7734 2.18304 50.5917 1.9213 51.4156 1.66513C51.4682 1.63763 51.5234 1.61525 51.5803 1.5983C52.636 1.44237 53.7 1.31985 54.7529 1.1305C55.479 1.0052 56.194 0.810286 56.9173 0.662708C57.3837 0.568036 57.8529 0.506777 58.3137 0.426027C59.0203 0.30351 59.7241 0.178207 60.4307 0.058474C60.6055 0.0237368 60.7831 0.00417247 60.9613 0H74.0874C74.3557 0.0118562 74.6228 0.0444396 74.8861 0.0974572C75.4754 0.19213 76.0619 0.309079 76.6539 0.392614C77.7152 0.54576 78.7876 0.637648 79.7902 1.06646C79.873 1.1027 79.9623 1.12166 80.0528 1.12215C81.6893 1.06924 83.2198 1.65399 84.8005 1.9575C86.0545 2.21088 87.2553 2.7288 88.5065 2.99333C89.9699 3.3024 91.2825 4.01802 92.7124 4.40785C93.4206 4.62025 94.1107 4.8884 94.7763 5.20978C97.1278 6.27624 99.4766 7.34548 101.803 8.45649C105.355 10.1495 108.642 12.2907 111.888 14.4961C113.452 15.5597 114.96 16.7236 116.459 17.8653C117.959 19.0069 119.392 20.0929 120.813 21.2596C123.93 23.8213 126.843 26.6058 129.686 29.4627C130.443 30.2201 131.231 30.9496 131.987 31.707C132.286 32.0105 132.507 31.9854 132.825 31.707C134.532 30.053 136.255 28.4129 137.975 26.7757C138.665 26.1213 139.338 25.4474 140.064 24.8265C142.315 22.9331 144.547 21.0173 146.856 19.2018C148.861 17.6286 150.911 16.0999 153.034 14.691C155.48 13.0648 158.011 11.5668 160.538 10.0659C161.602 9.43385 162.747 8.93821 163.856 8.38131C164.911 7.85226 165.948 7.26752 167.028 6.80251C168.389 6.20106 169.777 5.66087 171.167 5.13181C172.558 4.60276 174.008 4.05422 175.457 3.61427C177.074 3.12141 178.725 2.74272 180.361 2.3167C181.311 2.07166 182.252 1.7765 183.215 1.60944C184.444 1.39503 185.687 1.26694 186.93 1.13886C187.46 1.10163 187.986 1.01777 188.502 0.888252C189.449 0.626019 190.424 0.476472 191.407 0.442733C193.864 0.361983 196.325 0.361984 198.782 0.350846C200.011 0.350846 201.254 0.281234 202.463 0.445518C203.544 0.593096 204.675 0.559683 205.706 1.03305C205.815 1.08331 205.935 1.10534 206.055 1.09709C207.348 0.977356 208.593 1.31149 209.842 1.53982C211.311 1.81827 212.76 2.18582 214.213 2.52832C215.05 2.72602 215.888 2.92093 216.726 3.16875C217.466 3.39151 218.187 3.67553 218.91 3.94841C220.745 4.64174 222.627 5.23762 224.398 6.0674C226.805 7.1979 229.173 8.43422 231.475 9.76799C233.293 10.8205 235.01 12.0568 236.725 13.2737C239.05 14.9165 241.234 16.7475 243.257 18.748C245.743 21.2095 248.226 23.6709 250.384 26.4359C252.029 28.5255 253.554 30.7055 254.953 32.9656C256.729 35.8232 258.261 38.8242 259.534 41.9372C259.972 43.0343 260.352 44.1648 260.76 45.2647C261.039 46.0387 261.366 46.8017 261.597 47.5869C262.002 48.9179 262.363 50.2628 262.734 51.6022C262.955 52.4013 263.153 53.2032 263.362 54.0052C263.38 54.0626 263.394 54.1212 263.404 54.1806C263.569 55.3863 263.714 56.5975 263.899 57.8004C264.097 59.0841 264.334 60.3622 264.547 61.643C264.597 61.9349 264.628 62.2298 264.639 62.5257C264.686 63.7203 264.7 64.9176 264.767 66.1093C264.812 66.9447 265.074 67.78 264.979 68.5903C264.762 70.403 264.7 72.2102 264.616 74.034C264.541 75.0707 264.403 76.1019 264.203 77.122C264.027 78.1328 263.776 79.1324 263.566 80.1404C263.41 80.895 263.287 81.6551 263.114 82.4042C262.812 83.6767 262.488 84.9436 262.156 86.2078C261.952 86.9791 261.762 87.7588 261.486 88.5078C260.536 91.0974 259.665 93.7176 258.366 96.1707C257.581 97.6465 256.939 99.2002 256.115 100.654C255.258 102.174 254.297 103.641 253.322 105.081C252.418 106.398 251.412 107.648 250.46 108.935C248.563 111.506 246.432 113.896 244.092 116.074C242.137 117.879 240.107 119.622 238.018 121.273C236.298 122.644 234.496 123.909 232.622 125.063C230.282 126.518 227.858 127.834 225.361 129.003C223.313 129.951 221.214 130.787 219.074 131.509C217.027 132.191 215 132.968 212.838 133.296C211.854 133.497 210.881 133.748 209.923 134.048C209.836 134.075 209.749 134.096 209.66 134.112C208.777 134.243 207.895 134.407 207.007 134.499C204.15 134.8 201.293 135.106 198.413 134.964C197.874 134.936 197.333 134.964 196.794 134.964L196.777 134.9ZM196.847 122.092C199.341 121.899 201.874 122.453 204.354 121.774C206.208 121.824 207.926 121.084 209.733 120.83C210.69 120.661 211.633 120.42 212.554 120.109C214.037 119.663 215.531 119.24 216.977 118.692C218.31 118.185 219.6 117.553 220.887 116.932C222.175 116.311 223.359 115.682 224.585 115.038C226.315 114.106 227.962 113.026 229.506 111.811C231.031 110.639 232.595 109.511 234.055 108.261C235.199 107.26 236.28 106.191 237.292 105.059C239.867 102.261 242.154 99.2135 244.12 95.9619C244.442 95.4272 244.777 94.8982 245.05 94.3385C245.793 92.821 246.511 91.2923 247.234 89.7636C248.435 87.2429 249.348 84.5959 249.957 81.8723C250.189 80.8393 250.653 79.8703 250.762 78.7816C250.876 77.6371 251.2 76.5178 251.379 75.3789C251.523 74.4949 251.617 73.6033 251.658 72.7086C251.745 70.559 251.862 68.4066 251.815 66.2597C251.77 64.2911 251.535 62.328 251.365 60.3649C251.319 59.5029 251.187 58.6476 250.971 57.8116C250.756 57.1 250.636 56.3631 250.614 55.6202C250.605 55.5322 250.583 55.4459 250.549 55.364C250.326 54.6985 250.077 54.0386 249.882 53.3647C249.686 52.6909 249.564 51.9112 249.323 51.2068C248.988 50.1626 248.586 49.1407 248.206 48.1104C247.602 46.3853 246.865 44.7095 246 43.0983C245.307 41.8592 244.517 40.673 243.911 39.395C243.305 38.1169 242.515 37.0643 241.71 35.9561C241.09 35.0874 240.426 34.2464 239.755 33.4055C239.146 32.637 238.557 31.8462 237.884 31.1389C235.823 28.9698 233.728 26.8286 231.335 25.0131C229.989 23.9967 228.637 22.9776 227.227 22.0559C225.992 21.2512 224.644 20.6219 223.39 19.8451C220.563 18.102 217.449 17.0439 214.349 15.9468C213.623 15.6906 212.875 15.479 212.115 15.2924C210.755 14.9499 209.395 14.613 208.021 14.329C207.11 14.1313 206.124 14.0143 205.156 13.8751C203.619 13.6579 202.083 13.2876 200.547 13.282C197.755 13.282 194.94 13.0036 192.133 13.4686C190.639 13.708 189.097 13.6134 187.594 13.9392C186.553 14.1647 185.489 14.2761 184.436 14.4404C184.348 14.4586 184.261 14.4828 184.176 14.5128C183.535 14.737 182.882 14.9285 182.221 15.0864C180.513 15.4554 178.833 15.9449 177.194 16.551C176.745 16.7042 176.259 16.7598 175.82 16.9325C174.795 17.339 173.784 17.7845 172.77 18.2189C170.764 19.0407 168.805 19.9759 166.906 21.0201C165.16 22.0197 163.401 23.0027 161.686 24.058C160.27 24.9295 158.893 25.8735 157.53 26.823C156.366 27.6361 155.19 28.4408 154.103 29.3513C151.76 31.3004 149.428 33.2886 147.158 35.338C143.745 38.4046 140.474 41.6049 137.344 44.9389C135.587 46.8156 134.051 48.9012 132.434 50.9088C132.18 51.2235 132.057 51.6439 131.811 51.9753C131.197 52.8106 130.566 53.632 129.904 54.4312C129.415 55.0215 128.823 55.5283 128.356 56.1353C127.077 57.806 125.843 59.5073 124.575 61.1892C124.39 61.4184 124.184 61.6292 123.958 61.8184C123.542 62.1999 123.293 62.2222 122.885 61.8352C122.497 61.4678 122.138 61.0703 121.813 60.6462C120.547 58.9643 119.295 57.2751 118.057 55.5784C117.389 54.6707 116.741 53.7546 116.102 52.8329C115.747 52.3261 115.733 51.9391 116.049 51.5242C117.004 50.2767 117.931 49.0042 118.934 47.7958C120.486 45.9302 122.098 44.1091 123.681 42.2658C124.011 41.8843 124.053 41.5223 123.768 41.2271C122.743 40.1663 121.729 39.0914 120.668 38.0668C119.414 36.8527 118.124 35.6749 116.839 34.497C115.811 33.5531 114.795 32.5924 113.722 31.7125C112.237 30.479 110.717 29.2845 109.181 28.1122C107.698 26.9789 106.201 25.8596 104.66 24.8098C103.118 23.76 101.529 22.7632 99.912 21.8053C98.6189 21.0312 97.2896 20.3073 95.9378 19.639C94.5861 18.9707 93.1451 18.3275 91.7124 17.7372C90.154 17.0884 88.5733 16.4925 86.987 15.9134C86.1829 15.6098 85.3451 15.4066 84.5265 15.156C84.1858 15.0529 83.8562 14.9054 83.5099 14.8191C82.5827 14.5935 81.6527 14.3735 80.7172 14.187C79.0806 13.8584 77.4468 13.5271 75.8019 13.257C74.6819 13.0634 73.5503 12.9444 72.4145 12.9005C69.6217 12.8281 66.8289 12.7975 64.0557 12.8337C62.9386 12.8476 61.7991 13.0815 60.6708 13.2124C59.4308 13.3572 58.1881 13.4909 56.9481 13.6384C56.8593 13.6542 56.7716 13.6756 56.6855 13.7025C55.7723 13.9252 54.8535 14.1396 53.9402 14.3735C53.161 14.574 52.3763 14.7634 51.6138 15.0168C50.3236 15.4483 49.0584 15.9468 47.7682 16.3784C46.6511 16.7515 45.5172 17.0773 44.4671 17.6397C42.973 18.4389 41.4481 19.1768 39.9568 19.9759C39.3312 20.3101 38.7754 20.7695 38.1582 21.1176C34.9881 22.9403 32.0566 25.1476 29.4308 27.689C27.8863 29.1592 26.5514 30.8438 25.0991 32.4226C23.7028 33.9318 22.5856 35.6498 21.4685 37.3511C20.6028 38.6571 19.8683 40.0493 19.0947 41.4165C17.8838 43.5945 16.8562 45.8688 16.0226 48.2162C15.8215 48.7731 15.6623 49.33 15.4808 49.8869C15.2378 50.6499 14.9837 51.41 14.7491 52.1785C14.5787 52.7354 14.414 53.3202 14.2771 53.8966C14.0593 54.8182 13.8582 55.7427 13.6655 56.6811C13.604 56.9595 13.618 57.2797 13.5538 57.5665C13.1628 59.2818 12.8109 60.997 12.8137 62.7735C12.8137 63.5755 12.6405 64.3774 12.5875 65.1793C12.5266 65.9528 12.5089 66.729 12.5344 67.5044C12.5875 68.6655 12.7997 69.8239 12.7886 70.9822C12.7886 72.5443 13.0678 74.0646 13.2857 75.5961C13.4672 76.8575 13.7744 78.1021 14.0286 79.3579C14.1532 80.1808 14.3238 80.9961 14.5396 81.7999C15.1429 83.6906 15.7712 85.5729 16.4806 87.4274C17.4196 89.887 18.5523 92.2687 19.8683 94.5501C20.7061 95.9897 21.6501 97.3597 22.5438 98.763C23.8536 100.824 25.4818 102.642 27.0876 104.463C29.5117 107.211 32.3408 109.528 35.304 111.666C36.6166 112.616 38.0214 113.443 39.4066 114.292C40.1634 114.754 40.9482 115.178 41.7441 115.573C43.2048 116.297 44.6598 117.043 46.1623 117.67C47.4694 118.227 48.8322 118.639 50.1839 119.062C51.7674 119.569 53.3482 120.092 54.9596 120.493C56.0544 120.772 57.1938 120.838 58.3109 121.006C58.5483 121.042 58.7773 121.12 59.0119 121.156C60.2212 121.354 61.4305 121.685 62.6425 121.713C66.8317 121.791 71.0209 122.016 75.2101 121.404C76.3272 121.239 77.4611 121.089 78.5614 120.864C80.0192 120.566 81.4771 120.243 82.9126 119.853C84.5994 119.394 86.2751 118.888 87.9396 118.335C89.1768 117.923 90.3889 117.43 91.587 116.918C93.1425 116.258 94.7065 115.606 96.2034 114.83C97.9629 113.916 99.6637 112.88 101.376 111.884C104.205 110.2 106.929 108.348 109.533 106.337C111.768 104.627 113.963 102.848 116.057 100.957C117.42 99.7265 118.775 98.479 120.101 97.2065C121.132 96.2208 122.123 95.1989 123.115 94.1742C123.545 93.7287 123.52 93.5811 123.115 93.1105C121.651 91.3619 120.152 89.6383 118.738 87.8479C116.739 85.3167 114.781 82.7467 112.846 80.1655C111.17 77.9379 109.531 75.6852 107.928 73.4075C106.221 70.985 104.66 68.4567 102.761 66.1678C101.513 64.6642 100.314 63.1049 99.0995 61.5873C97.7401 59.9442 96.225 58.4354 94.5752 57.082C93.0232 55.7425 91.3486 54.5511 89.5734 53.5235C88.5987 52.9666 87.5765 52.4848 86.6074 51.914C84.7502 50.8197 82.6975 50.1737 80.7202 49.3829C79.5138 48.9012 78.2067 48.6757 76.9388 48.3415C76.3048 48.1744 75.6765 47.9879 75.0369 47.857C73.8388 47.6148 72.6379 47.3558 71.4258 47.2082C70.8896 47.1442 70.4009 47.0356 70.0546 46.6513C69.2922 45.816 68.4543 45.9134 67.5411 46.2949C67.3018 46.3957 67.0362 46.4162 66.7842 46.3534C65.6671 45.997 64.55 45.5849 63.4329 45.2145C61.9823 44.6973 60.5895 44.031 59.2772 43.2264C58.0139 42.4488 56.8558 41.513 55.8309 40.4419C54.4932 39.1137 53.3761 37.6324 52.8175 35.7779C52.6779 35.3157 52.7589 34.9843 53.0493 34.7421C53.4068 34.4636 53.8453 34.1267 54.2754 34.0794C56.1437 33.8705 58.0205 33.6979 59.9 33.6283C61.8773 33.5559 63.8602 33.5615 65.8375 33.6283C67.7142 33.7007 69.5854 33.9067 71.4622 34.0515C71.4914 34.0534 71.5204 34.0581 71.5487 34.0654C73.2495 34.4052 74.9531 34.7226 76.6456 35.0957C77.9749 35.3909 79.3071 35.6999 80.6057 36.1065C82.0021 36.5409 83.3343 37.1423 84.7223 37.585C86.5185 38.1943 88.2614 38.9496 89.9336 39.8433C92.1479 40.9867 94.3021 42.2423 96.3877 43.6051C98.3458 44.8525 100.222 46.2224 102.007 47.7067C103.403 48.8678 104.654 50.1681 106.045 51.3265C108.042 52.9833 109.734 54.9463 111.435 56.8621C112.979 58.6079 114.342 60.5153 115.728 62.3948C117.152 64.3273 118.52 66.3126 119.886 68.2757C121.132 70.0466 122.344 71.8426 123.628 73.5857C124.717 75.0615 125.879 76.4844 127.024 77.9184C128.56 79.8415 130.106 81.76 131.66 83.6739C132.138 84.2642 132.345 84.2559 132.822 83.6739C134.219 81.9559 135.662 80.2573 137.034 78.5115C138.846 76.2059 140.642 73.8836 142.385 71.5224C143.781 69.6429 145.194 67.794 146.392 65.7724C147.412 64.0516 148.721 62.5006 149.906 60.8773C150.309 60.2585 150.754 59.6677 151.238 59.1091C152.634 57.664 154.047 56.2411 155.346 54.7041C156.738 53.0731 158.265 51.5622 159.912 50.1876C161.515 48.8372 163.172 47.5479 164.825 46.2587C165.625 45.6033 166.464 44.997 167.338 44.4432C169.545 43.1123 171.779 41.823 174.022 40.5589C174.904 40.0679 175.816 39.6291 176.75 39.2446C178.007 38.7211 179.289 38.2505 180.571 37.7827C181.573 37.418 182.584 37.0699 183.601 36.7525C184.567 36.4518 185.556 36.1956 186.525 35.9311C187.41 35.6944 188.298 35.4577 189.198 35.2795C190.315 35.0595 191.432 34.8739 192.549 34.7226C194.384 34.4664 196.219 34.1072 198.062 34.0376C200.695 33.9401 203.335 34.0376 205.971 34.1016C206.534 34.1549 207.093 34.2395 207.647 34.355C208.593 34.4859 209.546 34.5889 210.495 34.7254C211.029 34.8216 211.51 35.1051 211.853 35.5245C211.961 35.6238 212.038 35.753 212.073 35.8958C212.108 36.0386 212.099 36.1885 212.048 36.3265C211.935 36.7283 211.779 37.1167 211.582 37.4848C210.233 39.8405 208.348 41.6949 206.155 43.271C205.038 44.0757 203.784 44.6159 202.541 45.1783C202.242 45.3488 201.932 45.5013 201.614 45.635C200.399 46.0109 199.176 46.359 197.953 46.7042C197.372 46.8685 196.805 46.9827 196.205 46.7042C195.275 46.2699 194.738 46.4063 194.085 47.2027C193.978 47.3646 193.827 47.4927 193.649 47.5721C193.471 47.6515 193.275 47.6788 193.082 47.651C191.982 47.4978 190.96 47.9294 189.907 48.1132C188.854 48.297 187.832 48.6172 186.801 48.8873C186.145 49.0627 185.486 49.2326 184.846 49.4442C184.039 49.7226 183.268 50.1292 182.442 50.3213C180.738 50.7167 179.247 51.5966 177.694 52.3206C176.161 53.0416 174.69 53.8862 173.295 54.8461C171.635 55.9675 170.056 57.2041 168.57 58.5467C166.807 60.1343 165.186 61.8719 163.725 63.7397C162.549 65.2684 161.353 66.7804 160.22 68.3397C159.013 70.0104 157.904 71.7257 156.698 73.3796C154.388 76.5484 152.065 79.706 149.694 82.8274C148.208 84.7766 146.647 86.6923 145.08 88.5913C143.91 90.0114 142.692 91.3925 141.449 92.768C140.947 93.3249 140.866 93.453 141.36 94.0322C141.896 94.6615 142.497 95.2379 143.08 95.831C143.846 96.6078 144.714 97.3095 145.37 98.1727C146.261 99.345 147.39 100.267 148.426 101.275C149.613 102.43 150.939 103.438 152.213 104.51C152.528 104.789 152.836 105.067 153.165 105.304C154.732 106.482 156.293 107.665 157.879 108.812C159.228 109.784 160.577 110.761 161.99 111.639C163.806 112.752 165.657 113.835 167.551 114.816C169.444 115.796 171.405 116.656 173.351 117.533C174.435 118.021 175.535 118.48 176.658 118.867C177.923 119.304 179.211 119.675 180.504 120.028C181.704 120.357 182.919 120.646 184.134 120.911C185.154 121.134 186.187 121.306 187.206 121.468C188.527 121.688 189.845 121.991 191.175 122.064C193.077 122.169 194.97 122.094 196.858 122.094L196.847 122.092Z" fill="#EAF5FF"/>
</svg>
