<svg width="20" height="19" viewBox="0 0 20 19" fill="none" xmlns="http://www.w3.org/2000/svg">
<path d="M8.99773 1.53574C9.32791 1.53574 9.6581 1.55877 9.98636 1.60293C9.91917 1.59333 9.85007 1.58373 9.78288 1.57605C10.4183 1.66436 11.0383 1.83329 11.6296 2.08093C11.5682 2.05597 11.5067 2.02909 11.4453 2.00414C12.0251 2.24986 12.5683 2.56852 13.0674 2.95438C13.0156 2.91406 12.9638 2.87375 12.9119 2.83344C13.3995 3.21353 13.8391 3.65122 14.2192 4.13881C14.1789 4.08698 14.1386 4.03515 14.0983 3.98332C14.4842 4.48244 14.8047 5.02954 15.0505 5.6112C15.0255 5.54977 14.9986 5.48834 14.9737 5.42691C15.2232 6.02393 15.3941 6.64975 15.4805 7.289C15.4709 7.22181 15.4613 7.1527 15.4536 7.08551C15.5381 7.72668 15.5381 8.37745 15.4536 9.02054C15.4632 8.95335 15.4728 8.88424 15.4805 8.81706C15.3941 9.45823 15.2232 10.084 14.9737 10.6791C14.9986 10.6177 15.0255 10.5563 15.0505 10.4949C14.8028 11.0765 14.4842 11.6236 14.0983 12.1227C14.1386 12.0709 14.1789 12.0191 14.2192 11.9672C13.8391 12.4548 13.4015 12.8944 12.9119 13.2726C12.9638 13.2323 13.0156 13.192 13.0674 13.1517C12.5683 13.5356 12.0251 13.8543 11.4453 14.1019C11.5067 14.077 11.5682 14.0501 11.6296 14.0251C11.0383 14.2728 10.4183 14.4436 9.78288 14.53C9.85007 14.5204 9.91917 14.5108 9.98636 14.5031C9.33175 14.5895 8.66755 14.5914 8.01102 14.5031C8.07821 14.5127 8.14732 14.5223 8.2145 14.53C7.58101 14.4436 6.96096 14.2747 6.37162 14.027C6.43305 14.052 6.49448 14.0789 6.55591 14.1038C5.98001 13.86 5.43866 13.5433 4.94146 13.1613C4.99329 13.2016 5.04512 13.2419 5.09696 13.2822C4.59976 12.8964 4.15248 12.4491 3.76662 11.9519C3.80694 12.0037 3.84725 12.0555 3.88756 12.1074C3.50747 11.6121 3.19072 11.0688 2.945 10.4929C2.96996 10.5544 2.99683 10.6158 3.02179 10.6772C2.77415 10.0879 2.60522 9.46782 2.51884 8.83433C2.52843 8.90152 2.53803 8.97063 2.54571 9.03782C2.45741 8.38321 2.45741 7.719 2.54571 7.0644C2.53611 7.13158 2.52651 7.20069 2.51884 7.26788C2.60522 6.63439 2.77415 6.01433 3.02179 5.42499C2.99683 5.48642 2.96996 5.54785 2.945 5.60928C3.1888 5.03338 3.50555 4.49203 3.88756 3.99484C3.84725 4.04667 3.80694 4.0985 3.76662 4.15033C4.15248 3.65314 4.59976 3.20585 5.09696 2.82C5.04512 2.86031 4.99329 2.90063 4.94146 2.94094C5.43674 2.56084 5.98001 2.2441 6.55591 1.99838C6.49448 2.02333 6.43305 2.05021 6.37162 2.07517C6.96096 1.82753 7.58101 1.6586 8.2145 1.57221C8.14732 1.58181 8.07821 1.59141 8.01102 1.59909C8.33736 1.55877 8.66755 1.53574 8.99773 1.53574C9.39894 1.53574 9.7848 1.18252 9.7656 0.767869C9.7464 0.35322 9.42774 0 8.99773 0C7.45623 0.00191967 5.90898 0.447284 4.61704 1.29578C3.36733 2.11548 2.32879 3.27496 1.70489 4.63793C1.38431 5.34053 1.14819 6.07192 1.04069 6.83787C0.981178 7.2602 0.940865 7.68253 0.942784 8.1087C0.946624 8.53294 0.990776 8.95527 1.05604 9.37568C1.28833 10.8807 1.99476 12.2936 3.00067 13.43C3.99506 14.5511 5.32348 15.3785 6.76131 15.7951C8.45446 16.2865 10.3453 16.2078 11.9771 15.5359C12.4263 15.3497 12.8639 15.1424 13.2748 14.8813C13.6414 14.649 13.9908 14.3841 14.3171 14.1C14.9276 13.5682 15.4574 12.9309 15.8798 12.2398C16.7609 10.8001 17.1755 9.05894 17.02 7.3773C16.9778 6.92618 16.9087 6.47698 16.7954 6.03737C16.6841 5.60736 16.5286 5.19463 16.3539 4.78574C16.0295 4.03131 15.5707 3.34023 15.0313 2.7221C13.8775 1.40136 12.2477 0.462641 10.5219 0.147815C10.019 0.0556705 9.50836 0.00191964 8.99773 0.00191964C8.59652 0.00191964 8.21066 0.355139 8.22986 0.769789C8.24714 1.18444 8.5658 1.53574 8.99773 1.53574Z" fill="white"/>
<path d="M13.6068 13.7485C14.0982 14.24 14.5897 14.7314 15.0811 15.2228C15.8605 16.0022 16.6418 16.7835 17.4212 17.5629C17.5997 17.7414 17.7783 17.92 17.9568 18.0985C18.2409 18.3826 18.7631 18.4037 19.0433 18.0985C19.3255 17.7914 19.3466 17.3153 19.0433 17.012C18.5519 16.5205 18.0605 16.0291 17.569 15.5377C16.7896 14.7583 16.0083 13.977 15.2289 13.1976C15.0504 13.0191 14.8719 12.8405 14.6933 12.662C14.4092 12.3779 13.8871 12.3568 13.6068 12.662C13.3246 12.9691 13.3035 13.4452 13.6068 13.7485Z" fill="white"/>
</svg>
