<svg fill="none" xmlns="http://www.w3.org/2000/svg" viewBox="0 0 15 13"><path d="M8.68 4.6a2.44 2.44 0 00-.58 2.57 2.5 2.5 0 001.8 1.59c.35.07.7.06 1.06.06h2.37l-.6-.6v2.51l-.01.45.02-.16c-.01.08-.04.17-.07.25l.06-.14c-.03.08-.08.16-.14.24l.1-.13a1.2 1.2 0 01-.2.2l.13-.1c-.08.06-.16.1-.24.14l.14-.06c-.08.04-.17.06-.25.07l.16-.02c-.14.02-.27.01-.4.01H1.65l-.15-.01.16.02a1.15 1.15 0 01-.26-.07l.15.06a1.12 1.12 0 01-.24-.14l.12.1a1.19 1.19 0 01-.2-.2l.1.13-.14-.24.06.14a1.16 1.16 0 01-.07-.25l.03.16c-.02-.13-.02-.25-.02-.37v-.67-2.26-2.75-2.37-1.1c0-.05 0-.1.02-.15l-.03.16.07-.26-.06.15c.04-.09.09-.17.14-.24l-.1.12.2-.2-.12.1c.07-.05.15-.1.24-.14l-.15.06.26-.07-.16.02H12.43l-.16-.02.25.07-.14-.06.24.14-.13-.1c.08.06.14.13.2.2l-.1-.12c.06.07.1.15.14.24l-.06-.15c.03.09.06.17.07.26l-.02-.16c.02.12.01.25.01.37V4.47l.6-.6h-2.88c-.66 0-1.3.26-1.77.72-.22.23-.24.64 0 .86.24.22.61.23.85 0l.18-.16-.12.1c.12-.1.26-.18.42-.25l-.15.06a1.92 1.92 0 01.32-.1c.16-.03.31-.03.47-.03H13.33c.33 0 .6-.27.6-.6V2.3c0-.33.02-.66-.03-.98A1.64 1.64 0 0012.27 0H1.67A1.67 1.67 0 000 1.7V11a1.74 1.74 0 00.47 1.19 1.7 1.7 0 001.34.5h10.46c.32 0 .66-.1.92-.28.2-.14.38-.31.51-.53.14-.23.2-.47.23-.72v-.3-.52-1.4-.72c0-.33-.27-.6-.6-.6H10.7c-.18 0-.35 0-.52-.02l.16.02a1.95 1.95 0 01-.47-.13l.14.06c-.15-.06-.3-.14-.42-.25l.12.1c-.12-.1-.24-.21-.33-.33l.1.12c-.1-.13-.2-.28-.26-.43l.06.15a1.94 1.94 0 01-.1-.31 1.95 1.95 0 01-.02-.34c.02-.16.06-.33.13-.48l-.06.14c.06-.15.15-.29.24-.42l-.09.12.15-.17c.23-.22.25-.63 0-.85a.61.61 0 00-.85 0z" fill="#535353"/><path d="M13.54 4.87V7.88a5.82 5.82 0 00-.01-.06l.06-.15a.4.4 0 01-.05.09l.1-.13a.5.5 0 01-.08.07l.12-.1a.6.6 0 01-.08.06l.15-.06a5.79 5.79 0 01.06 0c-.13.02-.27.01-.4.01h-2.65c-.2 0-.4.01-.58-.01l.16.02a1.94 1.94 0 01-.47-.13l.14.06c-.15-.06-.3-.15-.42-.25l.12.1c-.12-.1-.23-.21-.33-.34l.1.13c-.1-.14-.2-.28-.26-.43l.06.14a1.94 1.94 0 01-.1-.3 1.95 1.95 0 01-.02-.34c.02-.17.06-.33.13-.48l-.06.14c.06-.15.15-.3.25-.42l-.1.12c.1-.12.2-.23.33-.33l-.12.1c.12-.1.27-.18.42-.25l-.15.06a1.92 1.92 0 01.32-.1c.17-.03.34-.02.51-.02H13.34c.15 0 .31-.02.47 0a5.84 5.84 0 00-.07 0l-.14-.05a115.28 115.28 0 01.03.03l-.1-.13a.6.6 0 01.06.09l-.06-.15.03.1a5.83 5.83 0 01-.02-.1c0 .16.07.31.18.43.1.1.27.18.42.17.32-.01.62-.26.6-.6a1.01 1.01 0 00-1.06-1H11.3c-.47 0-.96-.04-1.42.06a2.5 2.5 0 00-1.86 1.85 2.7 2.7 0 00-.02 1 2.37 2.37 0 00.71 1.35 2.42 2.42 0 001.52.68l.44.01H13.7c.2 0 .38-.04.54-.13.32-.18.5-.52.5-.88V6.52 4.96v-.09c0-.31-.27-.62-.6-.6a.61.61 0 00-.6.6z" fill="#535353"/><path d="M10.07 6.34v.02a5.47 5.47 0 000-.1l.07-.15-.02.03a101.1 101.1 0 01.06-.09 1010.7 1010.7 0 00.1-.08l.14-.06a5.79 5.79 0 00.18 0l.14.06a1010.7 1010.7 0 00.06.04l.1.13-.02-.03.06.14a5.46 5.46 0 000 .18l-.06.15.02-.03-.1.12a1010.7 1010.7 0 01-.06.04l-.14.07.05-.02a5.79 5.79 0 01-.12.02 5.84 5.84 0 00-.11 0l-.15-.06.03.01a1010.7 1010.7 0 01-.09-.06 101.1 101.1 0 01-.07-.09l-.06-.14v.05l-.01-.16v.01a.61.61 0 00.6.6c.16 0 .32-.05.43-.17a.6.6 0 00.18-.43.8.8 0 00-.23-.54.78.78 0 00-.54-.22.78.78 0 00-.77.76.77.77 0 001.3.55.8.8 0 00.24-.55.61.61 0 00-.18-.42.61.61 0 00-.43-.18.62.62 0 00-.42.18.66.66 0 00-.18.42z" fill="#535353"/></svg>