<svg fill="none" xmlns="http://www.w3.org/2000/svg" viewBox="0 0 12 17"><path d="M11.7 15.03l-.55-.28-1.3-.67-1.55-.8-1.34-.7-.64-.33a.64.64 0 00-.4-.09.8.8 0 00-.24.09l-.07.03-.33.18-1.21.62-1.55.8c-.47.25-.94.5-1.41.73l-.77.4-.03.02.93.6v-.37-1.02-1.5-1.83-2V6.9 5.03 3.45 2.33v-.51-.16c0 .06 0 .12-.02.19.02-.1.04-.2.08-.3l-.07.17.13-.23-.1.14c.05-.08.11-.15.18-.2l-.12.1a1 1 0 01.2-.14l-.14.07a1 1 0 01.26-.08l-.17.03c.11-.02.23-.01.34-.01H10.53l-.17-.02c.1.02.18.04.26.08l-.15-.07c.08.04.15.09.21.14l-.13-.1c.07.05.13.12.19.2l-.1-.14c.05.07.1.15.12.23l-.06-.17c.04.1.06.2.07.3l-.02-.19c.02.16 0 .32 0 .48v13.49c0 .36.3.71.63.7.33-.02.62-.31.62-.7v-.73-1.89-2.6-2.87-2.68V2.8v-.98a1.9 1.9 0 00-.78-1.57c-.28-.2-.6-.26-.93-.26H2.2C1.7 0 1.16-.05.73.3.39.57.1.97.03 1.44c-.01.13-.03.26-.03.4v13.79c0 .25.12.48.3.6a.55.55 0 00.62 0l.54-.27 1.3-.67 1.54-.8 1.35-.7.65-.34h.01-.62l.53.27 1.29.67 1.55.8 1.35.7.65.34c.16.08.31.12.48.07.15-.05.3-.17.37-.32a.77.77 0 00.07-.54c-.05-.16-.14-.34-.29-.41z" fill="#1A2639"/></svg>