<svg viewBox="0 0 37 22" fill="none" xmlns="http://www.w3.org/2000/svg"><path d="M15.724 14.105c-2.04 2.373-5.9 7.407-9.714 7.43C1.863 21.555.466 19.25.466 10.822c0-8.428 6.675-9.515 6.675-9.515h21.823s6.697 1.065 6.697 9.515c0 8.45-1.397 10.733-5.544 10.711-3.704-.022-7.496-4.857-9.559-7.252-1.375-1.552-3.659-1.552-4.834-.177z" fill="#F0592C"/><path d="M18.74 12.685s2.284.067 4.724 2.507c2.417 2.417 6.254 5.034 8.605 2.883 1.907-1.73 1.241-16.279-3.15-16.279-4.39 0 3.15-2.417 5.744 4.103 2.595 6.52-.2 13.905-.71 14.216-.51.31-4.812 3.194-8.405-.577-3.57-3.792-6.808-6.853-6.808-6.853z" fill="#DB4C22"/><path d="M17.476 12.685s-2.284.067-4.724 2.506c-2.417 2.418-6.254 5.035-8.605 2.884-1.907-1.73-1.242-16.279 3.15-16.279 4.39 0-3.15-2.417-5.745 4.103-2.594 6.498.2 13.883.71 14.194.51.31 4.813 3.193 8.405-.577 3.57-3.77 6.809-6.83 6.809-6.83z" fill="#FF8763"/><path d="M29.718 6.565a2.082 2.082 0 01-2.085 2.084 2.082 2.082 0 01-2.085-2.084c0-1.154.932-2.085 2.085-2.085 1.153.022 2.085.953 2.085 2.085z" fill="#fff"/><path d="M27.633 9.137a2.55 2.55 0 112.55-2.55 2.565 2.565 0 01-2.55 2.55zm0-4.17a1.59 1.59 0 00-1.597 1.598c0 .887.71 1.596 1.597 1.596a1.59 1.59 0 001.597-1.596c0-.865-.71-1.597-1.597-1.597z" fill="#232347"/><path d="M29.718 14.105a2.082 2.082 0 01-2.085 2.084 2.082 2.082 0 01-2.085-2.084c0-1.153.932-2.085 2.085-2.085s2.085.932 2.085 2.085z" fill="#fff"/><path d="M27.633 16.655a2.55 2.55 0 112.55-2.55 2.565 2.565 0 01-2.55 2.55zm0-4.17a1.59 1.59 0 00-1.597 1.598c0 .887.71 1.596 1.597 1.596a1.59 1.59 0 001.597-1.596c0-.865-.71-1.597-1.597-1.597z" fill="#232347"/><path d="M31.381 12.42a2.082 2.082 0 01-2.085-2.085c0-1.154.932-2.085 2.085-2.085s2.085.931 2.085 2.085a2.082 2.082 0 01-2.085 2.084z" fill="#fff"/><path d="M31.381 12.885a2.55 2.55 0 112.55-2.55c.023 1.419-1.13 2.55-2.55 2.55zm0-4.147a1.59 1.59 0 00-1.597 1.597c0 .887.71 1.596 1.597 1.596a1.59 1.59 0 001.597-1.596c.022-.887-.71-1.597-1.597-1.597z" fill="#232347"/><path d="M23.863 12.42a2.082 2.082 0 01-2.085-2.085c0-1.154.932-2.085 2.085-2.085s2.085.931 2.085 2.085a2.082 2.082 0 01-2.085 2.084z" fill="#fff"/><path d="M23.863 12.885a2.55 2.55 0 112.55-2.55c0 1.419-1.13 2.55-2.55 2.55zm0-4.147a1.59 1.59 0 00-1.597 1.597c0 .887.71 1.596 1.597 1.596a1.59 1.59 0 001.597-1.596 1.59 1.59 0 00-1.597-1.597z" fill="#232347"/><path d="M30.161 22h-.044c-3.615-.022-7.075-4.08-9.359-6.764-.2-.222-.377-.444-.554-.643-.577-.666-1.375-1.043-2.196-1.043-.754 0-1.441.31-1.907.843-.178.222-.377.444-.599.71-2.173 2.572-5.788 6.875-9.47 6.897h-.044c-2.35 0-3.815-.754-4.724-2.462C.377 17.875 0 15.258 0 10.8 0 2.062 7.03.843 7.097.82h21.956c.066.023 7.096 1.242 7.096 9.98-.022 8.494-1.464 11.2-5.988 11.2zm-12.175-9.381c1.109 0 2.173.488 2.927 1.375.178.2.355.421.555.665 2.04 2.395 5.455 6.41 8.627 6.41h.044c3.46 0 5.012-1.486 5.012-10.246 0-7.63-5.766-8.938-6.254-9.027H7.163C6.61 1.907.91 3.127.91 10.823c0 4.213.355 6.786 1.153 8.294.732 1.397 1.863 1.951 3.86 1.951h.044c3.238-.022 6.697-4.102 8.76-6.564.222-.244.421-.488.599-.71.665-.754 1.64-1.175 2.66-1.175z" fill="#232347"/><path d="M6.83 13.506a1.685 1.685 0 103.372 0v-2.284H6.83v2.284zM10.18 5.589a1.685 1.685 0 10-3.372 0v2.284h3.371V5.589z" fill="#232347"/><path d="M4.546 7.85a1.685 1.685 0 100 3.372h2.285V7.85H4.546zM12.464 7.85h-2.285v3.372h2.285a1.685 1.685 0 100-3.371zM19.538 11.71H16.3a.492.492 0 01-.488-.488c0-.266.222-.488.488-.488h3.216c.266 0 .488.222.488.488s-.2.488-.466.488zM20.337 1.308A1.31 1.31 0 0019.028 0h-1.93a1.31 1.31 0 00-1.308 1.308h4.547z" fill="#232347"/></svg>